%TF.GenerationSoftware,KiCad,Pcbnew,9.0.7*%
%TF.CreationDate,2026-03-24T08:54:29-04:00*%
%TF.ProjectId,CalculatorKeypadv4,43616c63-756c-4617-946f-724b65797061,rev?*%
%TF.SameCoordinates,Original*%
%TF.FileFunction,Legend,Top*%
%TF.FilePolarity,Positive*%
%FSLAX46Y46*%
G04 Gerber Fmt 4.6, Leading zero omitted, Abs format (unit mm)*
G04 Created by KiCad (PCBNEW 9.0.7) date 2026-03-24 08:54:29*
%MOMM*%
%LPD*%
G01*
G04 APERTURE LIST*
%ADD10C,0.150000*%
%ADD11C,0.100000*%
%ADD12C,0.120000*%
G04 APERTURE END LIST*
D10*
X70683592Y-109197843D02*
X70826449Y-109245462D01*
X70826449Y-109245462D02*
X71064544Y-109245462D01*
X71064544Y-109245462D02*
X71159782Y-109197843D01*
X71159782Y-109197843D02*
X71207401Y-109150223D01*
X71207401Y-109150223D02*
X71255020Y-109054985D01*
X71255020Y-109054985D02*
X71255020Y-108959747D01*
X71255020Y-108959747D02*
X71207401Y-108864509D01*
X71207401Y-108864509D02*
X71159782Y-108816890D01*
X71159782Y-108816890D02*
X71064544Y-108769271D01*
X71064544Y-108769271D02*
X70874068Y-108721652D01*
X70874068Y-108721652D02*
X70778830Y-108674033D01*
X70778830Y-108674033D02*
X70731211Y-108626414D01*
X70731211Y-108626414D02*
X70683592Y-108531176D01*
X70683592Y-108531176D02*
X70683592Y-108435938D01*
X70683592Y-108435938D02*
X70731211Y-108340700D01*
X70731211Y-108340700D02*
X70778830Y-108293081D01*
X70778830Y-108293081D02*
X70874068Y-108245462D01*
X70874068Y-108245462D02*
X71112163Y-108245462D01*
X71112163Y-108245462D02*
X71255020Y-108293081D01*
X71588354Y-108245462D02*
X71826449Y-109245462D01*
X71826449Y-109245462D02*
X72016925Y-108531176D01*
X72016925Y-108531176D02*
X72207401Y-109245462D01*
X72207401Y-109245462D02*
X72445497Y-108245462D01*
X73350258Y-109245462D02*
X72778830Y-109245462D01*
X73064544Y-109245462D02*
X73064544Y-108245462D01*
X73064544Y-108245462D02*
X72969306Y-108388319D01*
X72969306Y-108388319D02*
X72874068Y-108483557D01*
X72874068Y-108483557D02*
X72778830Y-108531176D01*
X74207401Y-108578795D02*
X74207401Y-109245462D01*
X73969306Y-108197843D02*
X73731211Y-108912128D01*
X73731211Y-108912128D02*
X74350258Y-108912128D01*
X61158592Y-128247843D02*
X61301449Y-128295462D01*
X61301449Y-128295462D02*
X61539544Y-128295462D01*
X61539544Y-128295462D02*
X61634782Y-128247843D01*
X61634782Y-128247843D02*
X61682401Y-128200223D01*
X61682401Y-128200223D02*
X61730020Y-128104985D01*
X61730020Y-128104985D02*
X61730020Y-128009747D01*
X61730020Y-128009747D02*
X61682401Y-127914509D01*
X61682401Y-127914509D02*
X61634782Y-127866890D01*
X61634782Y-127866890D02*
X61539544Y-127819271D01*
X61539544Y-127819271D02*
X61349068Y-127771652D01*
X61349068Y-127771652D02*
X61253830Y-127724033D01*
X61253830Y-127724033D02*
X61206211Y-127676414D01*
X61206211Y-127676414D02*
X61158592Y-127581176D01*
X61158592Y-127581176D02*
X61158592Y-127485938D01*
X61158592Y-127485938D02*
X61206211Y-127390700D01*
X61206211Y-127390700D02*
X61253830Y-127343081D01*
X61253830Y-127343081D02*
X61349068Y-127295462D01*
X61349068Y-127295462D02*
X61587163Y-127295462D01*
X61587163Y-127295462D02*
X61730020Y-127343081D01*
X62063354Y-127295462D02*
X62301449Y-128295462D01*
X62301449Y-128295462D02*
X62491925Y-127581176D01*
X62491925Y-127581176D02*
X62682401Y-128295462D01*
X62682401Y-128295462D02*
X62920497Y-127295462D01*
X63825258Y-128295462D02*
X63253830Y-128295462D01*
X63539544Y-128295462D02*
X63539544Y-127295462D01*
X63539544Y-127295462D02*
X63444306Y-127438319D01*
X63444306Y-127438319D02*
X63349068Y-127533557D01*
X63349068Y-127533557D02*
X63253830Y-127581176D01*
X64396687Y-127724033D02*
X64301449Y-127676414D01*
X64301449Y-127676414D02*
X64253830Y-127628795D01*
X64253830Y-127628795D02*
X64206211Y-127533557D01*
X64206211Y-127533557D02*
X64206211Y-127485938D01*
X64206211Y-127485938D02*
X64253830Y-127390700D01*
X64253830Y-127390700D02*
X64301449Y-127343081D01*
X64301449Y-127343081D02*
X64396687Y-127295462D01*
X64396687Y-127295462D02*
X64587163Y-127295462D01*
X64587163Y-127295462D02*
X64682401Y-127343081D01*
X64682401Y-127343081D02*
X64730020Y-127390700D01*
X64730020Y-127390700D02*
X64777639Y-127485938D01*
X64777639Y-127485938D02*
X64777639Y-127533557D01*
X64777639Y-127533557D02*
X64730020Y-127628795D01*
X64730020Y-127628795D02*
X64682401Y-127676414D01*
X64682401Y-127676414D02*
X64587163Y-127724033D01*
X64587163Y-127724033D02*
X64396687Y-127724033D01*
X64396687Y-127724033D02*
X64301449Y-127771652D01*
X64301449Y-127771652D02*
X64253830Y-127819271D01*
X64253830Y-127819271D02*
X64206211Y-127914509D01*
X64206211Y-127914509D02*
X64206211Y-128104985D01*
X64206211Y-128104985D02*
X64253830Y-128200223D01*
X64253830Y-128200223D02*
X64301449Y-128247843D01*
X64301449Y-128247843D02*
X64396687Y-128295462D01*
X64396687Y-128295462D02*
X64587163Y-128295462D01*
X64587163Y-128295462D02*
X64682401Y-128247843D01*
X64682401Y-128247843D02*
X64730020Y-128200223D01*
X64730020Y-128200223D02*
X64777639Y-128104985D01*
X64777639Y-128104985D02*
X64777639Y-127914509D01*
X64777639Y-127914509D02*
X64730020Y-127819271D01*
X64730020Y-127819271D02*
X64682401Y-127771652D01*
X64682401Y-127771652D02*
X64587163Y-127724033D01*
X89733592Y-128247843D02*
X89876449Y-128295462D01*
X89876449Y-128295462D02*
X90114544Y-128295462D01*
X90114544Y-128295462D02*
X90209782Y-128247843D01*
X90209782Y-128247843D02*
X90257401Y-128200223D01*
X90257401Y-128200223D02*
X90305020Y-128104985D01*
X90305020Y-128104985D02*
X90305020Y-128009747D01*
X90305020Y-128009747D02*
X90257401Y-127914509D01*
X90257401Y-127914509D02*
X90209782Y-127866890D01*
X90209782Y-127866890D02*
X90114544Y-127819271D01*
X90114544Y-127819271D02*
X89924068Y-127771652D01*
X89924068Y-127771652D02*
X89828830Y-127724033D01*
X89828830Y-127724033D02*
X89781211Y-127676414D01*
X89781211Y-127676414D02*
X89733592Y-127581176D01*
X89733592Y-127581176D02*
X89733592Y-127485938D01*
X89733592Y-127485938D02*
X89781211Y-127390700D01*
X89781211Y-127390700D02*
X89828830Y-127343081D01*
X89828830Y-127343081D02*
X89924068Y-127295462D01*
X89924068Y-127295462D02*
X90162163Y-127295462D01*
X90162163Y-127295462D02*
X90305020Y-127343081D01*
X90638354Y-127295462D02*
X90876449Y-128295462D01*
X90876449Y-128295462D02*
X91066925Y-127581176D01*
X91066925Y-127581176D02*
X91257401Y-128295462D01*
X91257401Y-128295462D02*
X91495497Y-127295462D01*
X92400258Y-128295462D02*
X91828830Y-128295462D01*
X92114544Y-128295462D02*
X92114544Y-127295462D01*
X92114544Y-127295462D02*
X92019306Y-127438319D01*
X92019306Y-127438319D02*
X91924068Y-127533557D01*
X91924068Y-127533557D02*
X91828830Y-127581176D01*
X92876449Y-128295462D02*
X93066925Y-128295462D01*
X93066925Y-128295462D02*
X93162163Y-128247843D01*
X93162163Y-128247843D02*
X93209782Y-128200223D01*
X93209782Y-128200223D02*
X93305020Y-128057366D01*
X93305020Y-128057366D02*
X93352639Y-127866890D01*
X93352639Y-127866890D02*
X93352639Y-127485938D01*
X93352639Y-127485938D02*
X93305020Y-127390700D01*
X93305020Y-127390700D02*
X93257401Y-127343081D01*
X93257401Y-127343081D02*
X93162163Y-127295462D01*
X93162163Y-127295462D02*
X92971687Y-127295462D01*
X92971687Y-127295462D02*
X92876449Y-127343081D01*
X92876449Y-127343081D02*
X92828830Y-127390700D01*
X92828830Y-127390700D02*
X92781211Y-127485938D01*
X92781211Y-127485938D02*
X92781211Y-127724033D01*
X92781211Y-127724033D02*
X92828830Y-127819271D01*
X92828830Y-127819271D02*
X92876449Y-127866890D01*
X92876449Y-127866890D02*
X92971687Y-127914509D01*
X92971687Y-127914509D02*
X93162163Y-127914509D01*
X93162163Y-127914509D02*
X93257401Y-127866890D01*
X93257401Y-127866890D02*
X93305020Y-127819271D01*
X93305020Y-127819271D02*
X93352639Y-127724033D01*
X51633592Y-90147843D02*
X51776449Y-90195462D01*
X51776449Y-90195462D02*
X52014544Y-90195462D01*
X52014544Y-90195462D02*
X52109782Y-90147843D01*
X52109782Y-90147843D02*
X52157401Y-90100223D01*
X52157401Y-90100223D02*
X52205020Y-90004985D01*
X52205020Y-90004985D02*
X52205020Y-89909747D01*
X52205020Y-89909747D02*
X52157401Y-89814509D01*
X52157401Y-89814509D02*
X52109782Y-89766890D01*
X52109782Y-89766890D02*
X52014544Y-89719271D01*
X52014544Y-89719271D02*
X51824068Y-89671652D01*
X51824068Y-89671652D02*
X51728830Y-89624033D01*
X51728830Y-89624033D02*
X51681211Y-89576414D01*
X51681211Y-89576414D02*
X51633592Y-89481176D01*
X51633592Y-89481176D02*
X51633592Y-89385938D01*
X51633592Y-89385938D02*
X51681211Y-89290700D01*
X51681211Y-89290700D02*
X51728830Y-89243081D01*
X51728830Y-89243081D02*
X51824068Y-89195462D01*
X51824068Y-89195462D02*
X52062163Y-89195462D01*
X52062163Y-89195462D02*
X52205020Y-89243081D01*
X52538354Y-89195462D02*
X52776449Y-90195462D01*
X52776449Y-90195462D02*
X52966925Y-89481176D01*
X52966925Y-89481176D02*
X53157401Y-90195462D01*
X53157401Y-90195462D02*
X53395497Y-89195462D01*
X54300258Y-90195462D02*
X53728830Y-90195462D01*
X54014544Y-90195462D02*
X54014544Y-89195462D01*
X54014544Y-89195462D02*
X53919306Y-89338319D01*
X53919306Y-89338319D02*
X53824068Y-89433557D01*
X53824068Y-89433557D02*
X53728830Y-89481176D01*
X54919306Y-89195462D02*
X55014544Y-89195462D01*
X55014544Y-89195462D02*
X55109782Y-89243081D01*
X55109782Y-89243081D02*
X55157401Y-89290700D01*
X55157401Y-89290700D02*
X55205020Y-89385938D01*
X55205020Y-89385938D02*
X55252639Y-89576414D01*
X55252639Y-89576414D02*
X55252639Y-89814509D01*
X55252639Y-89814509D02*
X55205020Y-90004985D01*
X55205020Y-90004985D02*
X55157401Y-90100223D01*
X55157401Y-90100223D02*
X55109782Y-90147843D01*
X55109782Y-90147843D02*
X55014544Y-90195462D01*
X55014544Y-90195462D02*
X54919306Y-90195462D01*
X54919306Y-90195462D02*
X54824068Y-90147843D01*
X54824068Y-90147843D02*
X54776449Y-90100223D01*
X54776449Y-90100223D02*
X54728830Y-90004985D01*
X54728830Y-90004985D02*
X54681211Y-89814509D01*
X54681211Y-89814509D02*
X54681211Y-89576414D01*
X54681211Y-89576414D02*
X54728830Y-89385938D01*
X54728830Y-89385938D02*
X54776449Y-89290700D01*
X54776449Y-89290700D02*
X54824068Y-89243081D01*
X54824068Y-89243081D02*
X54919306Y-89195462D01*
X108783592Y-118722843D02*
X108926449Y-118770462D01*
X108926449Y-118770462D02*
X109164544Y-118770462D01*
X109164544Y-118770462D02*
X109259782Y-118722843D01*
X109259782Y-118722843D02*
X109307401Y-118675223D01*
X109307401Y-118675223D02*
X109355020Y-118579985D01*
X109355020Y-118579985D02*
X109355020Y-118484747D01*
X109355020Y-118484747D02*
X109307401Y-118389509D01*
X109307401Y-118389509D02*
X109259782Y-118341890D01*
X109259782Y-118341890D02*
X109164544Y-118294271D01*
X109164544Y-118294271D02*
X108974068Y-118246652D01*
X108974068Y-118246652D02*
X108878830Y-118199033D01*
X108878830Y-118199033D02*
X108831211Y-118151414D01*
X108831211Y-118151414D02*
X108783592Y-118056176D01*
X108783592Y-118056176D02*
X108783592Y-117960938D01*
X108783592Y-117960938D02*
X108831211Y-117865700D01*
X108831211Y-117865700D02*
X108878830Y-117818081D01*
X108878830Y-117818081D02*
X108974068Y-117770462D01*
X108974068Y-117770462D02*
X109212163Y-117770462D01*
X109212163Y-117770462D02*
X109355020Y-117818081D01*
X109688354Y-117770462D02*
X109926449Y-118770462D01*
X109926449Y-118770462D02*
X110116925Y-118056176D01*
X110116925Y-118056176D02*
X110307401Y-118770462D01*
X110307401Y-118770462D02*
X110545497Y-117770462D01*
X111450258Y-118770462D02*
X110878830Y-118770462D01*
X111164544Y-118770462D02*
X111164544Y-117770462D01*
X111164544Y-117770462D02*
X111069306Y-117913319D01*
X111069306Y-117913319D02*
X110974068Y-118008557D01*
X110974068Y-118008557D02*
X110878830Y-118056176D01*
X111783592Y-117770462D02*
X112450258Y-117770462D01*
X112450258Y-117770462D02*
X112021687Y-118770462D01*
X51633592Y-109197843D02*
X51776449Y-109245462D01*
X51776449Y-109245462D02*
X52014544Y-109245462D01*
X52014544Y-109245462D02*
X52109782Y-109197843D01*
X52109782Y-109197843D02*
X52157401Y-109150223D01*
X52157401Y-109150223D02*
X52205020Y-109054985D01*
X52205020Y-109054985D02*
X52205020Y-108959747D01*
X52205020Y-108959747D02*
X52157401Y-108864509D01*
X52157401Y-108864509D02*
X52109782Y-108816890D01*
X52109782Y-108816890D02*
X52014544Y-108769271D01*
X52014544Y-108769271D02*
X51824068Y-108721652D01*
X51824068Y-108721652D02*
X51728830Y-108674033D01*
X51728830Y-108674033D02*
X51681211Y-108626414D01*
X51681211Y-108626414D02*
X51633592Y-108531176D01*
X51633592Y-108531176D02*
X51633592Y-108435938D01*
X51633592Y-108435938D02*
X51681211Y-108340700D01*
X51681211Y-108340700D02*
X51728830Y-108293081D01*
X51728830Y-108293081D02*
X51824068Y-108245462D01*
X51824068Y-108245462D02*
X52062163Y-108245462D01*
X52062163Y-108245462D02*
X52205020Y-108293081D01*
X52538354Y-108245462D02*
X52776449Y-109245462D01*
X52776449Y-109245462D02*
X52966925Y-108531176D01*
X52966925Y-108531176D02*
X53157401Y-109245462D01*
X53157401Y-109245462D02*
X53395497Y-108245462D01*
X54300258Y-109245462D02*
X53728830Y-109245462D01*
X54014544Y-109245462D02*
X54014544Y-108245462D01*
X54014544Y-108245462D02*
X53919306Y-108388319D01*
X53919306Y-108388319D02*
X53824068Y-108483557D01*
X53824068Y-108483557D02*
X53728830Y-108531176D01*
X54633592Y-108245462D02*
X55252639Y-108245462D01*
X55252639Y-108245462D02*
X54919306Y-108626414D01*
X54919306Y-108626414D02*
X55062163Y-108626414D01*
X55062163Y-108626414D02*
X55157401Y-108674033D01*
X55157401Y-108674033D02*
X55205020Y-108721652D01*
X55205020Y-108721652D02*
X55252639Y-108816890D01*
X55252639Y-108816890D02*
X55252639Y-109054985D01*
X55252639Y-109054985D02*
X55205020Y-109150223D01*
X55205020Y-109150223D02*
X55157401Y-109197843D01*
X55157401Y-109197843D02*
X55062163Y-109245462D01*
X55062163Y-109245462D02*
X54776449Y-109245462D01*
X54776449Y-109245462D02*
X54681211Y-109197843D01*
X54681211Y-109197843D02*
X54633592Y-109150223D01*
X70683592Y-90147843D02*
X70826449Y-90195462D01*
X70826449Y-90195462D02*
X71064544Y-90195462D01*
X71064544Y-90195462D02*
X71159782Y-90147843D01*
X71159782Y-90147843D02*
X71207401Y-90100223D01*
X71207401Y-90100223D02*
X71255020Y-90004985D01*
X71255020Y-90004985D02*
X71255020Y-89909747D01*
X71255020Y-89909747D02*
X71207401Y-89814509D01*
X71207401Y-89814509D02*
X71159782Y-89766890D01*
X71159782Y-89766890D02*
X71064544Y-89719271D01*
X71064544Y-89719271D02*
X70874068Y-89671652D01*
X70874068Y-89671652D02*
X70778830Y-89624033D01*
X70778830Y-89624033D02*
X70731211Y-89576414D01*
X70731211Y-89576414D02*
X70683592Y-89481176D01*
X70683592Y-89481176D02*
X70683592Y-89385938D01*
X70683592Y-89385938D02*
X70731211Y-89290700D01*
X70731211Y-89290700D02*
X70778830Y-89243081D01*
X70778830Y-89243081D02*
X70874068Y-89195462D01*
X70874068Y-89195462D02*
X71112163Y-89195462D01*
X71112163Y-89195462D02*
X71255020Y-89243081D01*
X71588354Y-89195462D02*
X71826449Y-90195462D01*
X71826449Y-90195462D02*
X72016925Y-89481176D01*
X72016925Y-89481176D02*
X72207401Y-90195462D01*
X72207401Y-90195462D02*
X72445497Y-89195462D01*
X73350258Y-90195462D02*
X72778830Y-90195462D01*
X73064544Y-90195462D02*
X73064544Y-89195462D01*
X73064544Y-89195462D02*
X72969306Y-89338319D01*
X72969306Y-89338319D02*
X72874068Y-89433557D01*
X72874068Y-89433557D02*
X72778830Y-89481176D01*
X74302639Y-90195462D02*
X73731211Y-90195462D01*
X74016925Y-90195462D02*
X74016925Y-89195462D01*
X74016925Y-89195462D02*
X73921687Y-89338319D01*
X73921687Y-89338319D02*
X73826449Y-89433557D01*
X73826449Y-89433557D02*
X73731211Y-89481176D01*
X52109783Y-71097843D02*
X52252640Y-71145462D01*
X52252640Y-71145462D02*
X52490735Y-71145462D01*
X52490735Y-71145462D02*
X52585973Y-71097843D01*
X52585973Y-71097843D02*
X52633592Y-71050223D01*
X52633592Y-71050223D02*
X52681211Y-70954985D01*
X52681211Y-70954985D02*
X52681211Y-70859747D01*
X52681211Y-70859747D02*
X52633592Y-70764509D01*
X52633592Y-70764509D02*
X52585973Y-70716890D01*
X52585973Y-70716890D02*
X52490735Y-70669271D01*
X52490735Y-70669271D02*
X52300259Y-70621652D01*
X52300259Y-70621652D02*
X52205021Y-70574033D01*
X52205021Y-70574033D02*
X52157402Y-70526414D01*
X52157402Y-70526414D02*
X52109783Y-70431176D01*
X52109783Y-70431176D02*
X52109783Y-70335938D01*
X52109783Y-70335938D02*
X52157402Y-70240700D01*
X52157402Y-70240700D02*
X52205021Y-70193081D01*
X52205021Y-70193081D02*
X52300259Y-70145462D01*
X52300259Y-70145462D02*
X52538354Y-70145462D01*
X52538354Y-70145462D02*
X52681211Y-70193081D01*
X53014545Y-70145462D02*
X53252640Y-71145462D01*
X53252640Y-71145462D02*
X53443116Y-70431176D01*
X53443116Y-70431176D02*
X53633592Y-71145462D01*
X53633592Y-71145462D02*
X53871688Y-70145462D01*
X54728830Y-70145462D02*
X54252640Y-70145462D01*
X54252640Y-70145462D02*
X54205021Y-70621652D01*
X54205021Y-70621652D02*
X54252640Y-70574033D01*
X54252640Y-70574033D02*
X54347878Y-70526414D01*
X54347878Y-70526414D02*
X54585973Y-70526414D01*
X54585973Y-70526414D02*
X54681211Y-70574033D01*
X54681211Y-70574033D02*
X54728830Y-70621652D01*
X54728830Y-70621652D02*
X54776449Y-70716890D01*
X54776449Y-70716890D02*
X54776449Y-70954985D01*
X54776449Y-70954985D02*
X54728830Y-71050223D01*
X54728830Y-71050223D02*
X54681211Y-71097843D01*
X54681211Y-71097843D02*
X54585973Y-71145462D01*
X54585973Y-71145462D02*
X54347878Y-71145462D01*
X54347878Y-71145462D02*
X54252640Y-71097843D01*
X54252640Y-71097843D02*
X54205021Y-71050223D01*
X71159783Y-52047843D02*
X71302640Y-52095462D01*
X71302640Y-52095462D02*
X71540735Y-52095462D01*
X71540735Y-52095462D02*
X71635973Y-52047843D01*
X71635973Y-52047843D02*
X71683592Y-52000223D01*
X71683592Y-52000223D02*
X71731211Y-51904985D01*
X71731211Y-51904985D02*
X71731211Y-51809747D01*
X71731211Y-51809747D02*
X71683592Y-51714509D01*
X71683592Y-51714509D02*
X71635973Y-51666890D01*
X71635973Y-51666890D02*
X71540735Y-51619271D01*
X71540735Y-51619271D02*
X71350259Y-51571652D01*
X71350259Y-51571652D02*
X71255021Y-51524033D01*
X71255021Y-51524033D02*
X71207402Y-51476414D01*
X71207402Y-51476414D02*
X71159783Y-51381176D01*
X71159783Y-51381176D02*
X71159783Y-51285938D01*
X71159783Y-51285938D02*
X71207402Y-51190700D01*
X71207402Y-51190700D02*
X71255021Y-51143081D01*
X71255021Y-51143081D02*
X71350259Y-51095462D01*
X71350259Y-51095462D02*
X71588354Y-51095462D01*
X71588354Y-51095462D02*
X71731211Y-51143081D01*
X72064545Y-51095462D02*
X72302640Y-52095462D01*
X72302640Y-52095462D02*
X72493116Y-51381176D01*
X72493116Y-51381176D02*
X72683592Y-52095462D01*
X72683592Y-52095462D02*
X72921688Y-51095462D01*
X73255021Y-51190700D02*
X73302640Y-51143081D01*
X73302640Y-51143081D02*
X73397878Y-51095462D01*
X73397878Y-51095462D02*
X73635973Y-51095462D01*
X73635973Y-51095462D02*
X73731211Y-51143081D01*
X73731211Y-51143081D02*
X73778830Y-51190700D01*
X73778830Y-51190700D02*
X73826449Y-51285938D01*
X73826449Y-51285938D02*
X73826449Y-51381176D01*
X73826449Y-51381176D02*
X73778830Y-51524033D01*
X73778830Y-51524033D02*
X73207402Y-52095462D01*
X73207402Y-52095462D02*
X73826449Y-52095462D01*
X109259783Y-80622843D02*
X109402640Y-80670462D01*
X109402640Y-80670462D02*
X109640735Y-80670462D01*
X109640735Y-80670462D02*
X109735973Y-80622843D01*
X109735973Y-80622843D02*
X109783592Y-80575223D01*
X109783592Y-80575223D02*
X109831211Y-80479985D01*
X109831211Y-80479985D02*
X109831211Y-80384747D01*
X109831211Y-80384747D02*
X109783592Y-80289509D01*
X109783592Y-80289509D02*
X109735973Y-80241890D01*
X109735973Y-80241890D02*
X109640735Y-80194271D01*
X109640735Y-80194271D02*
X109450259Y-80146652D01*
X109450259Y-80146652D02*
X109355021Y-80099033D01*
X109355021Y-80099033D02*
X109307402Y-80051414D01*
X109307402Y-80051414D02*
X109259783Y-79956176D01*
X109259783Y-79956176D02*
X109259783Y-79860938D01*
X109259783Y-79860938D02*
X109307402Y-79765700D01*
X109307402Y-79765700D02*
X109355021Y-79718081D01*
X109355021Y-79718081D02*
X109450259Y-79670462D01*
X109450259Y-79670462D02*
X109688354Y-79670462D01*
X109688354Y-79670462D02*
X109831211Y-79718081D01*
X110164545Y-79670462D02*
X110402640Y-80670462D01*
X110402640Y-80670462D02*
X110593116Y-79956176D01*
X110593116Y-79956176D02*
X110783592Y-80670462D01*
X110783592Y-80670462D02*
X111021688Y-79670462D01*
X111450259Y-80670462D02*
X111640735Y-80670462D01*
X111640735Y-80670462D02*
X111735973Y-80622843D01*
X111735973Y-80622843D02*
X111783592Y-80575223D01*
X111783592Y-80575223D02*
X111878830Y-80432366D01*
X111878830Y-80432366D02*
X111926449Y-80241890D01*
X111926449Y-80241890D02*
X111926449Y-79860938D01*
X111926449Y-79860938D02*
X111878830Y-79765700D01*
X111878830Y-79765700D02*
X111831211Y-79718081D01*
X111831211Y-79718081D02*
X111735973Y-79670462D01*
X111735973Y-79670462D02*
X111545497Y-79670462D01*
X111545497Y-79670462D02*
X111450259Y-79718081D01*
X111450259Y-79718081D02*
X111402640Y-79765700D01*
X111402640Y-79765700D02*
X111355021Y-79860938D01*
X111355021Y-79860938D02*
X111355021Y-80099033D01*
X111355021Y-80099033D02*
X111402640Y-80194271D01*
X111402640Y-80194271D02*
X111450259Y-80241890D01*
X111450259Y-80241890D02*
X111545497Y-80289509D01*
X111545497Y-80289509D02*
X111735973Y-80289509D01*
X111735973Y-80289509D02*
X111831211Y-80241890D01*
X111831211Y-80241890D02*
X111878830Y-80194271D01*
X111878830Y-80194271D02*
X111926449Y-80099033D01*
D11*
X80863211Y-36366062D02*
X80863211Y-37175585D01*
X80863211Y-37175585D02*
X80910830Y-37270823D01*
X80910830Y-37270823D02*
X80958449Y-37318443D01*
X80958449Y-37318443D02*
X81053687Y-37366062D01*
X81053687Y-37366062D02*
X81244163Y-37366062D01*
X81244163Y-37366062D02*
X81339401Y-37318443D01*
X81339401Y-37318443D02*
X81387020Y-37270823D01*
X81387020Y-37270823D02*
X81434639Y-37175585D01*
X81434639Y-37175585D02*
X81434639Y-36366062D01*
X82434639Y-37366062D02*
X81863211Y-37366062D01*
X82148925Y-37366062D02*
X82148925Y-36366062D01*
X82148925Y-36366062D02*
X82053687Y-36508919D01*
X82053687Y-36508919D02*
X81958449Y-36604157D01*
X81958449Y-36604157D02*
X81863211Y-36651776D01*
D10*
X71159783Y-71097843D02*
X71302640Y-71145462D01*
X71302640Y-71145462D02*
X71540735Y-71145462D01*
X71540735Y-71145462D02*
X71635973Y-71097843D01*
X71635973Y-71097843D02*
X71683592Y-71050223D01*
X71683592Y-71050223D02*
X71731211Y-70954985D01*
X71731211Y-70954985D02*
X71731211Y-70859747D01*
X71731211Y-70859747D02*
X71683592Y-70764509D01*
X71683592Y-70764509D02*
X71635973Y-70716890D01*
X71635973Y-70716890D02*
X71540735Y-70669271D01*
X71540735Y-70669271D02*
X71350259Y-70621652D01*
X71350259Y-70621652D02*
X71255021Y-70574033D01*
X71255021Y-70574033D02*
X71207402Y-70526414D01*
X71207402Y-70526414D02*
X71159783Y-70431176D01*
X71159783Y-70431176D02*
X71159783Y-70335938D01*
X71159783Y-70335938D02*
X71207402Y-70240700D01*
X71207402Y-70240700D02*
X71255021Y-70193081D01*
X71255021Y-70193081D02*
X71350259Y-70145462D01*
X71350259Y-70145462D02*
X71588354Y-70145462D01*
X71588354Y-70145462D02*
X71731211Y-70193081D01*
X72064545Y-70145462D02*
X72302640Y-71145462D01*
X72302640Y-71145462D02*
X72493116Y-70431176D01*
X72493116Y-70431176D02*
X72683592Y-71145462D01*
X72683592Y-71145462D02*
X72921688Y-70145462D01*
X73731211Y-70145462D02*
X73540735Y-70145462D01*
X73540735Y-70145462D02*
X73445497Y-70193081D01*
X73445497Y-70193081D02*
X73397878Y-70240700D01*
X73397878Y-70240700D02*
X73302640Y-70383557D01*
X73302640Y-70383557D02*
X73255021Y-70574033D01*
X73255021Y-70574033D02*
X73255021Y-70954985D01*
X73255021Y-70954985D02*
X73302640Y-71050223D01*
X73302640Y-71050223D02*
X73350259Y-71097843D01*
X73350259Y-71097843D02*
X73445497Y-71145462D01*
X73445497Y-71145462D02*
X73635973Y-71145462D01*
X73635973Y-71145462D02*
X73731211Y-71097843D01*
X73731211Y-71097843D02*
X73778830Y-71050223D01*
X73778830Y-71050223D02*
X73826449Y-70954985D01*
X73826449Y-70954985D02*
X73826449Y-70716890D01*
X73826449Y-70716890D02*
X73778830Y-70621652D01*
X73778830Y-70621652D02*
X73731211Y-70574033D01*
X73731211Y-70574033D02*
X73635973Y-70526414D01*
X73635973Y-70526414D02*
X73445497Y-70526414D01*
X73445497Y-70526414D02*
X73350259Y-70574033D01*
X73350259Y-70574033D02*
X73302640Y-70621652D01*
X73302640Y-70621652D02*
X73255021Y-70716890D01*
X90209783Y-52047843D02*
X90352640Y-52095462D01*
X90352640Y-52095462D02*
X90590735Y-52095462D01*
X90590735Y-52095462D02*
X90685973Y-52047843D01*
X90685973Y-52047843D02*
X90733592Y-52000223D01*
X90733592Y-52000223D02*
X90781211Y-51904985D01*
X90781211Y-51904985D02*
X90781211Y-51809747D01*
X90781211Y-51809747D02*
X90733592Y-51714509D01*
X90733592Y-51714509D02*
X90685973Y-51666890D01*
X90685973Y-51666890D02*
X90590735Y-51619271D01*
X90590735Y-51619271D02*
X90400259Y-51571652D01*
X90400259Y-51571652D02*
X90305021Y-51524033D01*
X90305021Y-51524033D02*
X90257402Y-51476414D01*
X90257402Y-51476414D02*
X90209783Y-51381176D01*
X90209783Y-51381176D02*
X90209783Y-51285938D01*
X90209783Y-51285938D02*
X90257402Y-51190700D01*
X90257402Y-51190700D02*
X90305021Y-51143081D01*
X90305021Y-51143081D02*
X90400259Y-51095462D01*
X90400259Y-51095462D02*
X90638354Y-51095462D01*
X90638354Y-51095462D02*
X90781211Y-51143081D01*
X91114545Y-51095462D02*
X91352640Y-52095462D01*
X91352640Y-52095462D02*
X91543116Y-51381176D01*
X91543116Y-51381176D02*
X91733592Y-52095462D01*
X91733592Y-52095462D02*
X91971688Y-51095462D01*
X92257402Y-51095462D02*
X92876449Y-51095462D01*
X92876449Y-51095462D02*
X92543116Y-51476414D01*
X92543116Y-51476414D02*
X92685973Y-51476414D01*
X92685973Y-51476414D02*
X92781211Y-51524033D01*
X92781211Y-51524033D02*
X92828830Y-51571652D01*
X92828830Y-51571652D02*
X92876449Y-51666890D01*
X92876449Y-51666890D02*
X92876449Y-51904985D01*
X92876449Y-51904985D02*
X92828830Y-52000223D01*
X92828830Y-52000223D02*
X92781211Y-52047843D01*
X92781211Y-52047843D02*
X92685973Y-52095462D01*
X92685973Y-52095462D02*
X92400259Y-52095462D01*
X92400259Y-52095462D02*
X92305021Y-52047843D01*
X92305021Y-52047843D02*
X92257402Y-52000223D01*
X109259783Y-52047843D02*
X109402640Y-52095462D01*
X109402640Y-52095462D02*
X109640735Y-52095462D01*
X109640735Y-52095462D02*
X109735973Y-52047843D01*
X109735973Y-52047843D02*
X109783592Y-52000223D01*
X109783592Y-52000223D02*
X109831211Y-51904985D01*
X109831211Y-51904985D02*
X109831211Y-51809747D01*
X109831211Y-51809747D02*
X109783592Y-51714509D01*
X109783592Y-51714509D02*
X109735973Y-51666890D01*
X109735973Y-51666890D02*
X109640735Y-51619271D01*
X109640735Y-51619271D02*
X109450259Y-51571652D01*
X109450259Y-51571652D02*
X109355021Y-51524033D01*
X109355021Y-51524033D02*
X109307402Y-51476414D01*
X109307402Y-51476414D02*
X109259783Y-51381176D01*
X109259783Y-51381176D02*
X109259783Y-51285938D01*
X109259783Y-51285938D02*
X109307402Y-51190700D01*
X109307402Y-51190700D02*
X109355021Y-51143081D01*
X109355021Y-51143081D02*
X109450259Y-51095462D01*
X109450259Y-51095462D02*
X109688354Y-51095462D01*
X109688354Y-51095462D02*
X109831211Y-51143081D01*
X110164545Y-51095462D02*
X110402640Y-52095462D01*
X110402640Y-52095462D02*
X110593116Y-51381176D01*
X110593116Y-51381176D02*
X110783592Y-52095462D01*
X110783592Y-52095462D02*
X111021688Y-51095462D01*
X111831211Y-51428795D02*
X111831211Y-52095462D01*
X111593116Y-51047843D02*
X111355021Y-51762128D01*
X111355021Y-51762128D02*
X111974068Y-51762128D01*
X89733592Y-90147843D02*
X89876449Y-90195462D01*
X89876449Y-90195462D02*
X90114544Y-90195462D01*
X90114544Y-90195462D02*
X90209782Y-90147843D01*
X90209782Y-90147843D02*
X90257401Y-90100223D01*
X90257401Y-90100223D02*
X90305020Y-90004985D01*
X90305020Y-90004985D02*
X90305020Y-89909747D01*
X90305020Y-89909747D02*
X90257401Y-89814509D01*
X90257401Y-89814509D02*
X90209782Y-89766890D01*
X90209782Y-89766890D02*
X90114544Y-89719271D01*
X90114544Y-89719271D02*
X89924068Y-89671652D01*
X89924068Y-89671652D02*
X89828830Y-89624033D01*
X89828830Y-89624033D02*
X89781211Y-89576414D01*
X89781211Y-89576414D02*
X89733592Y-89481176D01*
X89733592Y-89481176D02*
X89733592Y-89385938D01*
X89733592Y-89385938D02*
X89781211Y-89290700D01*
X89781211Y-89290700D02*
X89828830Y-89243081D01*
X89828830Y-89243081D02*
X89924068Y-89195462D01*
X89924068Y-89195462D02*
X90162163Y-89195462D01*
X90162163Y-89195462D02*
X90305020Y-89243081D01*
X90638354Y-89195462D02*
X90876449Y-90195462D01*
X90876449Y-90195462D02*
X91066925Y-89481176D01*
X91066925Y-89481176D02*
X91257401Y-90195462D01*
X91257401Y-90195462D02*
X91495497Y-89195462D01*
X92400258Y-90195462D02*
X91828830Y-90195462D01*
X92114544Y-90195462D02*
X92114544Y-89195462D01*
X92114544Y-89195462D02*
X92019306Y-89338319D01*
X92019306Y-89338319D02*
X91924068Y-89433557D01*
X91924068Y-89433557D02*
X91828830Y-89481176D01*
X92781211Y-89290700D02*
X92828830Y-89243081D01*
X92828830Y-89243081D02*
X92924068Y-89195462D01*
X92924068Y-89195462D02*
X93162163Y-89195462D01*
X93162163Y-89195462D02*
X93257401Y-89243081D01*
X93257401Y-89243081D02*
X93305020Y-89290700D01*
X93305020Y-89290700D02*
X93352639Y-89385938D01*
X93352639Y-89385938D02*
X93352639Y-89481176D01*
X93352639Y-89481176D02*
X93305020Y-89624033D01*
X93305020Y-89624033D02*
X92733592Y-90195462D01*
X92733592Y-90195462D02*
X93352639Y-90195462D01*
X89733592Y-109197843D02*
X89876449Y-109245462D01*
X89876449Y-109245462D02*
X90114544Y-109245462D01*
X90114544Y-109245462D02*
X90209782Y-109197843D01*
X90209782Y-109197843D02*
X90257401Y-109150223D01*
X90257401Y-109150223D02*
X90305020Y-109054985D01*
X90305020Y-109054985D02*
X90305020Y-108959747D01*
X90305020Y-108959747D02*
X90257401Y-108864509D01*
X90257401Y-108864509D02*
X90209782Y-108816890D01*
X90209782Y-108816890D02*
X90114544Y-108769271D01*
X90114544Y-108769271D02*
X89924068Y-108721652D01*
X89924068Y-108721652D02*
X89828830Y-108674033D01*
X89828830Y-108674033D02*
X89781211Y-108626414D01*
X89781211Y-108626414D02*
X89733592Y-108531176D01*
X89733592Y-108531176D02*
X89733592Y-108435938D01*
X89733592Y-108435938D02*
X89781211Y-108340700D01*
X89781211Y-108340700D02*
X89828830Y-108293081D01*
X89828830Y-108293081D02*
X89924068Y-108245462D01*
X89924068Y-108245462D02*
X90162163Y-108245462D01*
X90162163Y-108245462D02*
X90305020Y-108293081D01*
X90638354Y-108245462D02*
X90876449Y-109245462D01*
X90876449Y-109245462D02*
X91066925Y-108531176D01*
X91066925Y-108531176D02*
X91257401Y-109245462D01*
X91257401Y-109245462D02*
X91495497Y-108245462D01*
X92400258Y-109245462D02*
X91828830Y-109245462D01*
X92114544Y-109245462D02*
X92114544Y-108245462D01*
X92114544Y-108245462D02*
X92019306Y-108388319D01*
X92019306Y-108388319D02*
X91924068Y-108483557D01*
X91924068Y-108483557D02*
X91828830Y-108531176D01*
X93305020Y-108245462D02*
X92828830Y-108245462D01*
X92828830Y-108245462D02*
X92781211Y-108721652D01*
X92781211Y-108721652D02*
X92828830Y-108674033D01*
X92828830Y-108674033D02*
X92924068Y-108626414D01*
X92924068Y-108626414D02*
X93162163Y-108626414D01*
X93162163Y-108626414D02*
X93257401Y-108674033D01*
X93257401Y-108674033D02*
X93305020Y-108721652D01*
X93305020Y-108721652D02*
X93352639Y-108816890D01*
X93352639Y-108816890D02*
X93352639Y-109054985D01*
X93352639Y-109054985D02*
X93305020Y-109150223D01*
X93305020Y-109150223D02*
X93257401Y-109197843D01*
X93257401Y-109197843D02*
X93162163Y-109245462D01*
X93162163Y-109245462D02*
X92924068Y-109245462D01*
X92924068Y-109245462D02*
X92828830Y-109197843D01*
X92828830Y-109197843D02*
X92781211Y-109150223D01*
X90209783Y-71097843D02*
X90352640Y-71145462D01*
X90352640Y-71145462D02*
X90590735Y-71145462D01*
X90590735Y-71145462D02*
X90685973Y-71097843D01*
X90685973Y-71097843D02*
X90733592Y-71050223D01*
X90733592Y-71050223D02*
X90781211Y-70954985D01*
X90781211Y-70954985D02*
X90781211Y-70859747D01*
X90781211Y-70859747D02*
X90733592Y-70764509D01*
X90733592Y-70764509D02*
X90685973Y-70716890D01*
X90685973Y-70716890D02*
X90590735Y-70669271D01*
X90590735Y-70669271D02*
X90400259Y-70621652D01*
X90400259Y-70621652D02*
X90305021Y-70574033D01*
X90305021Y-70574033D02*
X90257402Y-70526414D01*
X90257402Y-70526414D02*
X90209783Y-70431176D01*
X90209783Y-70431176D02*
X90209783Y-70335938D01*
X90209783Y-70335938D02*
X90257402Y-70240700D01*
X90257402Y-70240700D02*
X90305021Y-70193081D01*
X90305021Y-70193081D02*
X90400259Y-70145462D01*
X90400259Y-70145462D02*
X90638354Y-70145462D01*
X90638354Y-70145462D02*
X90781211Y-70193081D01*
X91114545Y-70145462D02*
X91352640Y-71145462D01*
X91352640Y-71145462D02*
X91543116Y-70431176D01*
X91543116Y-70431176D02*
X91733592Y-71145462D01*
X91733592Y-71145462D02*
X91971688Y-70145462D01*
X92257402Y-70145462D02*
X92924068Y-70145462D01*
X92924068Y-70145462D02*
X92495497Y-71145462D01*
X52109783Y-52047843D02*
X52252640Y-52095462D01*
X52252640Y-52095462D02*
X52490735Y-52095462D01*
X52490735Y-52095462D02*
X52585973Y-52047843D01*
X52585973Y-52047843D02*
X52633592Y-52000223D01*
X52633592Y-52000223D02*
X52681211Y-51904985D01*
X52681211Y-51904985D02*
X52681211Y-51809747D01*
X52681211Y-51809747D02*
X52633592Y-51714509D01*
X52633592Y-51714509D02*
X52585973Y-51666890D01*
X52585973Y-51666890D02*
X52490735Y-51619271D01*
X52490735Y-51619271D02*
X52300259Y-51571652D01*
X52300259Y-51571652D02*
X52205021Y-51524033D01*
X52205021Y-51524033D02*
X52157402Y-51476414D01*
X52157402Y-51476414D02*
X52109783Y-51381176D01*
X52109783Y-51381176D02*
X52109783Y-51285938D01*
X52109783Y-51285938D02*
X52157402Y-51190700D01*
X52157402Y-51190700D02*
X52205021Y-51143081D01*
X52205021Y-51143081D02*
X52300259Y-51095462D01*
X52300259Y-51095462D02*
X52538354Y-51095462D01*
X52538354Y-51095462D02*
X52681211Y-51143081D01*
X53014545Y-51095462D02*
X53252640Y-52095462D01*
X53252640Y-52095462D02*
X53443116Y-51381176D01*
X53443116Y-51381176D02*
X53633592Y-52095462D01*
X53633592Y-52095462D02*
X53871688Y-51095462D01*
X54776449Y-52095462D02*
X54205021Y-52095462D01*
X54490735Y-52095462D02*
X54490735Y-51095462D01*
X54490735Y-51095462D02*
X54395497Y-51238319D01*
X54395497Y-51238319D02*
X54300259Y-51333557D01*
X54300259Y-51333557D02*
X54205021Y-51381176D01*
D12*
%TO.C,SW14*%
X65508116Y-109679643D02*
X79478116Y-109679643D01*
X65508116Y-123649643D02*
X65508116Y-109679643D01*
X79478116Y-109679643D02*
X79478116Y-123649643D01*
X79478116Y-123649643D02*
X65508116Y-123649643D01*
%TO.C,SW18*%
X55983116Y-128729643D02*
X69953116Y-128729643D01*
X55983116Y-142699643D02*
X55983116Y-128729643D01*
X69953116Y-128729643D02*
X69953116Y-142699643D01*
X69953116Y-142699643D02*
X55983116Y-142699643D01*
%TO.C,SW19*%
X84558116Y-128729643D02*
X98528116Y-128729643D01*
X84558116Y-142699643D02*
X84558116Y-128729643D01*
X98528116Y-128729643D02*
X98528116Y-142699643D01*
X98528116Y-142699643D02*
X84558116Y-142699643D01*
%TO.C,SW10*%
X46458116Y-90629643D02*
X60428116Y-90629643D01*
X46458116Y-104599643D02*
X46458116Y-90629643D01*
X60428116Y-90629643D02*
X60428116Y-104599643D01*
X60428116Y-104599643D02*
X46458116Y-104599643D01*
%TO.C,SW17*%
X103608116Y-119204643D02*
X117578116Y-119204643D01*
X103608116Y-133174643D02*
X103608116Y-119204643D01*
X117578116Y-119204643D02*
X117578116Y-133174643D01*
X117578116Y-133174643D02*
X103608116Y-133174643D01*
%TO.C,SW13*%
X46458116Y-109679643D02*
X60428116Y-109679643D01*
X46458116Y-123649643D02*
X46458116Y-109679643D01*
X60428116Y-109679643D02*
X60428116Y-123649643D01*
X60428116Y-123649643D02*
X46458116Y-123649643D01*
%TO.C,SW11*%
X65508116Y-90629643D02*
X79478116Y-90629643D01*
X65508116Y-104599643D02*
X65508116Y-90629643D01*
X79478116Y-90629643D02*
X79478116Y-104599643D01*
X79478116Y-104599643D02*
X65508116Y-104599643D01*
%TO.C,SW5*%
X46458116Y-71579643D02*
X60428116Y-71579643D01*
X46458116Y-85549643D02*
X46458116Y-71579643D01*
X60428116Y-71579643D02*
X60428116Y-85549643D01*
X60428116Y-85549643D02*
X46458116Y-85549643D01*
%TO.C,SW2*%
X65508116Y-52529643D02*
X79478116Y-52529643D01*
X65508116Y-66499643D02*
X65508116Y-52529643D01*
X79478116Y-52529643D02*
X79478116Y-66499643D01*
X79478116Y-66499643D02*
X65508116Y-66499643D01*
%TO.C,SW9*%
X103608116Y-81104643D02*
X117578116Y-81104643D01*
X103608116Y-95074643D02*
X103608116Y-81104643D01*
X117578116Y-81104643D02*
X117578116Y-95074643D01*
X117578116Y-95074643D02*
X103608116Y-95074643D01*
%TO.C,U1*%
D11*
X43937116Y-24668643D02*
X119337116Y-24668643D01*
X119337116Y-44068643D01*
X43937116Y-44068643D01*
X43937116Y-24668643D01*
D12*
%TO.C,SW6*%
X65508116Y-71579643D02*
X79478116Y-71579643D01*
X65508116Y-85549643D02*
X65508116Y-71579643D01*
X79478116Y-71579643D02*
X79478116Y-85549643D01*
X79478116Y-85549643D02*
X65508116Y-85549643D01*
%TO.C,SW3*%
X84558116Y-52529643D02*
X98528116Y-52529643D01*
X84558116Y-66499643D02*
X84558116Y-52529643D01*
X98528116Y-52529643D02*
X98528116Y-66499643D01*
X98528116Y-66499643D02*
X84558116Y-66499643D01*
%TO.C,SW4*%
X103608116Y-52529643D02*
X117578116Y-52529643D01*
X103608116Y-66499643D02*
X103608116Y-52529643D01*
X117578116Y-52529643D02*
X117578116Y-66499643D01*
X117578116Y-66499643D02*
X103608116Y-66499643D01*
%TO.C,SW12*%
X84558116Y-90629643D02*
X98528116Y-90629643D01*
X84558116Y-104599643D02*
X84558116Y-90629643D01*
X98528116Y-90629643D02*
X98528116Y-104599643D01*
X98528116Y-104599643D02*
X84558116Y-104599643D01*
%TO.C,SW15*%
X84558116Y-109679643D02*
X98528116Y-109679643D01*
X84558116Y-123649643D02*
X84558116Y-109679643D01*
X98528116Y-109679643D02*
X98528116Y-123649643D01*
X98528116Y-123649643D02*
X84558116Y-123649643D01*
%TO.C,SW7*%
X84558116Y-71579643D02*
X98528116Y-71579643D01*
X84558116Y-85549643D02*
X84558116Y-71579643D01*
X98528116Y-71579643D02*
X98528116Y-85549643D01*
X98528116Y-85549643D02*
X84558116Y-85549643D01*
%TO.C,SW1*%
X46458116Y-52529643D02*
X60428116Y-52529643D01*
X46458116Y-66499643D02*
X46458116Y-52529643D01*
X60428116Y-52529643D02*
X60428116Y-66499643D01*
X60428116Y-66499643D02*
X46458116Y-66499643D01*
%TD*%
M02*
