%TF.GenerationSoftware,KiCad,Pcbnew,9.0.7*%
%TF.CreationDate,2026-03-24T08:54:29-04:00*%
%TF.ProjectId,CalculatorKeypadv4,43616c63-756c-4617-946f-724b65797061,rev?*%
%TF.SameCoordinates,Original*%
%TF.FileFunction,Soldermask,Top*%
%TF.FilePolarity,Negative*%
%FSLAX46Y46*%
G04 Gerber Fmt 4.6, Leading zero omitted, Abs format (unit mm)*
G04 Created by KiCad (PCBNEW 9.0.7) date 2026-03-24 08:54:29*
%MOMM*%
%LPD*%
G01*
G04 APERTURE LIST*
G04 Aperture macros list*
%AMRoundRect*
0 Rectangle with rounded corners*
0 $1 Rounding radius*
0 $2 $3 $4 $5 $6 $7 $8 $9 X,Y pos of 4 corners*
0 Add a 4 corners polygon primitive as box body*
4,1,4,$2,$3,$4,$5,$6,$7,$8,$9,$2,$3,0*
0 Add four circle primitives for the rounded corners*
1,1,$1+$1,$2,$3*
1,1,$1+$1,$4,$5*
1,1,$1+$1,$6,$7*
1,1,$1+$1,$8,$9*
0 Add four rect primitives between the rounded corners*
20,1,$1+$1,$2,$3,$4,$5,0*
20,1,$1+$1,$4,$5,$6,$7,0*
20,1,$1+$1,$6,$7,$8,$9,0*
20,1,$1+$1,$8,$9,$2,$3,0*%
G04 Aperture macros list end*
%ADD10RoundRect,0.250000X-0.350000X-0.625000X0.350000X-0.625000X0.350000X0.625000X-0.350000X0.625000X0*%
%ADD11O,1.200000X1.750000*%
%ADD12RoundRect,0.250000X0.350000X0.625000X-0.350000X0.625000X-0.350000X-0.625000X0.350000X-0.625000X0*%
%ADD13C,4.000000*%
%ADD14C,2.200000*%
%ADD15R,1.800000X1.800000*%
%ADD16C,1.800000*%
%ADD17RoundRect,0.102000X0.754000X-0.754000X0.754000X0.754000X-0.754000X0.754000X-0.754000X-0.754000X0*%
%ADD18C,1.712000*%
%ADD19C,1.200000*%
%ADD20R,1.200000X1.200000*%
G04 APERTURE END LIST*
D10*
%TO.C,J1*%
X72500000Y-27550000D03*
D11*
X74500000Y-27550000D03*
%TD*%
D12*
%TO.C,J2*%
X48500000Y-65550000D03*
D11*
X46500000Y-65550000D03*
%TD*%
D13*
%TO.C,SW14*%
X72493116Y-116664643D03*
D14*
X75033116Y-111584643D03*
X68683116Y-114124643D03*
%TD*%
D13*
%TO.C,SW18*%
X62968116Y-135714643D03*
D14*
X65508116Y-130634643D03*
X59158116Y-133174643D03*
%TD*%
D13*
%TO.C,SW19*%
X91543116Y-135714643D03*
D14*
X94083116Y-130634643D03*
X87733116Y-133174643D03*
%TD*%
D13*
%TO.C,SW10*%
X53443116Y-97614643D03*
D14*
X55983116Y-92534643D03*
X49633116Y-95074643D03*
%TD*%
D13*
%TO.C,SW17*%
X110593116Y-126189643D03*
D14*
X113133116Y-121109643D03*
X106783116Y-123649643D03*
%TD*%
D13*
%TO.C,SW13*%
X53443116Y-116664643D03*
D14*
X55983116Y-111584643D03*
X49633116Y-114124643D03*
%TD*%
D13*
%TO.C,SW11*%
X72493116Y-97614643D03*
D14*
X75033116Y-92534643D03*
X68683116Y-95074643D03*
%TD*%
D13*
%TO.C,SW5*%
X53443116Y-78564643D03*
D14*
X55983116Y-73484643D03*
X49633116Y-76024643D03*
%TD*%
D13*
%TO.C,SW2*%
X72493116Y-59514643D03*
D14*
X75033116Y-54434643D03*
X68683116Y-56974643D03*
%TD*%
D13*
%TO.C,SW9*%
X110593116Y-88089643D03*
D14*
X113133116Y-83009643D03*
X106783116Y-85549643D03*
%TD*%
D15*
%TO.C,U1*%
X114137116Y-41988643D03*
D16*
X114137116Y-39448643D03*
X114137116Y-36908643D03*
X114137116Y-34368643D03*
X114137116Y-31828643D03*
X114137116Y-29288643D03*
X114137116Y-26748643D03*
%TD*%
D13*
%TO.C,SW6*%
X72493116Y-78564643D03*
D14*
X75033116Y-73484643D03*
X68683116Y-76024643D03*
%TD*%
D13*
%TO.C,SW3*%
X91543116Y-59514643D03*
D14*
X94083116Y-54434643D03*
X87733116Y-56974643D03*
%TD*%
D13*
%TO.C,SW4*%
X110593116Y-59514643D03*
D14*
X113133116Y-54434643D03*
X106783116Y-56974643D03*
%TD*%
D13*
%TO.C,SW12*%
X91543116Y-97614643D03*
D14*
X94083116Y-92534643D03*
X87733116Y-95074643D03*
%TD*%
D13*
%TO.C,SW15*%
X91543116Y-116664643D03*
D14*
X94083116Y-111584643D03*
X87733116Y-114124643D03*
%TD*%
D13*
%TO.C,SW7*%
X91543116Y-78564643D03*
D14*
X94083116Y-73484643D03*
X87733116Y-76024643D03*
%TD*%
D17*
%TO.C,U2*%
X98552000Y-48514000D03*
D18*
X96012000Y-48514000D03*
X93472000Y-48514000D03*
X90932000Y-48514000D03*
X88392000Y-48514000D03*
X85852000Y-48514000D03*
X83312000Y-48514000D03*
X80772000Y-48514000D03*
X78232000Y-48514000D03*
X75692000Y-48514000D03*
X73152000Y-48514000D03*
X70612000Y-48514000D03*
X68072000Y-48514000D03*
X65532000Y-48514000D03*
X62992000Y-48514000D03*
X60452000Y-48514000D03*
X57912000Y-48514000D03*
X55372000Y-48514000D03*
X52832000Y-48514000D03*
X50292000Y-48514000D03*
X47752000Y-48514000D03*
X45212000Y-48514000D03*
X98552000Y-23114000D03*
X96012000Y-23114000D03*
X93472000Y-23114000D03*
X90932000Y-23114000D03*
X88392000Y-23114000D03*
X85852000Y-23114000D03*
X83312000Y-23114000D03*
X80772000Y-23114000D03*
X78232000Y-23114000D03*
X75692000Y-23114000D03*
X73152000Y-23114000D03*
X70612000Y-23114000D03*
X68072000Y-23114000D03*
X65532000Y-23114000D03*
X62992000Y-23114000D03*
X60452000Y-23114000D03*
X57912000Y-23114000D03*
X55372000Y-23114000D03*
X52832000Y-23114000D03*
X50292000Y-23114000D03*
X47752000Y-23114000D03*
X45212000Y-23114000D03*
%TD*%
D19*
%TO.C,SW8*%
X121343362Y-40468395D03*
D20*
X121343362Y-37928395D03*
D19*
X121343362Y-43008395D03*
%TD*%
%TO.C,SW16*%
X121343362Y-30308395D03*
D20*
X121343362Y-27768395D03*
D19*
X121343362Y-32848395D03*
%TD*%
D13*
%TO.C,SW1*%
X53443116Y-59514643D03*
D14*
X55983116Y-54434643D03*
X49633116Y-56974643D03*
%TD*%
M02*
