M48
; DRILL file {KiCad 9.0.7} date 2026-03-24T08:54:33-0400
; FORMAT={-:-/ absolute / inch / decimal}
; #@! TF.CreationDate,2026-03-24T08:54:33-04:00
; #@! TF.GenerationSoftware,Kicad,Pcbnew,9.0.7
; #@! TF.FileFunction,Plated,1,2,PTH
FMAT,2
INCH
; #@! TA.AperFunction,Plated,PTH,ViaDrill
T1C0.0118
; #@! TA.AperFunction,Plated,PTH,ComponentDrill
T2C0.0236
; #@! TA.AperFunction,Plated,PTH,ComponentDrill
T3C0.0295
; #@! TA.AperFunction,Plated,PTH,ComponentDrill
T4C0.0354
; #@! TA.AperFunction,Plated,PTH,ComponentDrill
T5C0.0394
; #@! TA.AperFunction,Plated,PTH,ComponentDrill
T6C0.0591
%
G90
G05
T1
X2.1654Y-2.0276
T2
X4.7773Y-1.0932
X4.7773Y-1.1932
X4.7773Y-1.2932
X4.7773Y-1.4932
X4.7773Y-1.5932
X4.7773Y-1.6932
T3
X1.8307Y-2.5807
X1.9094Y-2.5807
X2.8543Y-1.0846
X2.9331Y-1.0846
T4
X4.4936Y-1.0531
X4.4936Y-1.1531
X4.4936Y-1.2531
X4.4936Y-1.3531
X4.4936Y-1.4531
X4.4936Y-1.5531
X4.4936Y-1.6531
T5
X1.78Y-0.91
X1.78Y-1.91
X1.88Y-0.91
X1.88Y-1.91
X1.98Y-0.91
X1.98Y-1.91
X2.08Y-0.91
X2.08Y-1.91
X2.18Y-0.91
X2.18Y-1.91
X2.28Y-0.91
X2.28Y-1.91
X2.38Y-0.91
X2.38Y-1.91
X2.48Y-0.91
X2.48Y-1.91
X2.58Y-0.91
X2.58Y-1.91
X2.68Y-0.91
X2.68Y-1.91
X2.78Y-0.91
X2.78Y-1.91
X2.88Y-0.91
X2.88Y-1.91
X2.98Y-0.91
X2.98Y-1.91
X3.08Y-0.91
X3.08Y-1.91
X3.18Y-0.91
X3.18Y-1.91
X3.28Y-0.91
X3.28Y-1.91
X3.38Y-0.91
X3.38Y-1.91
X3.48Y-0.91
X3.48Y-1.91
X3.58Y-0.91
X3.58Y-1.91
X3.68Y-0.91
X3.68Y-1.91
X3.78Y-0.91
X3.78Y-1.91
X3.88Y-0.91
X3.88Y-1.91
T6
X1.9541Y-2.2431
X1.9541Y-2.9931
X1.9541Y-3.7431
X1.9541Y-4.4931
X2.2041Y-2.1431
X2.2041Y-2.8931
X2.2041Y-3.6431
X2.2041Y-4.3931
X2.3291Y-5.2431
X2.5791Y-5.1431
X2.7041Y-2.2431
X2.7041Y-2.9931
X2.7041Y-3.7431
X2.7041Y-4.4931
X2.9541Y-2.1431
X2.9541Y-2.8931
X2.9541Y-3.6431
X2.9541Y-4.3931
X3.4541Y-2.2431
X3.4541Y-2.9931
X3.4541Y-3.7431
X3.4541Y-4.4931
X3.4541Y-5.2431
X3.7041Y-2.1431
X3.7041Y-2.8931
X3.7041Y-3.6431
X3.7041Y-4.3931
X3.7041Y-5.1431
X4.2041Y-2.2431
X4.2041Y-3.3681
X4.2041Y-4.8681
X4.4541Y-2.1431
X4.4541Y-3.2681
X4.4541Y-4.7681
M30
