%TF.GenerationSoftware,KiCad,Pcbnew,9.0.7*%
%TF.CreationDate,2026-03-24T08:54:29-04:00*%
%TF.ProjectId,CalculatorKeypadv4,43616c63-756c-4617-946f-724b65797061,rev?*%
%TF.SameCoordinates,Original*%
%TF.FileFunction,Copper,L1,Top*%
%TF.FilePolarity,Positive*%
%FSLAX46Y46*%
G04 Gerber Fmt 4.6, Leading zero omitted, Abs format (unit mm)*
G04 Created by KiCad (PCBNEW 9.0.7) date 2026-03-24 08:54:29*
%MOMM*%
%LPD*%
G01*
G04 APERTURE LIST*
G04 Aperture macros list*
%AMRoundRect*
0 Rectangle with rounded corners*
0 $1 Rounding radius*
0 $2 $3 $4 $5 $6 $7 $8 $9 X,Y pos of 4 corners*
0 Add a 4 corners polygon primitive as box body*
4,1,4,$2,$3,$4,$5,$6,$7,$8,$9,$2,$3,0*
0 Add four circle primitives for the rounded corners*
1,1,$1+$1,$2,$3*
1,1,$1+$1,$4,$5*
1,1,$1+$1,$6,$7*
1,1,$1+$1,$8,$9*
0 Add four rect primitives between the rounded corners*
20,1,$1+$1,$2,$3,$4,$5,0*
20,1,$1+$1,$4,$5,$6,$7,0*
20,1,$1+$1,$6,$7,$8,$9,0*
20,1,$1+$1,$8,$9,$2,$3,0*%
G04 Aperture macros list end*
%TA.AperFunction,ComponentPad*%
%ADD10RoundRect,0.250000X-0.350000X-0.625000X0.350000X-0.625000X0.350000X0.625000X-0.350000X0.625000X0*%
%TD*%
%TA.AperFunction,ComponentPad*%
%ADD11O,1.200000X1.750000*%
%TD*%
%TA.AperFunction,ComponentPad*%
%ADD12RoundRect,0.250000X0.350000X0.625000X-0.350000X0.625000X-0.350000X-0.625000X0.350000X-0.625000X0*%
%TD*%
%TA.AperFunction,ComponentPad*%
%ADD13C,2.200000*%
%TD*%
%TA.AperFunction,ComponentPad*%
%ADD14R,1.800000X1.800000*%
%TD*%
%TA.AperFunction,ComponentPad*%
%ADD15C,1.800000*%
%TD*%
%TA.AperFunction,ComponentPad*%
%ADD16R,1.508000X1.508000*%
%TD*%
%TA.AperFunction,ComponentPad*%
%ADD17C,1.508000*%
%TD*%
%TA.AperFunction,ComponentPad*%
%ADD18C,1.200000*%
%TD*%
%TA.AperFunction,ComponentPad*%
%ADD19R,1.200000X1.200000*%
%TD*%
%TA.AperFunction,ViaPad*%
%ADD20C,0.600000*%
%TD*%
%TA.AperFunction,Conductor*%
%ADD21C,0.600000*%
%TD*%
%TA.AperFunction,Conductor*%
%ADD22C,0.200000*%
%TD*%
G04 APERTURE END LIST*
D10*
%TO.P,J1,1,Pin_1*%
%TO.N,/bat_pos*%
X72500000Y-27550000D03*
D11*
%TO.P,J1,2,Pin_2*%
%TO.N,/bat_neg*%
X74500000Y-27550000D03*
%TD*%
D12*
%TO.P,J2,1,Pin_1*%
%TO.N,/bat_pos*%
X48500000Y-65550000D03*
D11*
%TO.P,J2,2,Pin_2*%
%TO.N,/bat_neg*%
X46500000Y-65550000D03*
%TD*%
D13*
%TO.P,SW14,1*%
%TO.N,GND*%
X75033116Y-111584643D03*
%TO.P,SW14,2*%
%TO.N,/KP2*%
X68683116Y-114124643D03*
%TD*%
%TO.P,SW18,1*%
%TO.N,GND*%
X65508116Y-130634643D03*
%TO.P,SW18,2*%
%TO.N,/KP0*%
X59158116Y-133174643D03*
%TD*%
%TO.P,SW19,1*%
%TO.N,GND*%
X94083116Y-130634643D03*
%TO.P,SW19,2*%
%TO.N,/KPdot*%
X87733116Y-133174643D03*
%TD*%
%TO.P,SW10,1*%
%TO.N,GND*%
X55983116Y-92534643D03*
%TO.P,SW10,2*%
%TO.N,/KP4*%
X49633116Y-95074643D03*
%TD*%
%TO.P,SW17,1*%
%TO.N,GND*%
X113133116Y-121109643D03*
%TO.P,SW17,2*%
%TO.N,/KPenter*%
X106783116Y-123649643D03*
%TD*%
%TO.P,SW13,1*%
%TO.N,GND*%
X55983116Y-111584643D03*
%TO.P,SW13,2*%
%TO.N,/KP1*%
X49633116Y-114124643D03*
%TD*%
%TO.P,SW11,1*%
%TO.N,GND*%
X75033116Y-92534643D03*
%TO.P,SW11,2*%
%TO.N,/KP5*%
X68683116Y-95074643D03*
%TD*%
%TO.P,SW5,1*%
%TO.N,GND*%
X55983116Y-73484643D03*
%TO.P,SW5,2*%
%TO.N,/KP7*%
X49633116Y-76024643D03*
%TD*%
%TO.P,SW2,1*%
%TO.N,GND*%
X75033116Y-54434643D03*
%TO.P,SW2,2*%
%TO.N,/KPslash*%
X68683116Y-56974643D03*
%TD*%
%TO.P,SW9,1*%
%TO.N,GND*%
X113133116Y-83009643D03*
%TO.P,SW9,2*%
%TO.N,/KPplus*%
X106783116Y-85549643D03*
%TD*%
D14*
%TO.P,U1,1,VSS*%
%TO.N,GND*%
X114137116Y-41988643D03*
D15*
%TO.P,U1,2,VDD*%
%TO.N,+3V3*%
X114137116Y-39448643D03*
%TO.P,U1,3,SCL*%
%TO.N,/SCL*%
X114137116Y-36908643D03*
%TO.P,U1,4,SDA*%
%TO.N,/SDA*%
X114137116Y-34368643D03*
%TO.P,U1,5,RST*%
%TO.N,/EN*%
X114137116Y-31828643D03*
%TO.P,U1,6,DC*%
%TO.N,/DC*%
X114137116Y-29288643D03*
%TO.P,U1,7,CS*%
%TO.N,/CS*%
X114137116Y-26748643D03*
%TD*%
D13*
%TO.P,SW6,1*%
%TO.N,GND*%
X75033116Y-73484643D03*
%TO.P,SW6,2*%
%TO.N,/KP8*%
X68683116Y-76024643D03*
%TD*%
%TO.P,SW3,1*%
%TO.N,GND*%
X94083116Y-54434643D03*
%TO.P,SW3,2*%
%TO.N,/KPaster*%
X87733116Y-56974643D03*
%TD*%
%TO.P,SW4,1*%
%TO.N,GND*%
X113133116Y-54434643D03*
%TO.P,SW4,2*%
%TO.N,/KPminus*%
X106783116Y-56974643D03*
%TD*%
%TO.P,SW12,1*%
%TO.N,GND*%
X94083116Y-92534643D03*
%TO.P,SW12,2*%
%TO.N,/KP6*%
X87733116Y-95074643D03*
%TD*%
%TO.P,SW15,1*%
%TO.N,GND*%
X94083116Y-111584643D03*
%TO.P,SW15,2*%
%TO.N,/KP3*%
X87733116Y-114124643D03*
%TD*%
%TO.P,SW7,1*%
%TO.N,GND*%
X94083116Y-73484643D03*
%TO.P,SW7,2*%
%TO.N,/KP9*%
X87733116Y-76024643D03*
%TD*%
D16*
%TO.P,U2,J1_1,+3V3*%
%TO.N,+3V3*%
X98552000Y-48514000D03*
D17*
%TO.P,U2,J1_2,+3V3__1*%
%TO.N,unconnected-(U2-+3V3__1-PadJ1_2)*%
X96012000Y-48514000D03*
%TO.P,U2,J1_3,ESP_EN*%
%TO.N,/EN*%
X93472000Y-48514000D03*
%TO.P,U2,J1_4,GPIO4*%
%TO.N,/KPplus*%
X90932000Y-48514000D03*
%TO.P,U2,J1_5,GPIO5/PWR_SENS*%
%TO.N,unconnected-(U2-GPIO5{slash}PWR_SENS-PadJ1_5)*%
X88392000Y-48514000D03*
%TO.P,U2,J1_6,GPIO6/BAT_SENS*%
%TO.N,unconnected-(U2-GPIO6{slash}BAT_SENS-PadJ1_6)*%
X85852000Y-48514000D03*
%TO.P,U2,J1_7,GPIO7*%
%TO.N,/KPenter*%
X83312000Y-48514000D03*
%TO.P,U2,J1_8,GPIO15*%
%TO.N,/KPaster*%
X80772000Y-48514000D03*
%TO.P,U2,J1_9,GPIO16*%
%TO.N,/KP9*%
X78232000Y-48514000D03*
%TO.P,U2,J1_10,GPIO17/U1TXD*%
%TO.N,/KP6*%
X75692000Y-48514000D03*
%TO.P,U2,J1_11,GPIO18/U1RXD*%
%TO.N,/KP3*%
X73152000Y-48514000D03*
%TO.P,U2,J1_12,GPIO8*%
%TO.N,/KPdot*%
X70612000Y-48514000D03*
%TO.P,U2,J1_13,GPIO3*%
%TO.N,/KPslash*%
X68072000Y-48514000D03*
%TO.P,U2,J1_14,GPIO46*%
%TO.N,/CS*%
X65532000Y-48514000D03*
%TO.P,U2,J1_15,GPIO9*%
%TO.N,/DC*%
X62992000Y-48514000D03*
%TO.P,U2,J1_16,GPIO10/FSPICS0/SPI3_CS0*%
%TO.N,unconnected-(U2-GPIO10{slash}FSPICS0{slash}SPI3_CS0-PadJ1_16)*%
X60452000Y-48514000D03*
%TO.P,U2,J1_17,GPIO11/FSPID/SPI3_MOSI*%
%TO.N,/SDA*%
X57912000Y-48514000D03*
%TO.P,U2,J1_18,GPIO12/FSPICLK/SPI3_CLK*%
%TO.N,/SCL*%
X55372000Y-48514000D03*
%TO.P,U2,J1_19,GPIO13/FSPIQ/SPI3_MISO*%
%TO.N,unconnected-(U2-GPIO13{slash}FSPIQ{slash}SPI3_MISO-PadJ1_19)*%
X52832000Y-48514000D03*
%TO.P,U2,J1_20,GPIO14*%
%TO.N,/KPnumlock*%
X50292000Y-48514000D03*
%TO.P,U2,J1_21,+5V*%
%TO.N,unconnected-(U2-+5V-PadJ1_21)*%
X47752000Y-48514000D03*
%TO.P,U2,J1_22,GND*%
%TO.N,GND*%
X45212000Y-48514000D03*
%TO.P,U2,J3_1,GND__1*%
%TO.N,unconnected-(U2-GND__1-PadJ3_1)*%
X98552000Y-23114000D03*
%TO.P,U2,J3_2,U0TXD/GPIO43*%
%TO.N,unconnected-(U2-U0TXD{slash}GPIO43-PadJ3_2)*%
X96012000Y-23114000D03*
%TO.P,U2,J3_3,U0RXD/GPIO44*%
%TO.N,unconnected-(U2-U0RXD{slash}GPIO44-PadJ3_3)*%
X93472000Y-23114000D03*
%TO.P,U2,J3_4,GPIO1*%
%TO.N,/Mode_Sel*%
X90932000Y-23114000D03*
%TO.P,U2,J3_5,GPIO2*%
%TO.N,/KPminus*%
X88392000Y-23114000D03*
%TO.P,U2,J3_6,GPIO42*%
%TO.N,unconnected-(U2-GPIO42-PadJ3_6)*%
X85852000Y-23114000D03*
%TO.P,U2,J3_7,GPIO41*%
%TO.N,unconnected-(U2-GPIO41-PadJ3_7)*%
X83312000Y-23114000D03*
%TO.P,U2,J3_8,GPIO40*%
%TO.N,unconnected-(U2-GPIO40-PadJ3_8)*%
X80772000Y-23114000D03*
%TO.P,U2,J3_9,GPIO39*%
%TO.N,unconnected-(U2-GPIO39-PadJ3_9)*%
X78232000Y-23114000D03*
%TO.P,U2,J3_10,GPIO38/LED1*%
%TO.N,unconnected-(U2-GPIO38{slash}LED1-PadJ3_10)*%
X75692000Y-23114000D03*
%TO.P,U2,J3_11,GPIO37*%
%TO.N,unconnected-(U2-GPIO37-PadJ3_11)*%
X73152000Y-23114000D03*
%TO.P,U2,J3_12,GPIO36*%
%TO.N,/KP8*%
X70612000Y-23114000D03*
%TO.P,U2,J3_13,GPIO35*%
%TO.N,/KP5*%
X68072000Y-23114000D03*
%TO.P,U2,J3_14,GPIO0/BUT1*%
%TO.N,/KP2*%
X65532000Y-23114000D03*
%TO.P,U2,J3_15,GPIO45*%
%TO.N,/KP0*%
X62992000Y-23114000D03*
%TO.P,U2,J3_16,GPIO48/I2C_SDA*%
%TO.N,/KP1*%
X60452000Y-23114000D03*
%TO.P,U2,J3_17,GPIO47/I2C_SCL*%
%TO.N,/KP4*%
X57912000Y-23114000D03*
%TO.P,U2,J3_18,GPIO21*%
%TO.N,/KP7*%
X55372000Y-23114000D03*
%TO.P,U2,J3_19,GPIO20/USB_D+*%
%TO.N,unconnected-(U2-GPIO20{slash}USB_D+-PadJ3_19)*%
X52832000Y-23114000D03*
%TO.P,U2,J3_20,GPIO19/USB_D-*%
%TO.N,unconnected-(U2-GPIO19{slash}USB_D--PadJ3_20)*%
X50292000Y-23114000D03*
%TO.P,U2,J3_21,GND__2*%
%TO.N,unconnected-(U2-GND__2-PadJ3_21)*%
X47752000Y-23114000D03*
%TO.P,U2,J3_22,GND__3*%
%TO.N,unconnected-(U2-GND__3-PadJ3_22)*%
X45212000Y-23114000D03*
%TD*%
D18*
%TO.P,SW8,1,B*%
%TO.N,/Mode_Sel*%
X121343362Y-40468395D03*
D19*
%TO.P,SW8,2,C*%
%TO.N,GND*%
X121343362Y-37928395D03*
D18*
%TO.P,SW8,3,A*%
%TO.N,unconnected-(SW8-A-Pad3)*%
X121343362Y-43008395D03*
%TD*%
%TO.P,SW16,1,B*%
%TO.N,/EN*%
X121343362Y-30308395D03*
D19*
%TO.P,SW16,2,C*%
%TO.N,GND*%
X121343362Y-27768395D03*
D18*
%TO.P,SW16,3,A*%
%TO.N,unconnected-(SW16-A-Pad3)*%
X121343362Y-32848395D03*
%TD*%
D13*
%TO.P,SW1,1*%
%TO.N,GND*%
X55983116Y-54434643D03*
%TO.P,SW1,2*%
%TO.N,/KPnumlock*%
X49633116Y-56974643D03*
%TD*%
D20*
%TO.N,GND*%
X55000000Y-51500000D03*
%TD*%
D21*
%TO.N,/bat_neg*%
X68317161Y-26174000D02*
X46497000Y-47994161D01*
X46497000Y-65547000D02*
X46500000Y-65550000D01*
X73168002Y-26174000D02*
X68317161Y-26174000D01*
X74500000Y-27505998D02*
X73168002Y-26174000D01*
X74500000Y-27550000D02*
X74500000Y-27505998D01*
X46497000Y-47994161D02*
X46497000Y-65547000D01*
%TO.N,/bat_pos*%
X54087000Y-45963000D02*
X72500000Y-27550000D01*
X54087000Y-49033839D02*
X54087000Y-45963000D01*
X47900000Y-55220839D02*
X54087000Y-49033839D01*
X48500000Y-65550000D02*
X47900000Y-64950000D01*
X47900000Y-64950000D02*
X47900000Y-55220839D01*
D22*
%TO.N,/EN*%
X114137116Y-31828643D02*
X112936116Y-30627643D01*
X113639645Y-25547643D02*
X116582610Y-25547643D01*
X112936116Y-30627643D02*
X112936116Y-26251172D01*
X116582610Y-25547643D02*
X121343362Y-30308395D01*
X112936116Y-26251172D02*
X113639645Y-25547643D01*
%TO.N,/SDA*%
X115338116Y-35569643D02*
X114137116Y-34368643D01*
X114634587Y-38109643D02*
X115338116Y-37406114D01*
X113777645Y-38109643D02*
X114634587Y-38109643D01*
X115338116Y-37406114D02*
X115338116Y-35569643D01*
X61025000Y-45401000D02*
X106486288Y-45401000D01*
X57912000Y-48514000D02*
X61025000Y-45401000D01*
X106486288Y-45401000D02*
X113777645Y-38109643D01*
%TO.N,/DC*%
X116140116Y-31291643D02*
X114137116Y-29288643D01*
X112891859Y-46203000D02*
X116140116Y-42954743D01*
X65303000Y-46203000D02*
X112891859Y-46203000D01*
X62992000Y-48514000D02*
X65303000Y-46203000D01*
X116140116Y-42954743D02*
X116140116Y-31291643D01*
%TO.N,/SCL*%
X58886000Y-45000000D02*
X106045759Y-45000000D01*
X55372000Y-48514000D02*
X58886000Y-45000000D01*
%TO.N,/CS*%
X116541116Y-29152643D02*
X114137116Y-26748643D01*
X67442000Y-46604000D02*
X113057959Y-46604000D01*
X113057959Y-46604000D02*
X116541116Y-43120843D01*
X116541116Y-43120843D02*
X116541116Y-29152643D01*
X65532000Y-48514000D02*
X67442000Y-46604000D01*
%TO.N,/SCL*%
X106045759Y-45000000D02*
X114137116Y-36908643D01*
%TO.N,/EN*%
X120442362Y-39786697D02*
X120442362Y-31209395D01*
X113224059Y-47005000D02*
X120442362Y-39786697D01*
X93472000Y-48514000D02*
X94981000Y-47005000D01*
X94981000Y-47005000D02*
X113224059Y-47005000D01*
X120442362Y-31209395D02*
X121343362Y-30308395D01*
%TD*%
%TA.AperFunction,Conductor*%
%TO.N,GND*%
G36*
X112777899Y-40016528D02*
G01*
X112806001Y-40015324D01*
X112812277Y-40018987D01*
X112819529Y-40019506D01*
X112842049Y-40036365D01*
X112866343Y-40050545D01*
X112872323Y-40059028D01*
X112875462Y-40061378D01*
X112886679Y-40079392D01*
X112939301Y-40182666D01*
X113068868Y-40361001D01*
X113068872Y-40361006D01*
X113119432Y-40411566D01*
X113152917Y-40472889D01*
X113147933Y-40542581D01*
X113106061Y-40598514D01*
X113075085Y-40615428D01*
X112995034Y-40645286D01*
X112995022Y-40645292D01*
X112879928Y-40731452D01*
X112879925Y-40731455D01*
X112793765Y-40846549D01*
X112793761Y-40846556D01*
X112743519Y-40981263D01*
X112743517Y-40981270D01*
X112737116Y-41040798D01*
X112737116Y-41738643D01*
X113761838Y-41738643D01*
X113717783Y-41814949D01*
X113687116Y-41929399D01*
X113687116Y-42047887D01*
X113717783Y-42162337D01*
X113761838Y-42238643D01*
X112737116Y-42238643D01*
X112737116Y-42936487D01*
X112743517Y-42996015D01*
X112743519Y-42996022D01*
X112793761Y-43130729D01*
X112793765Y-43130736D01*
X112879925Y-43245830D01*
X112879928Y-43245833D01*
X112995022Y-43331993D01*
X112995029Y-43331997D01*
X113129736Y-43382239D01*
X113129743Y-43382241D01*
X113189271Y-43388642D01*
X113189288Y-43388643D01*
X113887116Y-43388643D01*
X113887116Y-42363920D01*
X113963422Y-42407976D01*
X114077872Y-42438643D01*
X114196360Y-42438643D01*
X114310810Y-42407976D01*
X114387116Y-42363920D01*
X114387116Y-43388643D01*
X114557619Y-43388643D01*
X114624658Y-43408328D01*
X114670413Y-43461132D01*
X114680357Y-43530290D01*
X114651332Y-43593846D01*
X114645300Y-43600324D01*
X112679443Y-45566181D01*
X112618120Y-45599666D01*
X112591762Y-45602500D01*
X107433385Y-45602500D01*
X107366346Y-45582815D01*
X107320591Y-45530011D01*
X107310647Y-45460853D01*
X107339672Y-45397297D01*
X107345704Y-45390819D01*
X108888717Y-43847806D01*
X112688516Y-40048005D01*
X112713204Y-40034524D01*
X112736196Y-40018317D01*
X112743457Y-40018005D01*
X112749837Y-40014522D01*
X112777899Y-40016528D01*
G37*
%TD.AperFunction*%
%TA.AperFunction,Conductor*%
G36*
X125783655Y-21172828D02*
G01*
X125829410Y-21225632D01*
X125840616Y-21277143D01*
X125840616Y-145758143D01*
X125820931Y-145825182D01*
X125768127Y-145870937D01*
X125716616Y-145882143D01*
X43145616Y-145882143D01*
X43078577Y-145862458D01*
X43032822Y-145809654D01*
X43021616Y-145758143D01*
X43021616Y-135567129D01*
X60717616Y-135567129D01*
X60717616Y-135862156D01*
X60749687Y-136105756D01*
X60756123Y-136154636D01*
X60756124Y-136154638D01*
X60832477Y-136439594D01*
X60832480Y-136439604D01*
X60945370Y-136712143D01*
X60945374Y-136712153D01*
X61092877Y-136967636D01*
X61272468Y-137201683D01*
X61272474Y-137201690D01*
X61481068Y-137410284D01*
X61481075Y-137410290D01*
X61715122Y-137589881D01*
X61970605Y-137737384D01*
X61970606Y-137737384D01*
X61970609Y-137737386D01*
X62243164Y-137850282D01*
X62528123Y-137926636D01*
X62820610Y-137965143D01*
X62820617Y-137965143D01*
X63115615Y-137965143D01*
X63115622Y-137965143D01*
X63408109Y-137926636D01*
X63693068Y-137850282D01*
X63965623Y-137737386D01*
X64221110Y-137589881D01*
X64455158Y-137410289D01*
X64663762Y-137201685D01*
X64843354Y-136967637D01*
X64990859Y-136712150D01*
X65103755Y-136439595D01*
X65180109Y-136154636D01*
X65218616Y-135862149D01*
X65218616Y-135567137D01*
X65218615Y-135567129D01*
X89292616Y-135567129D01*
X89292616Y-135862156D01*
X89324687Y-136105756D01*
X89331123Y-136154636D01*
X89331124Y-136154638D01*
X89407477Y-136439594D01*
X89407480Y-136439604D01*
X89520370Y-136712143D01*
X89520374Y-136712153D01*
X89667877Y-136967636D01*
X89847468Y-137201683D01*
X89847474Y-137201690D01*
X90056068Y-137410284D01*
X90056075Y-137410290D01*
X90290122Y-137589881D01*
X90545605Y-137737384D01*
X90545606Y-137737384D01*
X90545609Y-137737386D01*
X90818164Y-137850282D01*
X91103123Y-137926636D01*
X91395610Y-137965143D01*
X91395617Y-137965143D01*
X91690615Y-137965143D01*
X91690622Y-137965143D01*
X91983109Y-137926636D01*
X92268068Y-137850282D01*
X92540623Y-137737386D01*
X92796110Y-137589881D01*
X93030158Y-137410289D01*
X93238762Y-137201685D01*
X93418354Y-136967637D01*
X93565859Y-136712150D01*
X93678755Y-136439595D01*
X93755109Y-136154636D01*
X93793616Y-135862149D01*
X93793616Y-135567137D01*
X93755109Y-135274650D01*
X93678755Y-134989691D01*
X93565859Y-134717136D01*
X93418354Y-134461649D01*
X93238762Y-134227601D01*
X93238757Y-134227595D01*
X93030163Y-134019001D01*
X93030156Y-134018995D01*
X92796109Y-133839404D01*
X92540626Y-133691901D01*
X92540616Y-133691897D01*
X92268077Y-133579007D01*
X92268070Y-133579005D01*
X92268068Y-133579004D01*
X91983109Y-133502650D01*
X91934229Y-133496214D01*
X91690629Y-133464143D01*
X91690622Y-133464143D01*
X91395610Y-133464143D01*
X91395602Y-133464143D01*
X91117201Y-133500796D01*
X91103123Y-133502650D01*
X90928544Y-133549428D01*
X90818164Y-133579004D01*
X90818154Y-133579007D01*
X90545615Y-133691897D01*
X90545605Y-133691901D01*
X90290122Y-133839404D01*
X90056075Y-134018995D01*
X90056068Y-134019001D01*
X89847474Y-134227595D01*
X89847468Y-134227602D01*
X89667877Y-134461649D01*
X89520374Y-134717132D01*
X89520370Y-134717142D01*
X89407480Y-134989681D01*
X89407477Y-134989691D01*
X89331124Y-135274647D01*
X89331122Y-135274658D01*
X89292616Y-135567129D01*
X65218615Y-135567129D01*
X65180109Y-135274650D01*
X65103755Y-134989691D01*
X64990859Y-134717136D01*
X64843354Y-134461649D01*
X64663762Y-134227601D01*
X64663757Y-134227595D01*
X64455163Y-134019001D01*
X64455156Y-134018995D01*
X64221109Y-133839404D01*
X63965626Y-133691901D01*
X63965616Y-133691897D01*
X63693077Y-133579007D01*
X63693070Y-133579005D01*
X63693068Y-133579004D01*
X63408109Y-133502650D01*
X63359229Y-133496214D01*
X63115629Y-133464143D01*
X63115622Y-133464143D01*
X62820610Y-133464143D01*
X62820602Y-133464143D01*
X62542201Y-133500796D01*
X62528123Y-133502650D01*
X62353544Y-133549428D01*
X62243164Y-133579004D01*
X62243154Y-133579007D01*
X61970615Y-133691897D01*
X61970605Y-133691901D01*
X61715122Y-133839404D01*
X61481075Y-134018995D01*
X61481068Y-134019001D01*
X61272474Y-134227595D01*
X61272468Y-134227602D01*
X61092877Y-134461649D01*
X60945374Y-134717132D01*
X60945370Y-134717142D01*
X60832480Y-134989681D01*
X60832477Y-134989691D01*
X60756124Y-135274647D01*
X60756122Y-135274658D01*
X60717616Y-135567129D01*
X43021616Y-135567129D01*
X43021616Y-133048681D01*
X57557616Y-133048681D01*
X57557616Y-133300604D01*
X57597026Y-133549428D01*
X57674876Y-133789026D01*
X57789248Y-134013491D01*
X57937317Y-134217292D01*
X57937321Y-134217297D01*
X58115461Y-134395437D01*
X58115466Y-134395441D01*
X58293233Y-134524595D01*
X58319271Y-134543513D01*
X58462300Y-134616390D01*
X58543732Y-134657882D01*
X58543734Y-134657882D01*
X58543737Y-134657884D01*
X58783331Y-134735733D01*
X59032154Y-134775143D01*
X59032155Y-134775143D01*
X59284077Y-134775143D01*
X59284078Y-134775143D01*
X59532901Y-134735733D01*
X59772495Y-134657884D01*
X59996961Y-134543513D01*
X60200772Y-134395436D01*
X60378909Y-134217299D01*
X60526986Y-134013488D01*
X60641357Y-133789022D01*
X60719206Y-133549428D01*
X60758616Y-133300605D01*
X60758616Y-133048681D01*
X86132616Y-133048681D01*
X86132616Y-133300604D01*
X86172026Y-133549428D01*
X86249876Y-133789026D01*
X86364248Y-134013491D01*
X86512317Y-134217292D01*
X86512321Y-134217297D01*
X86690461Y-134395437D01*
X86690466Y-134395441D01*
X86868233Y-134524595D01*
X86894271Y-134543513D01*
X87037300Y-134616390D01*
X87118732Y-134657882D01*
X87118734Y-134657882D01*
X87118737Y-134657884D01*
X87358331Y-134735733D01*
X87607154Y-134775143D01*
X87607155Y-134775143D01*
X87859077Y-134775143D01*
X87859078Y-134775143D01*
X88107901Y-134735733D01*
X88347495Y-134657884D01*
X88571961Y-134543513D01*
X88775772Y-134395436D01*
X88953909Y-134217299D01*
X89101986Y-134013488D01*
X89216357Y-133789022D01*
X89294206Y-133549428D01*
X89333616Y-133300605D01*
X89333616Y-133048681D01*
X89294206Y-132799858D01*
X89216357Y-132560264D01*
X89216355Y-132560261D01*
X89216355Y-132560259D01*
X89174863Y-132478827D01*
X89101986Y-132335798D01*
X88999869Y-132195245D01*
X88953914Y-132131993D01*
X88953910Y-132131988D01*
X88775770Y-131953848D01*
X88775765Y-131953844D01*
X88571964Y-131805775D01*
X88571963Y-131805774D01*
X88571961Y-131805773D01*
X88501863Y-131770056D01*
X88347499Y-131691403D01*
X88107901Y-131613553D01*
X87859078Y-131574143D01*
X87607154Y-131574143D01*
X87482742Y-131593848D01*
X87358330Y-131613553D01*
X87118732Y-131691403D01*
X86894267Y-131805775D01*
X86690466Y-131953844D01*
X86690461Y-131953848D01*
X86512321Y-132131988D01*
X86512317Y-132131993D01*
X86364248Y-132335794D01*
X86249876Y-132560259D01*
X86172026Y-132799857D01*
X86132616Y-133048681D01*
X60758616Y-133048681D01*
X60719206Y-132799858D01*
X60641357Y-132560264D01*
X60641355Y-132560261D01*
X60641355Y-132560259D01*
X60599863Y-132478827D01*
X60526986Y-132335798D01*
X60424869Y-132195245D01*
X60378914Y-132131993D01*
X60378910Y-132131988D01*
X60200770Y-131953848D01*
X60200765Y-131953844D01*
X59996964Y-131805775D01*
X59996963Y-131805774D01*
X59996961Y-131805773D01*
X59926863Y-131770056D01*
X59772499Y-131691403D01*
X59532901Y-131613553D01*
X59284078Y-131574143D01*
X59032154Y-131574143D01*
X58907742Y-131593848D01*
X58783330Y-131613553D01*
X58543732Y-131691403D01*
X58319267Y-131805775D01*
X58115466Y-131953844D01*
X58115461Y-131953848D01*
X57937321Y-132131988D01*
X57937317Y-132131993D01*
X57789248Y-132335794D01*
X57674876Y-132560259D01*
X57597026Y-132799857D01*
X57557616Y-133048681D01*
X43021616Y-133048681D01*
X43021616Y-130508714D01*
X63908116Y-130508714D01*
X63908116Y-130760571D01*
X63947513Y-131009312D01*
X64025335Y-131248827D01*
X64139673Y-131473226D01*
X64213864Y-131575340D01*
X64213864Y-131575341D01*
X64830537Y-130958667D01*
X64843475Y-130989901D01*
X64925553Y-131112740D01*
X65030019Y-131217206D01*
X65152858Y-131299284D01*
X65184090Y-131312220D01*
X64567416Y-131928893D01*
X64669532Y-132003085D01*
X64893931Y-132117423D01*
X65133446Y-132195245D01*
X65382188Y-132234643D01*
X65634044Y-132234643D01*
X65882785Y-132195245D01*
X66122300Y-132117423D01*
X66346691Y-132003089D01*
X66346697Y-132003085D01*
X66448813Y-131928893D01*
X66448814Y-131928893D01*
X65832141Y-131312221D01*
X65863374Y-131299284D01*
X65986213Y-131217206D01*
X66090679Y-131112740D01*
X66172757Y-130989901D01*
X66185693Y-130958668D01*
X66802366Y-131575341D01*
X66802366Y-131575340D01*
X66876558Y-131473224D01*
X66876562Y-131473218D01*
X66990896Y-131248827D01*
X67068718Y-131009312D01*
X67108116Y-130760571D01*
X67108116Y-130508714D01*
X92483116Y-130508714D01*
X92483116Y-130760571D01*
X92522513Y-131009312D01*
X92600335Y-131248827D01*
X92714673Y-131473226D01*
X92788864Y-131575340D01*
X92788864Y-131575341D01*
X93405537Y-130958667D01*
X93418475Y-130989901D01*
X93500553Y-131112740D01*
X93605019Y-131217206D01*
X93727858Y-131299284D01*
X93759090Y-131312220D01*
X93142416Y-131928893D01*
X93244532Y-132003085D01*
X93468931Y-132117423D01*
X93708446Y-132195245D01*
X93957188Y-132234643D01*
X94209044Y-132234643D01*
X94457785Y-132195245D01*
X94697300Y-132117423D01*
X94921691Y-132003089D01*
X94921697Y-132003085D01*
X95023813Y-131928893D01*
X95023814Y-131928893D01*
X94407141Y-131312221D01*
X94438374Y-131299284D01*
X94561213Y-131217206D01*
X94665679Y-131112740D01*
X94747757Y-130989901D01*
X94760693Y-130958668D01*
X95377366Y-131575341D01*
X95377366Y-131575340D01*
X95451558Y-131473224D01*
X95451562Y-131473218D01*
X95565896Y-131248827D01*
X95643718Y-131009312D01*
X95683116Y-130760571D01*
X95683116Y-130508714D01*
X95643718Y-130259973D01*
X95565896Y-130020458D01*
X95451558Y-129796059D01*
X95377366Y-129693944D01*
X95377366Y-129693943D01*
X94760693Y-130310616D01*
X94747757Y-130279385D01*
X94665679Y-130156546D01*
X94561213Y-130052080D01*
X94438374Y-129970002D01*
X94407140Y-129957064D01*
X95023814Y-129340391D01*
X94921699Y-129266200D01*
X94697300Y-129151862D01*
X94457785Y-129074040D01*
X94209044Y-129034643D01*
X93957188Y-129034643D01*
X93708446Y-129074040D01*
X93468931Y-129151862D01*
X93244529Y-129266202D01*
X93142417Y-129340390D01*
X93142416Y-129340391D01*
X93759090Y-129957064D01*
X93727858Y-129970002D01*
X93605019Y-130052080D01*
X93500553Y-130156546D01*
X93418475Y-130279385D01*
X93405537Y-130310617D01*
X92788864Y-129693943D01*
X92788863Y-129693944D01*
X92714675Y-129796056D01*
X92600335Y-130020458D01*
X92522513Y-130259973D01*
X92483116Y-130508714D01*
X67108116Y-130508714D01*
X67068718Y-130259973D01*
X66990896Y-130020458D01*
X66876558Y-129796059D01*
X66802366Y-129693944D01*
X66802366Y-129693943D01*
X66185693Y-130310616D01*
X66172757Y-130279385D01*
X66090679Y-130156546D01*
X65986213Y-130052080D01*
X65863374Y-129970002D01*
X65832140Y-129957064D01*
X66448814Y-129340391D01*
X66346699Y-129266200D01*
X66122300Y-129151862D01*
X65882785Y-129074040D01*
X65634044Y-129034643D01*
X65382188Y-129034643D01*
X65133446Y-129074040D01*
X64893931Y-129151862D01*
X64669529Y-129266202D01*
X64567417Y-129340390D01*
X64567416Y-129340391D01*
X65184090Y-129957064D01*
X65152858Y-129970002D01*
X65030019Y-130052080D01*
X64925553Y-130156546D01*
X64843475Y-130279385D01*
X64830537Y-130310617D01*
X64213864Y-129693943D01*
X64213863Y-129693944D01*
X64139675Y-129796056D01*
X64025335Y-130020458D01*
X63947513Y-130259973D01*
X63908116Y-130508714D01*
X43021616Y-130508714D01*
X43021616Y-126042129D01*
X108342616Y-126042129D01*
X108342616Y-126337156D01*
X108374687Y-126580756D01*
X108381123Y-126629636D01*
X108381124Y-126629638D01*
X108457477Y-126914594D01*
X108457480Y-126914604D01*
X108570370Y-127187143D01*
X108570374Y-127187153D01*
X108717877Y-127442636D01*
X108897468Y-127676683D01*
X108897474Y-127676690D01*
X109106068Y-127885284D01*
X109106075Y-127885290D01*
X109340122Y-128064881D01*
X109595605Y-128212384D01*
X109595606Y-128212384D01*
X109595609Y-128212386D01*
X109868164Y-128325282D01*
X110153123Y-128401636D01*
X110445610Y-128440143D01*
X110445617Y-128440143D01*
X110740615Y-128440143D01*
X110740622Y-128440143D01*
X111033109Y-128401636D01*
X111318068Y-128325282D01*
X111590623Y-128212386D01*
X111846110Y-128064881D01*
X112080158Y-127885289D01*
X112288762Y-127676685D01*
X112468354Y-127442637D01*
X112615859Y-127187150D01*
X112728755Y-126914595D01*
X112805109Y-126629636D01*
X112843616Y-126337149D01*
X112843616Y-126042137D01*
X112805109Y-125749650D01*
X112728755Y-125464691D01*
X112615859Y-125192136D01*
X112468354Y-124936649D01*
X112288762Y-124702601D01*
X112288757Y-124702595D01*
X112080163Y-124494001D01*
X112080156Y-124493995D01*
X111846109Y-124314404D01*
X111590626Y-124166901D01*
X111590616Y-124166897D01*
X111318077Y-124054007D01*
X111318070Y-124054005D01*
X111318068Y-124054004D01*
X111033109Y-123977650D01*
X110984229Y-123971214D01*
X110740629Y-123939143D01*
X110740622Y-123939143D01*
X110445610Y-123939143D01*
X110445602Y-123939143D01*
X110167201Y-123975796D01*
X110153123Y-123977650D01*
X109978544Y-124024428D01*
X109868164Y-124054004D01*
X109868154Y-124054007D01*
X109595615Y-124166897D01*
X109595605Y-124166901D01*
X109340122Y-124314404D01*
X109106075Y-124493995D01*
X109106068Y-124494001D01*
X108897474Y-124702595D01*
X108897468Y-124702602D01*
X108717877Y-124936649D01*
X108570374Y-125192132D01*
X108570370Y-125192142D01*
X108457480Y-125464681D01*
X108457477Y-125464691D01*
X108381124Y-125749647D01*
X108381122Y-125749658D01*
X108342616Y-126042129D01*
X43021616Y-126042129D01*
X43021616Y-123523681D01*
X105182616Y-123523681D01*
X105182616Y-123775604D01*
X105222026Y-124024428D01*
X105299876Y-124264026D01*
X105414248Y-124488491D01*
X105562317Y-124692292D01*
X105562321Y-124692297D01*
X105740461Y-124870437D01*
X105740466Y-124870441D01*
X105918233Y-124999595D01*
X105944271Y-125018513D01*
X106087300Y-125091390D01*
X106168732Y-125132882D01*
X106168734Y-125132882D01*
X106168737Y-125132884D01*
X106408331Y-125210733D01*
X106657154Y-125250143D01*
X106657155Y-125250143D01*
X106909077Y-125250143D01*
X106909078Y-125250143D01*
X107157901Y-125210733D01*
X107397495Y-125132884D01*
X107621961Y-125018513D01*
X107825772Y-124870436D01*
X108003909Y-124692299D01*
X108151986Y-124488488D01*
X108266357Y-124264022D01*
X108344206Y-124024428D01*
X108383616Y-123775605D01*
X108383616Y-123523681D01*
X108344206Y-123274858D01*
X108266357Y-123035264D01*
X108266355Y-123035261D01*
X108266355Y-123035259D01*
X108224863Y-122953827D01*
X108151986Y-122810798D01*
X108049869Y-122670245D01*
X108003914Y-122606993D01*
X108003910Y-122606988D01*
X107825770Y-122428848D01*
X107825765Y-122428844D01*
X107621964Y-122280775D01*
X107621963Y-122280774D01*
X107621961Y-122280773D01*
X107551863Y-122245056D01*
X107397499Y-122166403D01*
X107157901Y-122088553D01*
X106909078Y-122049143D01*
X106657154Y-122049143D01*
X106532742Y-122068848D01*
X106408330Y-122088553D01*
X106168732Y-122166403D01*
X105944267Y-122280775D01*
X105740466Y-122428844D01*
X105740461Y-122428848D01*
X105562321Y-122606988D01*
X105562317Y-122606993D01*
X105414248Y-122810794D01*
X105299876Y-123035259D01*
X105222026Y-123274857D01*
X105182616Y-123523681D01*
X43021616Y-123523681D01*
X43021616Y-120983714D01*
X111533116Y-120983714D01*
X111533116Y-121235571D01*
X111572513Y-121484312D01*
X111650335Y-121723827D01*
X111764673Y-121948226D01*
X111838864Y-122050340D01*
X111838864Y-122050341D01*
X112455537Y-121433667D01*
X112468475Y-121464901D01*
X112550553Y-121587740D01*
X112655019Y-121692206D01*
X112777858Y-121774284D01*
X112809090Y-121787220D01*
X112192416Y-122403893D01*
X112294532Y-122478085D01*
X112518931Y-122592423D01*
X112758446Y-122670245D01*
X113007188Y-122709643D01*
X113259044Y-122709643D01*
X113507785Y-122670245D01*
X113747300Y-122592423D01*
X113971691Y-122478089D01*
X113971697Y-122478085D01*
X114073813Y-122403893D01*
X114073814Y-122403893D01*
X113457141Y-121787221D01*
X113488374Y-121774284D01*
X113611213Y-121692206D01*
X113715679Y-121587740D01*
X113797757Y-121464901D01*
X113810693Y-121433668D01*
X114427366Y-122050341D01*
X114427366Y-122050340D01*
X114501558Y-121948224D01*
X114501562Y-121948218D01*
X114615896Y-121723827D01*
X114693718Y-121484312D01*
X114733116Y-121235571D01*
X114733116Y-120983714D01*
X114693718Y-120734973D01*
X114615896Y-120495458D01*
X114501558Y-120271059D01*
X114427366Y-120168944D01*
X114427366Y-120168943D01*
X113810693Y-120785616D01*
X113797757Y-120754385D01*
X113715679Y-120631546D01*
X113611213Y-120527080D01*
X113488374Y-120445002D01*
X113457140Y-120432064D01*
X114073814Y-119815391D01*
X113971699Y-119741200D01*
X113747300Y-119626862D01*
X113507785Y-119549040D01*
X113259044Y-119509643D01*
X113007188Y-119509643D01*
X112758446Y-119549040D01*
X112518931Y-119626862D01*
X112294529Y-119741202D01*
X112192417Y-119815390D01*
X112192416Y-119815391D01*
X112809090Y-120432064D01*
X112777858Y-120445002D01*
X112655019Y-120527080D01*
X112550553Y-120631546D01*
X112468475Y-120754385D01*
X112455537Y-120785617D01*
X111838864Y-120168943D01*
X111838863Y-120168944D01*
X111764675Y-120271056D01*
X111650335Y-120495458D01*
X111572513Y-120734973D01*
X111533116Y-120983714D01*
X43021616Y-120983714D01*
X43021616Y-116517129D01*
X51192616Y-116517129D01*
X51192616Y-116812156D01*
X51224687Y-117055756D01*
X51231123Y-117104636D01*
X51231124Y-117104638D01*
X51307477Y-117389594D01*
X51307480Y-117389604D01*
X51420370Y-117662143D01*
X51420374Y-117662153D01*
X51567877Y-117917636D01*
X51747468Y-118151683D01*
X51747474Y-118151690D01*
X51956068Y-118360284D01*
X51956075Y-118360290D01*
X52190122Y-118539881D01*
X52445605Y-118687384D01*
X52445606Y-118687384D01*
X52445609Y-118687386D01*
X52718164Y-118800282D01*
X53003123Y-118876636D01*
X53295610Y-118915143D01*
X53295617Y-118915143D01*
X53590615Y-118915143D01*
X53590622Y-118915143D01*
X53883109Y-118876636D01*
X54168068Y-118800282D01*
X54440623Y-118687386D01*
X54696110Y-118539881D01*
X54930158Y-118360289D01*
X55138762Y-118151685D01*
X55318354Y-117917637D01*
X55465859Y-117662150D01*
X55578755Y-117389595D01*
X55655109Y-117104636D01*
X55693616Y-116812149D01*
X55693616Y-116517137D01*
X55693615Y-116517129D01*
X70242616Y-116517129D01*
X70242616Y-116812156D01*
X70274687Y-117055756D01*
X70281123Y-117104636D01*
X70281124Y-117104638D01*
X70357477Y-117389594D01*
X70357480Y-117389604D01*
X70470370Y-117662143D01*
X70470374Y-117662153D01*
X70617877Y-117917636D01*
X70797468Y-118151683D01*
X70797474Y-118151690D01*
X71006068Y-118360284D01*
X71006075Y-118360290D01*
X71240122Y-118539881D01*
X71495605Y-118687384D01*
X71495606Y-118687384D01*
X71495609Y-118687386D01*
X71768164Y-118800282D01*
X72053123Y-118876636D01*
X72345610Y-118915143D01*
X72345617Y-118915143D01*
X72640615Y-118915143D01*
X72640622Y-118915143D01*
X72933109Y-118876636D01*
X73218068Y-118800282D01*
X73490623Y-118687386D01*
X73746110Y-118539881D01*
X73980158Y-118360289D01*
X74188762Y-118151685D01*
X74368354Y-117917637D01*
X74515859Y-117662150D01*
X74628755Y-117389595D01*
X74705109Y-117104636D01*
X74743616Y-116812149D01*
X74743616Y-116517137D01*
X74743615Y-116517129D01*
X89292616Y-116517129D01*
X89292616Y-116812156D01*
X89324687Y-117055756D01*
X89331123Y-117104636D01*
X89331124Y-117104638D01*
X89407477Y-117389594D01*
X89407480Y-117389604D01*
X89520370Y-117662143D01*
X89520374Y-117662153D01*
X89667877Y-117917636D01*
X89847468Y-118151683D01*
X89847474Y-118151690D01*
X90056068Y-118360284D01*
X90056075Y-118360290D01*
X90290122Y-118539881D01*
X90545605Y-118687384D01*
X90545606Y-118687384D01*
X90545609Y-118687386D01*
X90818164Y-118800282D01*
X91103123Y-118876636D01*
X91395610Y-118915143D01*
X91395617Y-118915143D01*
X91690615Y-118915143D01*
X91690622Y-118915143D01*
X91983109Y-118876636D01*
X92268068Y-118800282D01*
X92540623Y-118687386D01*
X92796110Y-118539881D01*
X93030158Y-118360289D01*
X93238762Y-118151685D01*
X93418354Y-117917637D01*
X93565859Y-117662150D01*
X93678755Y-117389595D01*
X93755109Y-117104636D01*
X93793616Y-116812149D01*
X93793616Y-116517137D01*
X93755109Y-116224650D01*
X93678755Y-115939691D01*
X93565859Y-115667136D01*
X93418354Y-115411649D01*
X93238762Y-115177601D01*
X93238757Y-115177595D01*
X93030163Y-114969001D01*
X93030156Y-114968995D01*
X92796109Y-114789404D01*
X92540626Y-114641901D01*
X92540616Y-114641897D01*
X92268077Y-114529007D01*
X92268070Y-114529005D01*
X92268068Y-114529004D01*
X91983109Y-114452650D01*
X91934229Y-114446214D01*
X91690629Y-114414143D01*
X91690622Y-114414143D01*
X91395610Y-114414143D01*
X91395602Y-114414143D01*
X91117201Y-114450796D01*
X91103123Y-114452650D01*
X90928544Y-114499428D01*
X90818164Y-114529004D01*
X90818154Y-114529007D01*
X90545615Y-114641897D01*
X90545605Y-114641901D01*
X90290122Y-114789404D01*
X90056075Y-114968995D01*
X90056068Y-114969001D01*
X89847474Y-115177595D01*
X89847468Y-115177602D01*
X89667877Y-115411649D01*
X89520374Y-115667132D01*
X89520370Y-115667142D01*
X89407480Y-115939681D01*
X89407477Y-115939691D01*
X89331124Y-116224647D01*
X89331122Y-116224658D01*
X89292616Y-116517129D01*
X74743615Y-116517129D01*
X74705109Y-116224650D01*
X74628755Y-115939691D01*
X74515859Y-115667136D01*
X74368354Y-115411649D01*
X74188762Y-115177601D01*
X74188757Y-115177595D01*
X73980163Y-114969001D01*
X73980156Y-114968995D01*
X73746109Y-114789404D01*
X73490626Y-114641901D01*
X73490616Y-114641897D01*
X73218077Y-114529007D01*
X73218070Y-114529005D01*
X73218068Y-114529004D01*
X72933109Y-114452650D01*
X72884229Y-114446214D01*
X72640629Y-114414143D01*
X72640622Y-114414143D01*
X72345610Y-114414143D01*
X72345602Y-114414143D01*
X72067201Y-114450796D01*
X72053123Y-114452650D01*
X71878544Y-114499428D01*
X71768164Y-114529004D01*
X71768154Y-114529007D01*
X71495615Y-114641897D01*
X71495605Y-114641901D01*
X71240122Y-114789404D01*
X71006075Y-114968995D01*
X71006068Y-114969001D01*
X70797474Y-115177595D01*
X70797468Y-115177602D01*
X70617877Y-115411649D01*
X70470374Y-115667132D01*
X70470370Y-115667142D01*
X70357480Y-115939681D01*
X70357477Y-115939691D01*
X70281124Y-116224647D01*
X70281122Y-116224658D01*
X70242616Y-116517129D01*
X55693615Y-116517129D01*
X55655109Y-116224650D01*
X55578755Y-115939691D01*
X55465859Y-115667136D01*
X55318354Y-115411649D01*
X55138762Y-115177601D01*
X55138757Y-115177595D01*
X54930163Y-114969001D01*
X54930156Y-114968995D01*
X54696109Y-114789404D01*
X54440626Y-114641901D01*
X54440616Y-114641897D01*
X54168077Y-114529007D01*
X54168070Y-114529005D01*
X54168068Y-114529004D01*
X53883109Y-114452650D01*
X53834229Y-114446214D01*
X53590629Y-114414143D01*
X53590622Y-114414143D01*
X53295610Y-114414143D01*
X53295602Y-114414143D01*
X53017201Y-114450796D01*
X53003123Y-114452650D01*
X52828544Y-114499428D01*
X52718164Y-114529004D01*
X52718154Y-114529007D01*
X52445615Y-114641897D01*
X52445605Y-114641901D01*
X52190122Y-114789404D01*
X51956075Y-114968995D01*
X51956068Y-114969001D01*
X51747474Y-115177595D01*
X51747468Y-115177602D01*
X51567877Y-115411649D01*
X51420374Y-115667132D01*
X51420370Y-115667142D01*
X51307480Y-115939681D01*
X51307477Y-115939691D01*
X51231124Y-116224647D01*
X51231122Y-116224658D01*
X51192616Y-116517129D01*
X43021616Y-116517129D01*
X43021616Y-113998681D01*
X48032616Y-113998681D01*
X48032616Y-114250604D01*
X48072026Y-114499428D01*
X48149876Y-114739026D01*
X48264248Y-114963491D01*
X48412317Y-115167292D01*
X48412321Y-115167297D01*
X48590461Y-115345437D01*
X48590466Y-115345441D01*
X48768233Y-115474595D01*
X48794271Y-115493513D01*
X48937300Y-115566390D01*
X49018732Y-115607882D01*
X49018734Y-115607882D01*
X49018737Y-115607884D01*
X49258331Y-115685733D01*
X49507154Y-115725143D01*
X49507155Y-115725143D01*
X49759077Y-115725143D01*
X49759078Y-115725143D01*
X50007901Y-115685733D01*
X50247495Y-115607884D01*
X50471961Y-115493513D01*
X50675772Y-115345436D01*
X50853909Y-115167299D01*
X51001986Y-114963488D01*
X51116357Y-114739022D01*
X51194206Y-114499428D01*
X51233616Y-114250605D01*
X51233616Y-113998681D01*
X67082616Y-113998681D01*
X67082616Y-114250604D01*
X67122026Y-114499428D01*
X67199876Y-114739026D01*
X67314248Y-114963491D01*
X67462317Y-115167292D01*
X67462321Y-115167297D01*
X67640461Y-115345437D01*
X67640466Y-115345441D01*
X67818233Y-115474595D01*
X67844271Y-115493513D01*
X67987300Y-115566390D01*
X68068732Y-115607882D01*
X68068734Y-115607882D01*
X68068737Y-115607884D01*
X68308331Y-115685733D01*
X68557154Y-115725143D01*
X68557155Y-115725143D01*
X68809077Y-115725143D01*
X68809078Y-115725143D01*
X69057901Y-115685733D01*
X69297495Y-115607884D01*
X69521961Y-115493513D01*
X69725772Y-115345436D01*
X69903909Y-115167299D01*
X70051986Y-114963488D01*
X70166357Y-114739022D01*
X70244206Y-114499428D01*
X70283616Y-114250605D01*
X70283616Y-113998681D01*
X86132616Y-113998681D01*
X86132616Y-114250604D01*
X86172026Y-114499428D01*
X86249876Y-114739026D01*
X86364248Y-114963491D01*
X86512317Y-115167292D01*
X86512321Y-115167297D01*
X86690461Y-115345437D01*
X86690466Y-115345441D01*
X86868233Y-115474595D01*
X86894271Y-115493513D01*
X87037300Y-115566390D01*
X87118732Y-115607882D01*
X87118734Y-115607882D01*
X87118737Y-115607884D01*
X87358331Y-115685733D01*
X87607154Y-115725143D01*
X87607155Y-115725143D01*
X87859077Y-115725143D01*
X87859078Y-115725143D01*
X88107901Y-115685733D01*
X88347495Y-115607884D01*
X88571961Y-115493513D01*
X88775772Y-115345436D01*
X88953909Y-115167299D01*
X89101986Y-114963488D01*
X89216357Y-114739022D01*
X89294206Y-114499428D01*
X89333616Y-114250605D01*
X89333616Y-113998681D01*
X89294206Y-113749858D01*
X89216357Y-113510264D01*
X89216355Y-113510261D01*
X89216355Y-113510259D01*
X89174863Y-113428827D01*
X89101986Y-113285798D01*
X88999869Y-113145245D01*
X88953914Y-113081993D01*
X88953910Y-113081988D01*
X88775770Y-112903848D01*
X88775765Y-112903844D01*
X88571964Y-112755775D01*
X88571963Y-112755774D01*
X88571961Y-112755773D01*
X88501863Y-112720056D01*
X88347499Y-112641403D01*
X88107901Y-112563553D01*
X87859078Y-112524143D01*
X87607154Y-112524143D01*
X87482742Y-112543848D01*
X87358330Y-112563553D01*
X87118732Y-112641403D01*
X86894267Y-112755775D01*
X86690466Y-112903844D01*
X86690461Y-112903848D01*
X86512321Y-113081988D01*
X86512317Y-113081993D01*
X86364248Y-113285794D01*
X86249876Y-113510259D01*
X86172026Y-113749857D01*
X86132616Y-113998681D01*
X70283616Y-113998681D01*
X70244206Y-113749858D01*
X70166357Y-113510264D01*
X70166355Y-113510261D01*
X70166355Y-113510259D01*
X70124863Y-113428827D01*
X70051986Y-113285798D01*
X69949869Y-113145245D01*
X69903914Y-113081993D01*
X69903910Y-113081988D01*
X69725770Y-112903848D01*
X69725765Y-112903844D01*
X69521964Y-112755775D01*
X69521963Y-112755774D01*
X69521961Y-112755773D01*
X69451863Y-112720056D01*
X69297499Y-112641403D01*
X69057901Y-112563553D01*
X68809078Y-112524143D01*
X68557154Y-112524143D01*
X68432742Y-112543848D01*
X68308330Y-112563553D01*
X68068732Y-112641403D01*
X67844267Y-112755775D01*
X67640466Y-112903844D01*
X67640461Y-112903848D01*
X67462321Y-113081988D01*
X67462317Y-113081993D01*
X67314248Y-113285794D01*
X67199876Y-113510259D01*
X67122026Y-113749857D01*
X67082616Y-113998681D01*
X51233616Y-113998681D01*
X51194206Y-113749858D01*
X51116357Y-113510264D01*
X51116355Y-113510261D01*
X51116355Y-113510259D01*
X51074863Y-113428827D01*
X51001986Y-113285798D01*
X50899869Y-113145245D01*
X50853914Y-113081993D01*
X50853910Y-113081988D01*
X50675770Y-112903848D01*
X50675765Y-112903844D01*
X50471964Y-112755775D01*
X50471963Y-112755774D01*
X50471961Y-112755773D01*
X50401863Y-112720056D01*
X50247499Y-112641403D01*
X50007901Y-112563553D01*
X49759078Y-112524143D01*
X49507154Y-112524143D01*
X49382742Y-112543848D01*
X49258330Y-112563553D01*
X49018732Y-112641403D01*
X48794267Y-112755775D01*
X48590466Y-112903844D01*
X48590461Y-112903848D01*
X48412321Y-113081988D01*
X48412317Y-113081993D01*
X48264248Y-113285794D01*
X48149876Y-113510259D01*
X48072026Y-113749857D01*
X48032616Y-113998681D01*
X43021616Y-113998681D01*
X43021616Y-111458714D01*
X54383116Y-111458714D01*
X54383116Y-111710571D01*
X54422513Y-111959312D01*
X54500335Y-112198827D01*
X54614673Y-112423226D01*
X54688864Y-112525340D01*
X54688864Y-112525341D01*
X55305537Y-111908667D01*
X55318475Y-111939901D01*
X55400553Y-112062740D01*
X55505019Y-112167206D01*
X55627858Y-112249284D01*
X55659090Y-112262220D01*
X55042416Y-112878893D01*
X55144532Y-112953085D01*
X55368931Y-113067423D01*
X55608446Y-113145245D01*
X55857188Y-113184643D01*
X56109044Y-113184643D01*
X56357785Y-113145245D01*
X56597300Y-113067423D01*
X56821691Y-112953089D01*
X56821697Y-112953085D01*
X56923813Y-112878893D01*
X56923814Y-112878893D01*
X56307141Y-112262221D01*
X56338374Y-112249284D01*
X56461213Y-112167206D01*
X56565679Y-112062740D01*
X56647757Y-111939901D01*
X56660693Y-111908668D01*
X57277366Y-112525341D01*
X57277366Y-112525340D01*
X57351558Y-112423224D01*
X57351562Y-112423218D01*
X57465896Y-112198827D01*
X57543718Y-111959312D01*
X57583116Y-111710571D01*
X57583116Y-111458714D01*
X73433116Y-111458714D01*
X73433116Y-111710571D01*
X73472513Y-111959312D01*
X73550335Y-112198827D01*
X73664673Y-112423226D01*
X73738864Y-112525340D01*
X73738864Y-112525341D01*
X74355537Y-111908667D01*
X74368475Y-111939901D01*
X74450553Y-112062740D01*
X74555019Y-112167206D01*
X74677858Y-112249284D01*
X74709090Y-112262220D01*
X74092416Y-112878893D01*
X74194532Y-112953085D01*
X74418931Y-113067423D01*
X74658446Y-113145245D01*
X74907188Y-113184643D01*
X75159044Y-113184643D01*
X75407785Y-113145245D01*
X75647300Y-113067423D01*
X75871691Y-112953089D01*
X75871697Y-112953085D01*
X75973813Y-112878893D01*
X75973814Y-112878893D01*
X75357141Y-112262221D01*
X75388374Y-112249284D01*
X75511213Y-112167206D01*
X75615679Y-112062740D01*
X75697757Y-111939901D01*
X75710693Y-111908668D01*
X76327366Y-112525341D01*
X76327366Y-112525340D01*
X76401558Y-112423224D01*
X76401562Y-112423218D01*
X76515896Y-112198827D01*
X76593718Y-111959312D01*
X76633116Y-111710571D01*
X76633116Y-111458714D01*
X92483116Y-111458714D01*
X92483116Y-111710571D01*
X92522513Y-111959312D01*
X92600335Y-112198827D01*
X92714673Y-112423226D01*
X92788864Y-112525340D01*
X92788864Y-112525341D01*
X93405537Y-111908667D01*
X93418475Y-111939901D01*
X93500553Y-112062740D01*
X93605019Y-112167206D01*
X93727858Y-112249284D01*
X93759090Y-112262220D01*
X93142416Y-112878893D01*
X93244532Y-112953085D01*
X93468931Y-113067423D01*
X93708446Y-113145245D01*
X93957188Y-113184643D01*
X94209044Y-113184643D01*
X94457785Y-113145245D01*
X94697300Y-113067423D01*
X94921691Y-112953089D01*
X94921697Y-112953085D01*
X95023813Y-112878893D01*
X95023814Y-112878893D01*
X94407141Y-112262221D01*
X94438374Y-112249284D01*
X94561213Y-112167206D01*
X94665679Y-112062740D01*
X94747757Y-111939901D01*
X94760693Y-111908668D01*
X95377366Y-112525341D01*
X95377366Y-112525340D01*
X95451558Y-112423224D01*
X95451562Y-112423218D01*
X95565896Y-112198827D01*
X95643718Y-111959312D01*
X95683116Y-111710571D01*
X95683116Y-111458714D01*
X95643718Y-111209973D01*
X95565896Y-110970458D01*
X95451558Y-110746059D01*
X95377366Y-110643944D01*
X95377366Y-110643943D01*
X94760693Y-111260616D01*
X94747757Y-111229385D01*
X94665679Y-111106546D01*
X94561213Y-111002080D01*
X94438374Y-110920002D01*
X94407140Y-110907064D01*
X95023814Y-110290391D01*
X94921699Y-110216200D01*
X94697300Y-110101862D01*
X94457785Y-110024040D01*
X94209044Y-109984643D01*
X93957188Y-109984643D01*
X93708446Y-110024040D01*
X93468931Y-110101862D01*
X93244529Y-110216202D01*
X93142417Y-110290390D01*
X93142416Y-110290391D01*
X93759090Y-110907064D01*
X93727858Y-110920002D01*
X93605019Y-111002080D01*
X93500553Y-111106546D01*
X93418475Y-111229385D01*
X93405537Y-111260617D01*
X92788864Y-110643943D01*
X92788863Y-110643944D01*
X92714675Y-110746056D01*
X92600335Y-110970458D01*
X92522513Y-111209973D01*
X92483116Y-111458714D01*
X76633116Y-111458714D01*
X76593718Y-111209973D01*
X76515896Y-110970458D01*
X76401558Y-110746059D01*
X76327366Y-110643944D01*
X76327366Y-110643943D01*
X75710693Y-111260616D01*
X75697757Y-111229385D01*
X75615679Y-111106546D01*
X75511213Y-111002080D01*
X75388374Y-110920002D01*
X75357140Y-110907064D01*
X75973814Y-110290391D01*
X75871699Y-110216200D01*
X75647300Y-110101862D01*
X75407785Y-110024040D01*
X75159044Y-109984643D01*
X74907188Y-109984643D01*
X74658446Y-110024040D01*
X74418931Y-110101862D01*
X74194529Y-110216202D01*
X74092417Y-110290390D01*
X74092416Y-110290391D01*
X74709090Y-110907064D01*
X74677858Y-110920002D01*
X74555019Y-111002080D01*
X74450553Y-111106546D01*
X74368475Y-111229385D01*
X74355537Y-111260617D01*
X73738864Y-110643943D01*
X73738863Y-110643944D01*
X73664675Y-110746056D01*
X73550335Y-110970458D01*
X73472513Y-111209973D01*
X73433116Y-111458714D01*
X57583116Y-111458714D01*
X57543718Y-111209973D01*
X57465896Y-110970458D01*
X57351558Y-110746059D01*
X57277366Y-110643944D01*
X57277366Y-110643943D01*
X56660693Y-111260616D01*
X56647757Y-111229385D01*
X56565679Y-111106546D01*
X56461213Y-111002080D01*
X56338374Y-110920002D01*
X56307140Y-110907064D01*
X56923814Y-110290391D01*
X56821699Y-110216200D01*
X56597300Y-110101862D01*
X56357785Y-110024040D01*
X56109044Y-109984643D01*
X55857188Y-109984643D01*
X55608446Y-110024040D01*
X55368931Y-110101862D01*
X55144529Y-110216202D01*
X55042417Y-110290390D01*
X55042416Y-110290391D01*
X55659090Y-110907064D01*
X55627858Y-110920002D01*
X55505019Y-111002080D01*
X55400553Y-111106546D01*
X55318475Y-111229385D01*
X55305537Y-111260617D01*
X54688864Y-110643943D01*
X54688863Y-110643944D01*
X54614675Y-110746056D01*
X54500335Y-110970458D01*
X54422513Y-111209973D01*
X54383116Y-111458714D01*
X43021616Y-111458714D01*
X43021616Y-97467129D01*
X51192616Y-97467129D01*
X51192616Y-97762156D01*
X51224687Y-98005756D01*
X51231123Y-98054636D01*
X51231124Y-98054638D01*
X51307477Y-98339594D01*
X51307480Y-98339604D01*
X51420370Y-98612143D01*
X51420374Y-98612153D01*
X51567877Y-98867636D01*
X51747468Y-99101683D01*
X51747474Y-99101690D01*
X51956068Y-99310284D01*
X51956075Y-99310290D01*
X52190122Y-99489881D01*
X52445605Y-99637384D01*
X52445606Y-99637384D01*
X52445609Y-99637386D01*
X52718164Y-99750282D01*
X53003123Y-99826636D01*
X53295610Y-99865143D01*
X53295617Y-99865143D01*
X53590615Y-99865143D01*
X53590622Y-99865143D01*
X53883109Y-99826636D01*
X54168068Y-99750282D01*
X54440623Y-99637386D01*
X54696110Y-99489881D01*
X54930158Y-99310289D01*
X55138762Y-99101685D01*
X55318354Y-98867637D01*
X55465859Y-98612150D01*
X55578755Y-98339595D01*
X55655109Y-98054636D01*
X55693616Y-97762149D01*
X55693616Y-97467137D01*
X55693615Y-97467129D01*
X70242616Y-97467129D01*
X70242616Y-97762156D01*
X70274687Y-98005756D01*
X70281123Y-98054636D01*
X70281124Y-98054638D01*
X70357477Y-98339594D01*
X70357480Y-98339604D01*
X70470370Y-98612143D01*
X70470374Y-98612153D01*
X70617877Y-98867636D01*
X70797468Y-99101683D01*
X70797474Y-99101690D01*
X71006068Y-99310284D01*
X71006075Y-99310290D01*
X71240122Y-99489881D01*
X71495605Y-99637384D01*
X71495606Y-99637384D01*
X71495609Y-99637386D01*
X71768164Y-99750282D01*
X72053123Y-99826636D01*
X72345610Y-99865143D01*
X72345617Y-99865143D01*
X72640615Y-99865143D01*
X72640622Y-99865143D01*
X72933109Y-99826636D01*
X73218068Y-99750282D01*
X73490623Y-99637386D01*
X73746110Y-99489881D01*
X73980158Y-99310289D01*
X74188762Y-99101685D01*
X74368354Y-98867637D01*
X74515859Y-98612150D01*
X74628755Y-98339595D01*
X74705109Y-98054636D01*
X74743616Y-97762149D01*
X74743616Y-97467137D01*
X74743615Y-97467129D01*
X89292616Y-97467129D01*
X89292616Y-97762156D01*
X89324687Y-98005756D01*
X89331123Y-98054636D01*
X89331124Y-98054638D01*
X89407477Y-98339594D01*
X89407480Y-98339604D01*
X89520370Y-98612143D01*
X89520374Y-98612153D01*
X89667877Y-98867636D01*
X89847468Y-99101683D01*
X89847474Y-99101690D01*
X90056068Y-99310284D01*
X90056075Y-99310290D01*
X90290122Y-99489881D01*
X90545605Y-99637384D01*
X90545606Y-99637384D01*
X90545609Y-99637386D01*
X90818164Y-99750282D01*
X91103123Y-99826636D01*
X91395610Y-99865143D01*
X91395617Y-99865143D01*
X91690615Y-99865143D01*
X91690622Y-99865143D01*
X91983109Y-99826636D01*
X92268068Y-99750282D01*
X92540623Y-99637386D01*
X92796110Y-99489881D01*
X93030158Y-99310289D01*
X93238762Y-99101685D01*
X93418354Y-98867637D01*
X93565859Y-98612150D01*
X93678755Y-98339595D01*
X93755109Y-98054636D01*
X93793616Y-97762149D01*
X93793616Y-97467137D01*
X93755109Y-97174650D01*
X93678755Y-96889691D01*
X93565859Y-96617136D01*
X93418354Y-96361649D01*
X93238762Y-96127601D01*
X93238757Y-96127595D01*
X93030163Y-95919001D01*
X93030156Y-95918995D01*
X92796109Y-95739404D01*
X92540626Y-95591901D01*
X92540616Y-95591897D01*
X92268077Y-95479007D01*
X92268070Y-95479005D01*
X92268068Y-95479004D01*
X91983109Y-95402650D01*
X91934229Y-95396214D01*
X91690629Y-95364143D01*
X91690622Y-95364143D01*
X91395610Y-95364143D01*
X91395602Y-95364143D01*
X91117201Y-95400796D01*
X91103123Y-95402650D01*
X90928544Y-95449428D01*
X90818164Y-95479004D01*
X90818154Y-95479007D01*
X90545615Y-95591897D01*
X90545605Y-95591901D01*
X90290122Y-95739404D01*
X90056075Y-95918995D01*
X90056068Y-95919001D01*
X89847474Y-96127595D01*
X89847468Y-96127602D01*
X89667877Y-96361649D01*
X89520374Y-96617132D01*
X89520370Y-96617142D01*
X89407480Y-96889681D01*
X89407477Y-96889691D01*
X89331124Y-97174647D01*
X89331122Y-97174658D01*
X89292616Y-97467129D01*
X74743615Y-97467129D01*
X74705109Y-97174650D01*
X74628755Y-96889691D01*
X74515859Y-96617136D01*
X74368354Y-96361649D01*
X74188762Y-96127601D01*
X74188757Y-96127595D01*
X73980163Y-95919001D01*
X73980156Y-95918995D01*
X73746109Y-95739404D01*
X73490626Y-95591901D01*
X73490616Y-95591897D01*
X73218077Y-95479007D01*
X73218070Y-95479005D01*
X73218068Y-95479004D01*
X72933109Y-95402650D01*
X72884229Y-95396214D01*
X72640629Y-95364143D01*
X72640622Y-95364143D01*
X72345610Y-95364143D01*
X72345602Y-95364143D01*
X72067201Y-95400796D01*
X72053123Y-95402650D01*
X71878544Y-95449428D01*
X71768164Y-95479004D01*
X71768154Y-95479007D01*
X71495615Y-95591897D01*
X71495605Y-95591901D01*
X71240122Y-95739404D01*
X71006075Y-95918995D01*
X71006068Y-95919001D01*
X70797474Y-96127595D01*
X70797468Y-96127602D01*
X70617877Y-96361649D01*
X70470374Y-96617132D01*
X70470370Y-96617142D01*
X70357480Y-96889681D01*
X70357477Y-96889691D01*
X70281124Y-97174647D01*
X70281122Y-97174658D01*
X70242616Y-97467129D01*
X55693615Y-97467129D01*
X55655109Y-97174650D01*
X55578755Y-96889691D01*
X55465859Y-96617136D01*
X55318354Y-96361649D01*
X55138762Y-96127601D01*
X55138757Y-96127595D01*
X54930163Y-95919001D01*
X54930156Y-95918995D01*
X54696109Y-95739404D01*
X54440626Y-95591901D01*
X54440616Y-95591897D01*
X54168077Y-95479007D01*
X54168070Y-95479005D01*
X54168068Y-95479004D01*
X53883109Y-95402650D01*
X53834229Y-95396214D01*
X53590629Y-95364143D01*
X53590622Y-95364143D01*
X53295610Y-95364143D01*
X53295602Y-95364143D01*
X53017201Y-95400796D01*
X53003123Y-95402650D01*
X52828544Y-95449428D01*
X52718164Y-95479004D01*
X52718154Y-95479007D01*
X52445615Y-95591897D01*
X52445605Y-95591901D01*
X52190122Y-95739404D01*
X51956075Y-95918995D01*
X51956068Y-95919001D01*
X51747474Y-96127595D01*
X51747468Y-96127602D01*
X51567877Y-96361649D01*
X51420374Y-96617132D01*
X51420370Y-96617142D01*
X51307480Y-96889681D01*
X51307477Y-96889691D01*
X51231124Y-97174647D01*
X51231122Y-97174658D01*
X51192616Y-97467129D01*
X43021616Y-97467129D01*
X43021616Y-94948681D01*
X48032616Y-94948681D01*
X48032616Y-95200604D01*
X48072026Y-95449428D01*
X48149876Y-95689026D01*
X48264248Y-95913491D01*
X48412317Y-96117292D01*
X48412321Y-96117297D01*
X48590461Y-96295437D01*
X48590466Y-96295441D01*
X48768233Y-96424595D01*
X48794271Y-96443513D01*
X48937300Y-96516390D01*
X49018732Y-96557882D01*
X49018734Y-96557882D01*
X49018737Y-96557884D01*
X49258331Y-96635733D01*
X49507154Y-96675143D01*
X49507155Y-96675143D01*
X49759077Y-96675143D01*
X49759078Y-96675143D01*
X50007901Y-96635733D01*
X50247495Y-96557884D01*
X50471961Y-96443513D01*
X50675772Y-96295436D01*
X50853909Y-96117299D01*
X51001986Y-95913488D01*
X51116357Y-95689022D01*
X51194206Y-95449428D01*
X51233616Y-95200605D01*
X51233616Y-94948681D01*
X67082616Y-94948681D01*
X67082616Y-95200604D01*
X67122026Y-95449428D01*
X67199876Y-95689026D01*
X67314248Y-95913491D01*
X67462317Y-96117292D01*
X67462321Y-96117297D01*
X67640461Y-96295437D01*
X67640466Y-96295441D01*
X67818233Y-96424595D01*
X67844271Y-96443513D01*
X67987300Y-96516390D01*
X68068732Y-96557882D01*
X68068734Y-96557882D01*
X68068737Y-96557884D01*
X68308331Y-96635733D01*
X68557154Y-96675143D01*
X68557155Y-96675143D01*
X68809077Y-96675143D01*
X68809078Y-96675143D01*
X69057901Y-96635733D01*
X69297495Y-96557884D01*
X69521961Y-96443513D01*
X69725772Y-96295436D01*
X69903909Y-96117299D01*
X70051986Y-95913488D01*
X70166357Y-95689022D01*
X70244206Y-95449428D01*
X70283616Y-95200605D01*
X70283616Y-94948681D01*
X86132616Y-94948681D01*
X86132616Y-95200604D01*
X86172026Y-95449428D01*
X86249876Y-95689026D01*
X86364248Y-95913491D01*
X86512317Y-96117292D01*
X86512321Y-96117297D01*
X86690461Y-96295437D01*
X86690466Y-96295441D01*
X86868233Y-96424595D01*
X86894271Y-96443513D01*
X87037300Y-96516390D01*
X87118732Y-96557882D01*
X87118734Y-96557882D01*
X87118737Y-96557884D01*
X87358331Y-96635733D01*
X87607154Y-96675143D01*
X87607155Y-96675143D01*
X87859077Y-96675143D01*
X87859078Y-96675143D01*
X88107901Y-96635733D01*
X88347495Y-96557884D01*
X88571961Y-96443513D01*
X88775772Y-96295436D01*
X88953909Y-96117299D01*
X89101986Y-95913488D01*
X89216357Y-95689022D01*
X89294206Y-95449428D01*
X89333616Y-95200605D01*
X89333616Y-94948681D01*
X89294206Y-94699858D01*
X89216357Y-94460264D01*
X89216355Y-94460261D01*
X89216355Y-94460259D01*
X89174863Y-94378827D01*
X89101986Y-94235798D01*
X88999869Y-94095245D01*
X88953914Y-94031993D01*
X88953910Y-94031988D01*
X88775770Y-93853848D01*
X88775765Y-93853844D01*
X88571964Y-93705775D01*
X88571963Y-93705774D01*
X88571961Y-93705773D01*
X88501863Y-93670056D01*
X88347499Y-93591403D01*
X88107901Y-93513553D01*
X87859078Y-93474143D01*
X87607154Y-93474143D01*
X87482742Y-93493848D01*
X87358330Y-93513553D01*
X87118732Y-93591403D01*
X86894267Y-93705775D01*
X86690466Y-93853844D01*
X86690461Y-93853848D01*
X86512321Y-94031988D01*
X86512317Y-94031993D01*
X86364248Y-94235794D01*
X86249876Y-94460259D01*
X86172026Y-94699857D01*
X86132616Y-94948681D01*
X70283616Y-94948681D01*
X70244206Y-94699858D01*
X70166357Y-94460264D01*
X70166355Y-94460261D01*
X70166355Y-94460259D01*
X70124863Y-94378827D01*
X70051986Y-94235798D01*
X69949869Y-94095245D01*
X69903914Y-94031993D01*
X69903910Y-94031988D01*
X69725770Y-93853848D01*
X69725765Y-93853844D01*
X69521964Y-93705775D01*
X69521963Y-93705774D01*
X69521961Y-93705773D01*
X69451863Y-93670056D01*
X69297499Y-93591403D01*
X69057901Y-93513553D01*
X68809078Y-93474143D01*
X68557154Y-93474143D01*
X68432742Y-93493848D01*
X68308330Y-93513553D01*
X68068732Y-93591403D01*
X67844267Y-93705775D01*
X67640466Y-93853844D01*
X67640461Y-93853848D01*
X67462321Y-94031988D01*
X67462317Y-94031993D01*
X67314248Y-94235794D01*
X67199876Y-94460259D01*
X67122026Y-94699857D01*
X67082616Y-94948681D01*
X51233616Y-94948681D01*
X51194206Y-94699858D01*
X51116357Y-94460264D01*
X51116355Y-94460261D01*
X51116355Y-94460259D01*
X51074863Y-94378827D01*
X51001986Y-94235798D01*
X50899869Y-94095245D01*
X50853914Y-94031993D01*
X50853910Y-94031988D01*
X50675770Y-93853848D01*
X50675765Y-93853844D01*
X50471964Y-93705775D01*
X50471963Y-93705774D01*
X50471961Y-93705773D01*
X50401863Y-93670056D01*
X50247499Y-93591403D01*
X50007901Y-93513553D01*
X49759078Y-93474143D01*
X49507154Y-93474143D01*
X49382742Y-93493848D01*
X49258330Y-93513553D01*
X49018732Y-93591403D01*
X48794267Y-93705775D01*
X48590466Y-93853844D01*
X48590461Y-93853848D01*
X48412321Y-94031988D01*
X48412317Y-94031993D01*
X48264248Y-94235794D01*
X48149876Y-94460259D01*
X48072026Y-94699857D01*
X48032616Y-94948681D01*
X43021616Y-94948681D01*
X43021616Y-92408714D01*
X54383116Y-92408714D01*
X54383116Y-92660571D01*
X54422513Y-92909312D01*
X54500335Y-93148827D01*
X54614673Y-93373226D01*
X54688864Y-93475340D01*
X54688864Y-93475341D01*
X55305537Y-92858667D01*
X55318475Y-92889901D01*
X55400553Y-93012740D01*
X55505019Y-93117206D01*
X55627858Y-93199284D01*
X55659090Y-93212220D01*
X55042416Y-93828893D01*
X55144532Y-93903085D01*
X55368931Y-94017423D01*
X55608446Y-94095245D01*
X55857188Y-94134643D01*
X56109044Y-94134643D01*
X56357785Y-94095245D01*
X56597300Y-94017423D01*
X56821691Y-93903089D01*
X56821697Y-93903085D01*
X56923813Y-93828893D01*
X56923814Y-93828893D01*
X56307141Y-93212221D01*
X56338374Y-93199284D01*
X56461213Y-93117206D01*
X56565679Y-93012740D01*
X56647757Y-92889901D01*
X56660693Y-92858668D01*
X57277366Y-93475341D01*
X57277366Y-93475340D01*
X57351558Y-93373224D01*
X57351562Y-93373218D01*
X57465896Y-93148827D01*
X57543718Y-92909312D01*
X57583116Y-92660571D01*
X57583116Y-92408714D01*
X73433116Y-92408714D01*
X73433116Y-92660571D01*
X73472513Y-92909312D01*
X73550335Y-93148827D01*
X73664673Y-93373226D01*
X73738864Y-93475340D01*
X73738864Y-93475341D01*
X74355537Y-92858667D01*
X74368475Y-92889901D01*
X74450553Y-93012740D01*
X74555019Y-93117206D01*
X74677858Y-93199284D01*
X74709090Y-93212220D01*
X74092416Y-93828893D01*
X74194532Y-93903085D01*
X74418931Y-94017423D01*
X74658446Y-94095245D01*
X74907188Y-94134643D01*
X75159044Y-94134643D01*
X75407785Y-94095245D01*
X75647300Y-94017423D01*
X75871691Y-93903089D01*
X75871697Y-93903085D01*
X75973813Y-93828893D01*
X75973814Y-93828893D01*
X75357141Y-93212221D01*
X75388374Y-93199284D01*
X75511213Y-93117206D01*
X75615679Y-93012740D01*
X75697757Y-92889901D01*
X75710693Y-92858668D01*
X76327366Y-93475341D01*
X76327366Y-93475340D01*
X76401558Y-93373224D01*
X76401562Y-93373218D01*
X76515896Y-93148827D01*
X76593718Y-92909312D01*
X76633116Y-92660571D01*
X76633116Y-92408714D01*
X92483116Y-92408714D01*
X92483116Y-92660571D01*
X92522513Y-92909312D01*
X92600335Y-93148827D01*
X92714673Y-93373226D01*
X92788864Y-93475340D01*
X92788864Y-93475341D01*
X93405537Y-92858667D01*
X93418475Y-92889901D01*
X93500553Y-93012740D01*
X93605019Y-93117206D01*
X93727858Y-93199284D01*
X93759090Y-93212220D01*
X93142416Y-93828893D01*
X93244532Y-93903085D01*
X93468931Y-94017423D01*
X93708446Y-94095245D01*
X93957188Y-94134643D01*
X94209044Y-94134643D01*
X94457785Y-94095245D01*
X94697300Y-94017423D01*
X94921691Y-93903089D01*
X94921697Y-93903085D01*
X95023813Y-93828893D01*
X95023814Y-93828893D01*
X94407141Y-93212221D01*
X94438374Y-93199284D01*
X94561213Y-93117206D01*
X94665679Y-93012740D01*
X94747757Y-92889901D01*
X94760693Y-92858668D01*
X95377366Y-93475341D01*
X95377366Y-93475340D01*
X95451558Y-93373224D01*
X95451562Y-93373218D01*
X95565896Y-93148827D01*
X95643718Y-92909312D01*
X95683116Y-92660571D01*
X95683116Y-92408714D01*
X95643718Y-92159973D01*
X95565896Y-91920458D01*
X95451558Y-91696059D01*
X95377366Y-91593944D01*
X95377366Y-91593943D01*
X94760693Y-92210616D01*
X94747757Y-92179385D01*
X94665679Y-92056546D01*
X94561213Y-91952080D01*
X94438374Y-91870002D01*
X94407140Y-91857064D01*
X95023814Y-91240391D01*
X94921699Y-91166200D01*
X94697300Y-91051862D01*
X94457785Y-90974040D01*
X94209044Y-90934643D01*
X93957188Y-90934643D01*
X93708446Y-90974040D01*
X93468931Y-91051862D01*
X93244529Y-91166202D01*
X93142417Y-91240390D01*
X93142416Y-91240391D01*
X93759090Y-91857064D01*
X93727858Y-91870002D01*
X93605019Y-91952080D01*
X93500553Y-92056546D01*
X93418475Y-92179385D01*
X93405537Y-92210617D01*
X92788864Y-91593943D01*
X92788863Y-91593944D01*
X92714675Y-91696056D01*
X92600335Y-91920458D01*
X92522513Y-92159973D01*
X92483116Y-92408714D01*
X76633116Y-92408714D01*
X76593718Y-92159973D01*
X76515896Y-91920458D01*
X76401558Y-91696059D01*
X76327366Y-91593944D01*
X76327366Y-91593943D01*
X75710693Y-92210616D01*
X75697757Y-92179385D01*
X75615679Y-92056546D01*
X75511213Y-91952080D01*
X75388374Y-91870002D01*
X75357140Y-91857064D01*
X75973814Y-91240391D01*
X75871699Y-91166200D01*
X75647300Y-91051862D01*
X75407785Y-90974040D01*
X75159044Y-90934643D01*
X74907188Y-90934643D01*
X74658446Y-90974040D01*
X74418931Y-91051862D01*
X74194529Y-91166202D01*
X74092417Y-91240390D01*
X74092416Y-91240391D01*
X74709090Y-91857064D01*
X74677858Y-91870002D01*
X74555019Y-91952080D01*
X74450553Y-92056546D01*
X74368475Y-92179385D01*
X74355537Y-92210617D01*
X73738864Y-91593943D01*
X73738863Y-91593944D01*
X73664675Y-91696056D01*
X73550335Y-91920458D01*
X73472513Y-92159973D01*
X73433116Y-92408714D01*
X57583116Y-92408714D01*
X57543718Y-92159973D01*
X57465896Y-91920458D01*
X57351558Y-91696059D01*
X57277366Y-91593944D01*
X57277366Y-91593943D01*
X56660693Y-92210616D01*
X56647757Y-92179385D01*
X56565679Y-92056546D01*
X56461213Y-91952080D01*
X56338374Y-91870002D01*
X56307140Y-91857064D01*
X56923814Y-91240391D01*
X56821699Y-91166200D01*
X56597300Y-91051862D01*
X56357785Y-90974040D01*
X56109044Y-90934643D01*
X55857188Y-90934643D01*
X55608446Y-90974040D01*
X55368931Y-91051862D01*
X55144529Y-91166202D01*
X55042417Y-91240390D01*
X55042416Y-91240391D01*
X55659090Y-91857064D01*
X55627858Y-91870002D01*
X55505019Y-91952080D01*
X55400553Y-92056546D01*
X55318475Y-92179385D01*
X55305537Y-92210617D01*
X54688864Y-91593943D01*
X54688863Y-91593944D01*
X54614675Y-91696056D01*
X54500335Y-91920458D01*
X54422513Y-92159973D01*
X54383116Y-92408714D01*
X43021616Y-92408714D01*
X43021616Y-87942129D01*
X108342616Y-87942129D01*
X108342616Y-88237156D01*
X108374687Y-88480756D01*
X108381123Y-88529636D01*
X108381124Y-88529638D01*
X108457477Y-88814594D01*
X108457480Y-88814604D01*
X108570370Y-89087143D01*
X108570374Y-89087153D01*
X108717877Y-89342636D01*
X108897468Y-89576683D01*
X108897474Y-89576690D01*
X109106068Y-89785284D01*
X109106075Y-89785290D01*
X109340122Y-89964881D01*
X109595605Y-90112384D01*
X109595606Y-90112384D01*
X109595609Y-90112386D01*
X109868164Y-90225282D01*
X110153123Y-90301636D01*
X110445610Y-90340143D01*
X110445617Y-90340143D01*
X110740615Y-90340143D01*
X110740622Y-90340143D01*
X111033109Y-90301636D01*
X111318068Y-90225282D01*
X111590623Y-90112386D01*
X111846110Y-89964881D01*
X112080158Y-89785289D01*
X112288762Y-89576685D01*
X112468354Y-89342637D01*
X112615859Y-89087150D01*
X112728755Y-88814595D01*
X112805109Y-88529636D01*
X112843616Y-88237149D01*
X112843616Y-87942137D01*
X112805109Y-87649650D01*
X112728755Y-87364691D01*
X112615859Y-87092136D01*
X112468354Y-86836649D01*
X112288762Y-86602601D01*
X112288757Y-86602595D01*
X112080163Y-86394001D01*
X112080156Y-86393995D01*
X111846109Y-86214404D01*
X111590626Y-86066901D01*
X111590616Y-86066897D01*
X111318077Y-85954007D01*
X111318070Y-85954005D01*
X111318068Y-85954004D01*
X111033109Y-85877650D01*
X110984229Y-85871214D01*
X110740629Y-85839143D01*
X110740622Y-85839143D01*
X110445610Y-85839143D01*
X110445602Y-85839143D01*
X110167201Y-85875796D01*
X110153123Y-85877650D01*
X109978544Y-85924428D01*
X109868164Y-85954004D01*
X109868154Y-85954007D01*
X109595615Y-86066897D01*
X109595605Y-86066901D01*
X109340122Y-86214404D01*
X109106075Y-86393995D01*
X109106068Y-86394001D01*
X108897474Y-86602595D01*
X108897468Y-86602602D01*
X108717877Y-86836649D01*
X108570374Y-87092132D01*
X108570370Y-87092142D01*
X108457480Y-87364681D01*
X108457477Y-87364691D01*
X108381124Y-87649647D01*
X108381122Y-87649658D01*
X108342616Y-87942129D01*
X43021616Y-87942129D01*
X43021616Y-85423681D01*
X105182616Y-85423681D01*
X105182616Y-85675604D01*
X105222026Y-85924428D01*
X105299876Y-86164026D01*
X105414248Y-86388491D01*
X105562317Y-86592292D01*
X105562321Y-86592297D01*
X105740461Y-86770437D01*
X105740466Y-86770441D01*
X105918233Y-86899595D01*
X105944271Y-86918513D01*
X106087300Y-86991390D01*
X106168732Y-87032882D01*
X106168734Y-87032882D01*
X106168737Y-87032884D01*
X106408331Y-87110733D01*
X106657154Y-87150143D01*
X106657155Y-87150143D01*
X106909077Y-87150143D01*
X106909078Y-87150143D01*
X107157901Y-87110733D01*
X107397495Y-87032884D01*
X107621961Y-86918513D01*
X107825772Y-86770436D01*
X108003909Y-86592299D01*
X108151986Y-86388488D01*
X108266357Y-86164022D01*
X108344206Y-85924428D01*
X108383616Y-85675605D01*
X108383616Y-85423681D01*
X108344206Y-85174858D01*
X108266357Y-84935264D01*
X108266355Y-84935261D01*
X108266355Y-84935259D01*
X108224863Y-84853827D01*
X108151986Y-84710798D01*
X108049869Y-84570245D01*
X108003914Y-84506993D01*
X108003910Y-84506988D01*
X107825770Y-84328848D01*
X107825765Y-84328844D01*
X107621964Y-84180775D01*
X107621963Y-84180774D01*
X107621961Y-84180773D01*
X107551863Y-84145056D01*
X107397499Y-84066403D01*
X107157901Y-83988553D01*
X106909078Y-83949143D01*
X106657154Y-83949143D01*
X106532742Y-83968848D01*
X106408330Y-83988553D01*
X106168732Y-84066403D01*
X105944267Y-84180775D01*
X105740466Y-84328844D01*
X105740461Y-84328848D01*
X105562321Y-84506988D01*
X105562317Y-84506993D01*
X105414248Y-84710794D01*
X105299876Y-84935259D01*
X105222026Y-85174857D01*
X105182616Y-85423681D01*
X43021616Y-85423681D01*
X43021616Y-82883714D01*
X111533116Y-82883714D01*
X111533116Y-83135571D01*
X111572513Y-83384312D01*
X111650335Y-83623827D01*
X111764673Y-83848226D01*
X111838864Y-83950340D01*
X111838864Y-83950341D01*
X112455537Y-83333667D01*
X112468475Y-83364901D01*
X112550553Y-83487740D01*
X112655019Y-83592206D01*
X112777858Y-83674284D01*
X112809090Y-83687220D01*
X112192416Y-84303893D01*
X112294532Y-84378085D01*
X112518931Y-84492423D01*
X112758446Y-84570245D01*
X113007188Y-84609643D01*
X113259044Y-84609643D01*
X113507785Y-84570245D01*
X113747300Y-84492423D01*
X113971691Y-84378089D01*
X113971697Y-84378085D01*
X114073813Y-84303893D01*
X114073814Y-84303893D01*
X113457141Y-83687221D01*
X113488374Y-83674284D01*
X113611213Y-83592206D01*
X113715679Y-83487740D01*
X113797757Y-83364901D01*
X113810693Y-83333668D01*
X114427366Y-83950341D01*
X114427366Y-83950340D01*
X114501558Y-83848224D01*
X114501562Y-83848218D01*
X114615896Y-83623827D01*
X114693718Y-83384312D01*
X114733116Y-83135571D01*
X114733116Y-82883714D01*
X114693718Y-82634973D01*
X114615896Y-82395458D01*
X114501558Y-82171059D01*
X114427366Y-82068944D01*
X114427366Y-82068943D01*
X113810693Y-82685616D01*
X113797757Y-82654385D01*
X113715679Y-82531546D01*
X113611213Y-82427080D01*
X113488374Y-82345002D01*
X113457140Y-82332064D01*
X114073814Y-81715391D01*
X113971699Y-81641200D01*
X113747300Y-81526862D01*
X113507785Y-81449040D01*
X113259044Y-81409643D01*
X113007188Y-81409643D01*
X112758446Y-81449040D01*
X112518931Y-81526862D01*
X112294529Y-81641202D01*
X112192417Y-81715390D01*
X112192416Y-81715391D01*
X112809090Y-82332064D01*
X112777858Y-82345002D01*
X112655019Y-82427080D01*
X112550553Y-82531546D01*
X112468475Y-82654385D01*
X112455537Y-82685617D01*
X111838864Y-82068943D01*
X111838863Y-82068944D01*
X111764675Y-82171056D01*
X111650335Y-82395458D01*
X111572513Y-82634973D01*
X111533116Y-82883714D01*
X43021616Y-82883714D01*
X43021616Y-78417129D01*
X51192616Y-78417129D01*
X51192616Y-78712156D01*
X51224687Y-78955756D01*
X51231123Y-79004636D01*
X51231124Y-79004638D01*
X51307477Y-79289594D01*
X51307480Y-79289604D01*
X51420370Y-79562143D01*
X51420374Y-79562153D01*
X51567877Y-79817636D01*
X51747468Y-80051683D01*
X51747474Y-80051690D01*
X51956068Y-80260284D01*
X51956075Y-80260290D01*
X52190122Y-80439881D01*
X52445605Y-80587384D01*
X52445606Y-80587384D01*
X52445609Y-80587386D01*
X52718164Y-80700282D01*
X53003123Y-80776636D01*
X53295610Y-80815143D01*
X53295617Y-80815143D01*
X53590615Y-80815143D01*
X53590622Y-80815143D01*
X53883109Y-80776636D01*
X54168068Y-80700282D01*
X54440623Y-80587386D01*
X54696110Y-80439881D01*
X54930158Y-80260289D01*
X55138762Y-80051685D01*
X55318354Y-79817637D01*
X55465859Y-79562150D01*
X55578755Y-79289595D01*
X55655109Y-79004636D01*
X55693616Y-78712149D01*
X55693616Y-78417137D01*
X55693615Y-78417129D01*
X70242616Y-78417129D01*
X70242616Y-78712156D01*
X70274687Y-78955756D01*
X70281123Y-79004636D01*
X70281124Y-79004638D01*
X70357477Y-79289594D01*
X70357480Y-79289604D01*
X70470370Y-79562143D01*
X70470374Y-79562153D01*
X70617877Y-79817636D01*
X70797468Y-80051683D01*
X70797474Y-80051690D01*
X71006068Y-80260284D01*
X71006075Y-80260290D01*
X71240122Y-80439881D01*
X71495605Y-80587384D01*
X71495606Y-80587384D01*
X71495609Y-80587386D01*
X71768164Y-80700282D01*
X72053123Y-80776636D01*
X72345610Y-80815143D01*
X72345617Y-80815143D01*
X72640615Y-80815143D01*
X72640622Y-80815143D01*
X72933109Y-80776636D01*
X73218068Y-80700282D01*
X73490623Y-80587386D01*
X73746110Y-80439881D01*
X73980158Y-80260289D01*
X74188762Y-80051685D01*
X74368354Y-79817637D01*
X74515859Y-79562150D01*
X74628755Y-79289595D01*
X74705109Y-79004636D01*
X74743616Y-78712149D01*
X74743616Y-78417137D01*
X74743615Y-78417129D01*
X89292616Y-78417129D01*
X89292616Y-78712156D01*
X89324687Y-78955756D01*
X89331123Y-79004636D01*
X89331124Y-79004638D01*
X89407477Y-79289594D01*
X89407480Y-79289604D01*
X89520370Y-79562143D01*
X89520374Y-79562153D01*
X89667877Y-79817636D01*
X89847468Y-80051683D01*
X89847474Y-80051690D01*
X90056068Y-80260284D01*
X90056075Y-80260290D01*
X90290122Y-80439881D01*
X90545605Y-80587384D01*
X90545606Y-80587384D01*
X90545609Y-80587386D01*
X90818164Y-80700282D01*
X91103123Y-80776636D01*
X91395610Y-80815143D01*
X91395617Y-80815143D01*
X91690615Y-80815143D01*
X91690622Y-80815143D01*
X91983109Y-80776636D01*
X92268068Y-80700282D01*
X92540623Y-80587386D01*
X92796110Y-80439881D01*
X93030158Y-80260289D01*
X93238762Y-80051685D01*
X93418354Y-79817637D01*
X93565859Y-79562150D01*
X93678755Y-79289595D01*
X93755109Y-79004636D01*
X93793616Y-78712149D01*
X93793616Y-78417137D01*
X93755109Y-78124650D01*
X93678755Y-77839691D01*
X93565859Y-77567136D01*
X93418354Y-77311649D01*
X93238762Y-77077601D01*
X93238757Y-77077595D01*
X93030163Y-76869001D01*
X93030156Y-76868995D01*
X92796109Y-76689404D01*
X92540626Y-76541901D01*
X92540616Y-76541897D01*
X92268077Y-76429007D01*
X92268070Y-76429005D01*
X92268068Y-76429004D01*
X91983109Y-76352650D01*
X91934229Y-76346214D01*
X91690629Y-76314143D01*
X91690622Y-76314143D01*
X91395610Y-76314143D01*
X91395602Y-76314143D01*
X91117201Y-76350796D01*
X91103123Y-76352650D01*
X90928544Y-76399428D01*
X90818164Y-76429004D01*
X90818154Y-76429007D01*
X90545615Y-76541897D01*
X90545605Y-76541901D01*
X90290122Y-76689404D01*
X90056075Y-76868995D01*
X90056068Y-76869001D01*
X89847474Y-77077595D01*
X89847468Y-77077602D01*
X89667877Y-77311649D01*
X89520374Y-77567132D01*
X89520370Y-77567142D01*
X89407480Y-77839681D01*
X89407477Y-77839691D01*
X89331124Y-78124647D01*
X89331122Y-78124658D01*
X89292616Y-78417129D01*
X74743615Y-78417129D01*
X74705109Y-78124650D01*
X74628755Y-77839691D01*
X74515859Y-77567136D01*
X74368354Y-77311649D01*
X74188762Y-77077601D01*
X74188757Y-77077595D01*
X73980163Y-76869001D01*
X73980156Y-76868995D01*
X73746109Y-76689404D01*
X73490626Y-76541901D01*
X73490616Y-76541897D01*
X73218077Y-76429007D01*
X73218070Y-76429005D01*
X73218068Y-76429004D01*
X72933109Y-76352650D01*
X72884229Y-76346214D01*
X72640629Y-76314143D01*
X72640622Y-76314143D01*
X72345610Y-76314143D01*
X72345602Y-76314143D01*
X72067201Y-76350796D01*
X72053123Y-76352650D01*
X71878544Y-76399428D01*
X71768164Y-76429004D01*
X71768154Y-76429007D01*
X71495615Y-76541897D01*
X71495605Y-76541901D01*
X71240122Y-76689404D01*
X71006075Y-76868995D01*
X71006068Y-76869001D01*
X70797474Y-77077595D01*
X70797468Y-77077602D01*
X70617877Y-77311649D01*
X70470374Y-77567132D01*
X70470370Y-77567142D01*
X70357480Y-77839681D01*
X70357477Y-77839691D01*
X70281124Y-78124647D01*
X70281122Y-78124658D01*
X70242616Y-78417129D01*
X55693615Y-78417129D01*
X55655109Y-78124650D01*
X55578755Y-77839691D01*
X55465859Y-77567136D01*
X55318354Y-77311649D01*
X55138762Y-77077601D01*
X55138757Y-77077595D01*
X54930163Y-76869001D01*
X54930156Y-76868995D01*
X54696109Y-76689404D01*
X54440626Y-76541901D01*
X54440616Y-76541897D01*
X54168077Y-76429007D01*
X54168070Y-76429005D01*
X54168068Y-76429004D01*
X53883109Y-76352650D01*
X53834229Y-76346214D01*
X53590629Y-76314143D01*
X53590622Y-76314143D01*
X53295610Y-76314143D01*
X53295602Y-76314143D01*
X53017201Y-76350796D01*
X53003123Y-76352650D01*
X52828544Y-76399428D01*
X52718164Y-76429004D01*
X52718154Y-76429007D01*
X52445615Y-76541897D01*
X52445605Y-76541901D01*
X52190122Y-76689404D01*
X51956075Y-76868995D01*
X51956068Y-76869001D01*
X51747474Y-77077595D01*
X51747468Y-77077602D01*
X51567877Y-77311649D01*
X51420374Y-77567132D01*
X51420370Y-77567142D01*
X51307480Y-77839681D01*
X51307477Y-77839691D01*
X51231124Y-78124647D01*
X51231122Y-78124658D01*
X51192616Y-78417129D01*
X43021616Y-78417129D01*
X43021616Y-75898681D01*
X48032616Y-75898681D01*
X48032616Y-76150604D01*
X48072026Y-76399428D01*
X48149876Y-76639026D01*
X48264248Y-76863491D01*
X48412317Y-77067292D01*
X48412321Y-77067297D01*
X48590461Y-77245437D01*
X48590466Y-77245441D01*
X48768233Y-77374595D01*
X48794271Y-77393513D01*
X48937300Y-77466390D01*
X49018732Y-77507882D01*
X49018734Y-77507882D01*
X49018737Y-77507884D01*
X49258331Y-77585733D01*
X49507154Y-77625143D01*
X49507155Y-77625143D01*
X49759077Y-77625143D01*
X49759078Y-77625143D01*
X50007901Y-77585733D01*
X50247495Y-77507884D01*
X50471961Y-77393513D01*
X50675772Y-77245436D01*
X50853909Y-77067299D01*
X51001986Y-76863488D01*
X51116357Y-76639022D01*
X51194206Y-76399428D01*
X51233616Y-76150605D01*
X51233616Y-75898681D01*
X67082616Y-75898681D01*
X67082616Y-76150604D01*
X67122026Y-76399428D01*
X67199876Y-76639026D01*
X67314248Y-76863491D01*
X67462317Y-77067292D01*
X67462321Y-77067297D01*
X67640461Y-77245437D01*
X67640466Y-77245441D01*
X67818233Y-77374595D01*
X67844271Y-77393513D01*
X67987300Y-77466390D01*
X68068732Y-77507882D01*
X68068734Y-77507882D01*
X68068737Y-77507884D01*
X68308331Y-77585733D01*
X68557154Y-77625143D01*
X68557155Y-77625143D01*
X68809077Y-77625143D01*
X68809078Y-77625143D01*
X69057901Y-77585733D01*
X69297495Y-77507884D01*
X69521961Y-77393513D01*
X69725772Y-77245436D01*
X69903909Y-77067299D01*
X70051986Y-76863488D01*
X70166357Y-76639022D01*
X70244206Y-76399428D01*
X70283616Y-76150605D01*
X70283616Y-75898681D01*
X86132616Y-75898681D01*
X86132616Y-76150604D01*
X86172026Y-76399428D01*
X86249876Y-76639026D01*
X86364248Y-76863491D01*
X86512317Y-77067292D01*
X86512321Y-77067297D01*
X86690461Y-77245437D01*
X86690466Y-77245441D01*
X86868233Y-77374595D01*
X86894271Y-77393513D01*
X87037300Y-77466390D01*
X87118732Y-77507882D01*
X87118734Y-77507882D01*
X87118737Y-77507884D01*
X87358331Y-77585733D01*
X87607154Y-77625143D01*
X87607155Y-77625143D01*
X87859077Y-77625143D01*
X87859078Y-77625143D01*
X88107901Y-77585733D01*
X88347495Y-77507884D01*
X88571961Y-77393513D01*
X88775772Y-77245436D01*
X88953909Y-77067299D01*
X89101986Y-76863488D01*
X89216357Y-76639022D01*
X89294206Y-76399428D01*
X89333616Y-76150605D01*
X89333616Y-75898681D01*
X89294206Y-75649858D01*
X89216357Y-75410264D01*
X89216355Y-75410261D01*
X89216355Y-75410259D01*
X89174863Y-75328827D01*
X89101986Y-75185798D01*
X88999869Y-75045245D01*
X88953914Y-74981993D01*
X88953910Y-74981988D01*
X88775770Y-74803848D01*
X88775765Y-74803844D01*
X88571964Y-74655775D01*
X88571963Y-74655774D01*
X88571961Y-74655773D01*
X88501863Y-74620056D01*
X88347499Y-74541403D01*
X88107901Y-74463553D01*
X87859078Y-74424143D01*
X87607154Y-74424143D01*
X87482742Y-74443848D01*
X87358330Y-74463553D01*
X87118732Y-74541403D01*
X86894267Y-74655775D01*
X86690466Y-74803844D01*
X86690461Y-74803848D01*
X86512321Y-74981988D01*
X86512317Y-74981993D01*
X86364248Y-75185794D01*
X86249876Y-75410259D01*
X86172026Y-75649857D01*
X86132616Y-75898681D01*
X70283616Y-75898681D01*
X70244206Y-75649858D01*
X70166357Y-75410264D01*
X70166355Y-75410261D01*
X70166355Y-75410259D01*
X70124863Y-75328827D01*
X70051986Y-75185798D01*
X69949869Y-75045245D01*
X69903914Y-74981993D01*
X69903910Y-74981988D01*
X69725770Y-74803848D01*
X69725765Y-74803844D01*
X69521964Y-74655775D01*
X69521963Y-74655774D01*
X69521961Y-74655773D01*
X69451863Y-74620056D01*
X69297499Y-74541403D01*
X69057901Y-74463553D01*
X68809078Y-74424143D01*
X68557154Y-74424143D01*
X68432742Y-74443848D01*
X68308330Y-74463553D01*
X68068732Y-74541403D01*
X67844267Y-74655775D01*
X67640466Y-74803844D01*
X67640461Y-74803848D01*
X67462321Y-74981988D01*
X67462317Y-74981993D01*
X67314248Y-75185794D01*
X67199876Y-75410259D01*
X67122026Y-75649857D01*
X67082616Y-75898681D01*
X51233616Y-75898681D01*
X51194206Y-75649858D01*
X51116357Y-75410264D01*
X51116355Y-75410261D01*
X51116355Y-75410259D01*
X51074863Y-75328827D01*
X51001986Y-75185798D01*
X50899869Y-75045245D01*
X50853914Y-74981993D01*
X50853910Y-74981988D01*
X50675770Y-74803848D01*
X50675765Y-74803844D01*
X50471964Y-74655775D01*
X50471963Y-74655774D01*
X50471961Y-74655773D01*
X50401863Y-74620056D01*
X50247499Y-74541403D01*
X50007901Y-74463553D01*
X49759078Y-74424143D01*
X49507154Y-74424143D01*
X49382742Y-74443848D01*
X49258330Y-74463553D01*
X49018732Y-74541403D01*
X48794267Y-74655775D01*
X48590466Y-74803844D01*
X48590461Y-74803848D01*
X48412321Y-74981988D01*
X48412317Y-74981993D01*
X48264248Y-75185794D01*
X48149876Y-75410259D01*
X48072026Y-75649857D01*
X48032616Y-75898681D01*
X43021616Y-75898681D01*
X43021616Y-73358714D01*
X54383116Y-73358714D01*
X54383116Y-73610571D01*
X54422513Y-73859312D01*
X54500335Y-74098827D01*
X54614673Y-74323226D01*
X54688864Y-74425340D01*
X54688864Y-74425341D01*
X55305537Y-73808667D01*
X55318475Y-73839901D01*
X55400553Y-73962740D01*
X55505019Y-74067206D01*
X55627858Y-74149284D01*
X55659090Y-74162220D01*
X55042416Y-74778893D01*
X55144532Y-74853085D01*
X55368931Y-74967423D01*
X55608446Y-75045245D01*
X55857188Y-75084643D01*
X56109044Y-75084643D01*
X56357785Y-75045245D01*
X56597300Y-74967423D01*
X56821691Y-74853089D01*
X56821697Y-74853085D01*
X56923813Y-74778893D01*
X56923814Y-74778893D01*
X56307141Y-74162221D01*
X56338374Y-74149284D01*
X56461213Y-74067206D01*
X56565679Y-73962740D01*
X56647757Y-73839901D01*
X56660693Y-73808668D01*
X57277366Y-74425341D01*
X57277366Y-74425340D01*
X57351558Y-74323224D01*
X57351562Y-74323218D01*
X57465896Y-74098827D01*
X57543718Y-73859312D01*
X57583116Y-73610571D01*
X57583116Y-73358714D01*
X73433116Y-73358714D01*
X73433116Y-73610571D01*
X73472513Y-73859312D01*
X73550335Y-74098827D01*
X73664673Y-74323226D01*
X73738864Y-74425340D01*
X73738864Y-74425341D01*
X74355537Y-73808667D01*
X74368475Y-73839901D01*
X74450553Y-73962740D01*
X74555019Y-74067206D01*
X74677858Y-74149284D01*
X74709090Y-74162220D01*
X74092416Y-74778893D01*
X74194532Y-74853085D01*
X74418931Y-74967423D01*
X74658446Y-75045245D01*
X74907188Y-75084643D01*
X75159044Y-75084643D01*
X75407785Y-75045245D01*
X75647300Y-74967423D01*
X75871691Y-74853089D01*
X75871697Y-74853085D01*
X75973813Y-74778893D01*
X75973814Y-74778893D01*
X75357141Y-74162221D01*
X75388374Y-74149284D01*
X75511213Y-74067206D01*
X75615679Y-73962740D01*
X75697757Y-73839901D01*
X75710693Y-73808668D01*
X76327366Y-74425341D01*
X76327366Y-74425340D01*
X76401558Y-74323224D01*
X76401562Y-74323218D01*
X76515896Y-74098827D01*
X76593718Y-73859312D01*
X76633116Y-73610571D01*
X76633116Y-73358714D01*
X92483116Y-73358714D01*
X92483116Y-73610571D01*
X92522513Y-73859312D01*
X92600335Y-74098827D01*
X92714673Y-74323226D01*
X92788864Y-74425340D01*
X92788864Y-74425341D01*
X93405537Y-73808667D01*
X93418475Y-73839901D01*
X93500553Y-73962740D01*
X93605019Y-74067206D01*
X93727858Y-74149284D01*
X93759090Y-74162220D01*
X93142416Y-74778893D01*
X93244532Y-74853085D01*
X93468931Y-74967423D01*
X93708446Y-75045245D01*
X93957188Y-75084643D01*
X94209044Y-75084643D01*
X94457785Y-75045245D01*
X94697300Y-74967423D01*
X94921691Y-74853089D01*
X94921697Y-74853085D01*
X95023813Y-74778893D01*
X95023814Y-74778893D01*
X94407141Y-74162221D01*
X94438374Y-74149284D01*
X94561213Y-74067206D01*
X94665679Y-73962740D01*
X94747757Y-73839901D01*
X94760693Y-73808668D01*
X95377366Y-74425341D01*
X95377366Y-74425340D01*
X95451558Y-74323224D01*
X95451562Y-74323218D01*
X95565896Y-74098827D01*
X95643718Y-73859312D01*
X95683116Y-73610571D01*
X95683116Y-73358714D01*
X95643718Y-73109973D01*
X95565896Y-72870458D01*
X95451558Y-72646059D01*
X95377366Y-72543944D01*
X95377366Y-72543943D01*
X94760693Y-73160616D01*
X94747757Y-73129385D01*
X94665679Y-73006546D01*
X94561213Y-72902080D01*
X94438374Y-72820002D01*
X94407140Y-72807064D01*
X95023814Y-72190391D01*
X94921699Y-72116200D01*
X94697300Y-72001862D01*
X94457785Y-71924040D01*
X94209044Y-71884643D01*
X93957188Y-71884643D01*
X93708446Y-71924040D01*
X93468931Y-72001862D01*
X93244529Y-72116202D01*
X93142417Y-72190390D01*
X93142416Y-72190391D01*
X93759090Y-72807064D01*
X93727858Y-72820002D01*
X93605019Y-72902080D01*
X93500553Y-73006546D01*
X93418475Y-73129385D01*
X93405537Y-73160617D01*
X92788864Y-72543943D01*
X92788863Y-72543944D01*
X92714675Y-72646056D01*
X92600335Y-72870458D01*
X92522513Y-73109973D01*
X92483116Y-73358714D01*
X76633116Y-73358714D01*
X76593718Y-73109973D01*
X76515896Y-72870458D01*
X76401558Y-72646059D01*
X76327366Y-72543944D01*
X76327366Y-72543943D01*
X75710693Y-73160616D01*
X75697757Y-73129385D01*
X75615679Y-73006546D01*
X75511213Y-72902080D01*
X75388374Y-72820002D01*
X75357140Y-72807064D01*
X75973814Y-72190391D01*
X75871699Y-72116200D01*
X75647300Y-72001862D01*
X75407785Y-71924040D01*
X75159044Y-71884643D01*
X74907188Y-71884643D01*
X74658446Y-71924040D01*
X74418931Y-72001862D01*
X74194529Y-72116202D01*
X74092417Y-72190390D01*
X74092416Y-72190391D01*
X74709090Y-72807064D01*
X74677858Y-72820002D01*
X74555019Y-72902080D01*
X74450553Y-73006546D01*
X74368475Y-73129385D01*
X74355537Y-73160617D01*
X73738864Y-72543943D01*
X73738863Y-72543944D01*
X73664675Y-72646056D01*
X73550335Y-72870458D01*
X73472513Y-73109973D01*
X73433116Y-73358714D01*
X57583116Y-73358714D01*
X57543718Y-73109973D01*
X57465896Y-72870458D01*
X57351558Y-72646059D01*
X57277366Y-72543944D01*
X57277366Y-72543943D01*
X56660693Y-73160616D01*
X56647757Y-73129385D01*
X56565679Y-73006546D01*
X56461213Y-72902080D01*
X56338374Y-72820002D01*
X56307140Y-72807064D01*
X56923814Y-72190391D01*
X56821699Y-72116200D01*
X56597300Y-72001862D01*
X56357785Y-71924040D01*
X56109044Y-71884643D01*
X55857188Y-71884643D01*
X55608446Y-71924040D01*
X55368931Y-72001862D01*
X55144529Y-72116202D01*
X55042417Y-72190390D01*
X55042416Y-72190391D01*
X55659090Y-72807064D01*
X55627858Y-72820002D01*
X55505019Y-72902080D01*
X55400553Y-73006546D01*
X55318475Y-73129385D01*
X55305537Y-73160617D01*
X54688864Y-72543943D01*
X54688863Y-72543944D01*
X54614675Y-72646056D01*
X54500335Y-72870458D01*
X54422513Y-73109973D01*
X54383116Y-73358714D01*
X43021616Y-73358714D01*
X43021616Y-48415302D01*
X43958000Y-48415302D01*
X43958000Y-48612697D01*
X43988876Y-48807646D01*
X44049873Y-48995373D01*
X44139483Y-49171239D01*
X44165457Y-49206988D01*
X44165457Y-49206989D01*
X44729037Y-48643409D01*
X44746075Y-48706993D01*
X44811901Y-48821007D01*
X44904993Y-48914099D01*
X45019007Y-48979925D01*
X45082589Y-48996962D01*
X44519009Y-49560541D01*
X44519010Y-49560542D01*
X44554755Y-49586512D01*
X44554768Y-49586520D01*
X44730626Y-49676126D01*
X44918353Y-49737123D01*
X45113303Y-49768000D01*
X45310697Y-49768000D01*
X45505647Y-49737122D01*
X45505653Y-49737121D01*
X45534180Y-49727852D01*
X45604021Y-49725855D01*
X45663854Y-49761934D01*
X45694683Y-49824635D01*
X45696500Y-49845782D01*
X45696500Y-64470796D01*
X45676815Y-64537835D01*
X45663597Y-64554237D01*
X45663750Y-64554368D01*
X45660588Y-64558070D01*
X45660586Y-64558072D01*
X45626009Y-64605663D01*
X45558768Y-64698211D01*
X45480128Y-64852552D01*
X45426597Y-65017302D01*
X45399500Y-65188389D01*
X45399500Y-65911611D01*
X45426598Y-66082701D01*
X45480127Y-66247445D01*
X45558768Y-66401788D01*
X45660586Y-66541928D01*
X45783072Y-66664414D01*
X45923212Y-66766232D01*
X46077555Y-66844873D01*
X46242299Y-66898402D01*
X46413389Y-66925500D01*
X46413390Y-66925500D01*
X46586610Y-66925500D01*
X46586611Y-66925500D01*
X46757701Y-66898402D01*
X46922445Y-66844873D01*
X47076788Y-66766232D01*
X47216928Y-66664414D01*
X47324472Y-66556869D01*
X47385791Y-66523387D01*
X47455483Y-66528371D01*
X47511417Y-66570242D01*
X47517688Y-66579456D01*
X47557285Y-66643652D01*
X47557288Y-66643656D01*
X47681344Y-66767712D01*
X47830666Y-66859814D01*
X47997203Y-66914999D01*
X48099991Y-66925500D01*
X48900008Y-66925499D01*
X48900016Y-66925498D01*
X48900019Y-66925498D01*
X48956302Y-66919748D01*
X49002797Y-66914999D01*
X49169334Y-66859814D01*
X49318656Y-66767712D01*
X49442712Y-66643656D01*
X49534814Y-66494334D01*
X49589999Y-66327797D01*
X49600500Y-66225009D01*
X49600499Y-64874992D01*
X49589999Y-64772203D01*
X49534814Y-64605666D01*
X49442712Y-64456344D01*
X49318656Y-64332288D01*
X49169334Y-64240186D01*
X49002797Y-64185001D01*
X49002795Y-64185000D01*
X48900016Y-64174500D01*
X48900009Y-64174500D01*
X48824500Y-64174500D01*
X48757461Y-64154815D01*
X48711706Y-64102011D01*
X48700500Y-64050500D01*
X48700500Y-59367129D01*
X51192616Y-59367129D01*
X51192616Y-59662156D01*
X51224687Y-59905756D01*
X51231123Y-59954636D01*
X51231124Y-59954638D01*
X51307477Y-60239594D01*
X51307480Y-60239604D01*
X51420370Y-60512143D01*
X51420374Y-60512153D01*
X51567877Y-60767636D01*
X51747468Y-61001683D01*
X51747474Y-61001690D01*
X51956068Y-61210284D01*
X51956075Y-61210290D01*
X52190122Y-61389881D01*
X52445605Y-61537384D01*
X52445606Y-61537384D01*
X52445609Y-61537386D01*
X52718164Y-61650282D01*
X53003123Y-61726636D01*
X53295610Y-61765143D01*
X53295617Y-61765143D01*
X53590615Y-61765143D01*
X53590622Y-61765143D01*
X53883109Y-61726636D01*
X54168068Y-61650282D01*
X54440623Y-61537386D01*
X54696110Y-61389881D01*
X54930158Y-61210289D01*
X55138762Y-61001685D01*
X55318354Y-60767637D01*
X55465859Y-60512150D01*
X55578755Y-60239595D01*
X55655109Y-59954636D01*
X55693616Y-59662149D01*
X55693616Y-59367137D01*
X55693615Y-59367129D01*
X70242616Y-59367129D01*
X70242616Y-59662156D01*
X70274687Y-59905756D01*
X70281123Y-59954636D01*
X70281124Y-59954638D01*
X70357477Y-60239594D01*
X70357480Y-60239604D01*
X70470370Y-60512143D01*
X70470374Y-60512153D01*
X70617877Y-60767636D01*
X70797468Y-61001683D01*
X70797474Y-61001690D01*
X71006068Y-61210284D01*
X71006075Y-61210290D01*
X71240122Y-61389881D01*
X71495605Y-61537384D01*
X71495606Y-61537384D01*
X71495609Y-61537386D01*
X71768164Y-61650282D01*
X72053123Y-61726636D01*
X72345610Y-61765143D01*
X72345617Y-61765143D01*
X72640615Y-61765143D01*
X72640622Y-61765143D01*
X72933109Y-61726636D01*
X73218068Y-61650282D01*
X73490623Y-61537386D01*
X73746110Y-61389881D01*
X73980158Y-61210289D01*
X74188762Y-61001685D01*
X74368354Y-60767637D01*
X74515859Y-60512150D01*
X74628755Y-60239595D01*
X74705109Y-59954636D01*
X74743616Y-59662149D01*
X74743616Y-59367137D01*
X74743615Y-59367129D01*
X89292616Y-59367129D01*
X89292616Y-59662156D01*
X89324687Y-59905756D01*
X89331123Y-59954636D01*
X89331124Y-59954638D01*
X89407477Y-60239594D01*
X89407480Y-60239604D01*
X89520370Y-60512143D01*
X89520374Y-60512153D01*
X89667877Y-60767636D01*
X89847468Y-61001683D01*
X89847474Y-61001690D01*
X90056068Y-61210284D01*
X90056075Y-61210290D01*
X90290122Y-61389881D01*
X90545605Y-61537384D01*
X90545606Y-61537384D01*
X90545609Y-61537386D01*
X90818164Y-61650282D01*
X91103123Y-61726636D01*
X91395610Y-61765143D01*
X91395617Y-61765143D01*
X91690615Y-61765143D01*
X91690622Y-61765143D01*
X91983109Y-61726636D01*
X92268068Y-61650282D01*
X92540623Y-61537386D01*
X92796110Y-61389881D01*
X93030158Y-61210289D01*
X93238762Y-61001685D01*
X93418354Y-60767637D01*
X93565859Y-60512150D01*
X93678755Y-60239595D01*
X93755109Y-59954636D01*
X93793616Y-59662149D01*
X93793616Y-59367137D01*
X93793615Y-59367129D01*
X108342616Y-59367129D01*
X108342616Y-59662156D01*
X108374687Y-59905756D01*
X108381123Y-59954636D01*
X108381124Y-59954638D01*
X108457477Y-60239594D01*
X108457480Y-60239604D01*
X108570370Y-60512143D01*
X108570374Y-60512153D01*
X108717877Y-60767636D01*
X108897468Y-61001683D01*
X108897474Y-61001690D01*
X109106068Y-61210284D01*
X109106075Y-61210290D01*
X109340122Y-61389881D01*
X109595605Y-61537384D01*
X109595606Y-61537384D01*
X109595609Y-61537386D01*
X109868164Y-61650282D01*
X110153123Y-61726636D01*
X110445610Y-61765143D01*
X110445617Y-61765143D01*
X110740615Y-61765143D01*
X110740622Y-61765143D01*
X111033109Y-61726636D01*
X111318068Y-61650282D01*
X111590623Y-61537386D01*
X111846110Y-61389881D01*
X112080158Y-61210289D01*
X112288762Y-61001685D01*
X112468354Y-60767637D01*
X112615859Y-60512150D01*
X112728755Y-60239595D01*
X112805109Y-59954636D01*
X112843616Y-59662149D01*
X112843616Y-59367137D01*
X112805109Y-59074650D01*
X112728755Y-58789691D01*
X112615859Y-58517136D01*
X112604859Y-58498084D01*
X112468354Y-58261649D01*
X112288763Y-58027602D01*
X112288757Y-58027595D01*
X112080163Y-57819001D01*
X112080156Y-57818995D01*
X111846109Y-57639404D01*
X111590626Y-57491901D01*
X111590616Y-57491897D01*
X111318077Y-57379007D01*
X111318070Y-57379005D01*
X111318068Y-57379004D01*
X111033109Y-57302650D01*
X110984229Y-57296214D01*
X110740629Y-57264143D01*
X110740622Y-57264143D01*
X110445610Y-57264143D01*
X110445602Y-57264143D01*
X110167201Y-57300796D01*
X110153123Y-57302650D01*
X109978544Y-57349428D01*
X109868164Y-57379004D01*
X109868154Y-57379007D01*
X109595615Y-57491897D01*
X109595605Y-57491901D01*
X109340122Y-57639404D01*
X109106075Y-57818995D01*
X109106068Y-57819001D01*
X108897474Y-58027595D01*
X108897468Y-58027602D01*
X108717877Y-58261649D01*
X108570374Y-58517132D01*
X108570370Y-58517142D01*
X108457480Y-58789681D01*
X108457477Y-58789691D01*
X108381124Y-59074647D01*
X108381122Y-59074658D01*
X108342616Y-59367129D01*
X93793615Y-59367129D01*
X93755109Y-59074650D01*
X93678755Y-58789691D01*
X93565859Y-58517136D01*
X93554859Y-58498084D01*
X93418354Y-58261649D01*
X93238763Y-58027602D01*
X93238757Y-58027595D01*
X93030163Y-57819001D01*
X93030156Y-57818995D01*
X92796109Y-57639404D01*
X92540626Y-57491901D01*
X92540616Y-57491897D01*
X92268077Y-57379007D01*
X92268070Y-57379005D01*
X92268068Y-57379004D01*
X91983109Y-57302650D01*
X91934229Y-57296214D01*
X91690629Y-57264143D01*
X91690622Y-57264143D01*
X91395610Y-57264143D01*
X91395602Y-57264143D01*
X91117201Y-57300796D01*
X91103123Y-57302650D01*
X90928544Y-57349428D01*
X90818164Y-57379004D01*
X90818154Y-57379007D01*
X90545615Y-57491897D01*
X90545605Y-57491901D01*
X90290122Y-57639404D01*
X90056075Y-57818995D01*
X90056068Y-57819001D01*
X89847474Y-58027595D01*
X89847468Y-58027602D01*
X89667877Y-58261649D01*
X89520374Y-58517132D01*
X89520370Y-58517142D01*
X89407480Y-58789681D01*
X89407477Y-58789691D01*
X89331124Y-59074647D01*
X89331122Y-59074658D01*
X89292616Y-59367129D01*
X74743615Y-59367129D01*
X74705109Y-59074650D01*
X74628755Y-58789691D01*
X74515859Y-58517136D01*
X74504859Y-58498084D01*
X74368354Y-58261649D01*
X74188763Y-58027602D01*
X74188757Y-58027595D01*
X73980163Y-57819001D01*
X73980156Y-57818995D01*
X73746109Y-57639404D01*
X73490626Y-57491901D01*
X73490616Y-57491897D01*
X73218077Y-57379007D01*
X73218070Y-57379005D01*
X73218068Y-57379004D01*
X72933109Y-57302650D01*
X72884229Y-57296214D01*
X72640629Y-57264143D01*
X72640622Y-57264143D01*
X72345610Y-57264143D01*
X72345602Y-57264143D01*
X72067201Y-57300796D01*
X72053123Y-57302650D01*
X71878544Y-57349428D01*
X71768164Y-57379004D01*
X71768154Y-57379007D01*
X71495615Y-57491897D01*
X71495605Y-57491901D01*
X71240122Y-57639404D01*
X71006075Y-57818995D01*
X71006068Y-57819001D01*
X70797474Y-58027595D01*
X70797468Y-58027602D01*
X70617877Y-58261649D01*
X70470374Y-58517132D01*
X70470370Y-58517142D01*
X70357480Y-58789681D01*
X70357477Y-58789691D01*
X70281124Y-59074647D01*
X70281122Y-59074658D01*
X70242616Y-59367129D01*
X55693615Y-59367129D01*
X55655109Y-59074650D01*
X55578755Y-58789691D01*
X55465859Y-58517136D01*
X55454859Y-58498084D01*
X55318354Y-58261649D01*
X55138763Y-58027602D01*
X55138757Y-58027595D01*
X54930163Y-57819001D01*
X54930156Y-57818995D01*
X54696109Y-57639404D01*
X54440626Y-57491901D01*
X54440616Y-57491897D01*
X54168077Y-57379007D01*
X54168070Y-57379005D01*
X54168068Y-57379004D01*
X53883109Y-57302650D01*
X53834229Y-57296214D01*
X53590629Y-57264143D01*
X53590622Y-57264143D01*
X53295610Y-57264143D01*
X53295602Y-57264143D01*
X53017201Y-57300796D01*
X53003123Y-57302650D01*
X52828544Y-57349428D01*
X52718164Y-57379004D01*
X52718154Y-57379007D01*
X52445615Y-57491897D01*
X52445605Y-57491901D01*
X52190122Y-57639404D01*
X51956075Y-57818995D01*
X51956068Y-57819001D01*
X51747474Y-58027595D01*
X51747468Y-58027602D01*
X51567877Y-58261649D01*
X51420374Y-58517132D01*
X51420370Y-58517142D01*
X51307480Y-58789681D01*
X51307477Y-58789691D01*
X51231124Y-59074647D01*
X51231122Y-59074658D01*
X51192616Y-59367129D01*
X48700500Y-59367129D01*
X48700500Y-58498084D01*
X48720185Y-58431045D01*
X48772989Y-58385290D01*
X48842147Y-58375346D01*
X48880795Y-58387599D01*
X49018732Y-58457882D01*
X49018734Y-58457882D01*
X49018737Y-58457884D01*
X49258331Y-58535733D01*
X49507154Y-58575143D01*
X49507155Y-58575143D01*
X49759077Y-58575143D01*
X49759078Y-58575143D01*
X50007901Y-58535733D01*
X50247495Y-58457884D01*
X50471961Y-58343513D01*
X50675772Y-58195436D01*
X50853909Y-58017299D01*
X51001986Y-57813488D01*
X51116357Y-57589022D01*
X51194206Y-57349428D01*
X51233616Y-57100605D01*
X51233616Y-56848681D01*
X67082616Y-56848681D01*
X67082616Y-57100604D01*
X67122026Y-57349428D01*
X67199876Y-57589026D01*
X67314248Y-57813491D01*
X67462317Y-58017292D01*
X67462321Y-58017297D01*
X67640461Y-58195437D01*
X67640466Y-58195441D01*
X67750499Y-58275384D01*
X67844271Y-58343513D01*
X67930795Y-58387599D01*
X68068732Y-58457882D01*
X68068734Y-58457882D01*
X68068737Y-58457884D01*
X68308331Y-58535733D01*
X68557154Y-58575143D01*
X68557155Y-58575143D01*
X68809077Y-58575143D01*
X68809078Y-58575143D01*
X69057901Y-58535733D01*
X69297495Y-58457884D01*
X69521961Y-58343513D01*
X69725772Y-58195436D01*
X69903909Y-58017299D01*
X70051986Y-57813488D01*
X70166357Y-57589022D01*
X70244206Y-57349428D01*
X70283616Y-57100605D01*
X70283616Y-56848681D01*
X86132616Y-56848681D01*
X86132616Y-57100604D01*
X86172026Y-57349428D01*
X86249876Y-57589026D01*
X86364248Y-57813491D01*
X86512317Y-58017292D01*
X86512321Y-58017297D01*
X86690461Y-58195437D01*
X86690466Y-58195441D01*
X86800499Y-58275384D01*
X86894271Y-58343513D01*
X86980795Y-58387599D01*
X87118732Y-58457882D01*
X87118734Y-58457882D01*
X87118737Y-58457884D01*
X87358331Y-58535733D01*
X87607154Y-58575143D01*
X87607155Y-58575143D01*
X87859077Y-58575143D01*
X87859078Y-58575143D01*
X88107901Y-58535733D01*
X88347495Y-58457884D01*
X88571961Y-58343513D01*
X88775772Y-58195436D01*
X88953909Y-58017299D01*
X89101986Y-57813488D01*
X89216357Y-57589022D01*
X89294206Y-57349428D01*
X89333616Y-57100605D01*
X89333616Y-56848681D01*
X105182616Y-56848681D01*
X105182616Y-57100604D01*
X105222026Y-57349428D01*
X105299876Y-57589026D01*
X105414248Y-57813491D01*
X105562317Y-58017292D01*
X105562321Y-58017297D01*
X105740461Y-58195437D01*
X105740466Y-58195441D01*
X105850499Y-58275384D01*
X105944271Y-58343513D01*
X106030795Y-58387599D01*
X106168732Y-58457882D01*
X106168734Y-58457882D01*
X106168737Y-58457884D01*
X106408331Y-58535733D01*
X106657154Y-58575143D01*
X106657155Y-58575143D01*
X106909077Y-58575143D01*
X106909078Y-58575143D01*
X107157901Y-58535733D01*
X107397495Y-58457884D01*
X107621961Y-58343513D01*
X107825772Y-58195436D01*
X108003909Y-58017299D01*
X108151986Y-57813488D01*
X108266357Y-57589022D01*
X108344206Y-57349428D01*
X108383616Y-57100605D01*
X108383616Y-56848681D01*
X108344206Y-56599858D01*
X108266357Y-56360264D01*
X108266355Y-56360261D01*
X108266355Y-56360259D01*
X108224863Y-56278827D01*
X108151986Y-56135798D01*
X108049869Y-55995245D01*
X108003914Y-55931993D01*
X108003910Y-55931988D01*
X107825770Y-55753848D01*
X107825765Y-55753844D01*
X107621964Y-55605775D01*
X107621963Y-55605774D01*
X107621961Y-55605773D01*
X107517242Y-55552416D01*
X107397499Y-55491403D01*
X107157901Y-55413553D01*
X106909078Y-55374143D01*
X106657154Y-55374143D01*
X106532742Y-55393848D01*
X106408330Y-55413553D01*
X106168732Y-55491403D01*
X105944267Y-55605775D01*
X105740466Y-55753844D01*
X105740461Y-55753848D01*
X105562321Y-55931988D01*
X105562317Y-55931993D01*
X105414248Y-56135794D01*
X105299876Y-56360259D01*
X105222026Y-56599857D01*
X105182616Y-56848681D01*
X89333616Y-56848681D01*
X89294206Y-56599858D01*
X89216357Y-56360264D01*
X89216355Y-56360261D01*
X89216355Y-56360259D01*
X89174863Y-56278827D01*
X89101986Y-56135798D01*
X88999869Y-55995245D01*
X88953914Y-55931993D01*
X88953910Y-55931988D01*
X88775770Y-55753848D01*
X88775765Y-55753844D01*
X88571964Y-55605775D01*
X88571963Y-55605774D01*
X88571961Y-55605773D01*
X88467242Y-55552416D01*
X88347499Y-55491403D01*
X88107901Y-55413553D01*
X87859078Y-55374143D01*
X87607154Y-55374143D01*
X87482742Y-55393848D01*
X87358330Y-55413553D01*
X87118732Y-55491403D01*
X86894267Y-55605775D01*
X86690466Y-55753844D01*
X86690461Y-55753848D01*
X86512321Y-55931988D01*
X86512317Y-55931993D01*
X86364248Y-56135794D01*
X86249876Y-56360259D01*
X86172026Y-56599857D01*
X86132616Y-56848681D01*
X70283616Y-56848681D01*
X70244206Y-56599858D01*
X70166357Y-56360264D01*
X70166355Y-56360261D01*
X70166355Y-56360259D01*
X70124863Y-56278827D01*
X70051986Y-56135798D01*
X69949869Y-55995245D01*
X69903914Y-55931993D01*
X69903910Y-55931988D01*
X69725770Y-55753848D01*
X69725765Y-55753844D01*
X69521964Y-55605775D01*
X69521963Y-55605774D01*
X69521961Y-55605773D01*
X69417242Y-55552416D01*
X69297499Y-55491403D01*
X69057901Y-55413553D01*
X68809078Y-55374143D01*
X68557154Y-55374143D01*
X68432742Y-55393848D01*
X68308330Y-55413553D01*
X68068732Y-55491403D01*
X67844267Y-55605775D01*
X67640466Y-55753844D01*
X67640461Y-55753848D01*
X67462321Y-55931988D01*
X67462317Y-55931993D01*
X67314248Y-56135794D01*
X67199876Y-56360259D01*
X67122026Y-56599857D01*
X67082616Y-56848681D01*
X51233616Y-56848681D01*
X51194206Y-56599858D01*
X51116357Y-56360264D01*
X51116355Y-56360261D01*
X51116355Y-56360259D01*
X51074863Y-56278827D01*
X51001986Y-56135798D01*
X50899869Y-55995245D01*
X50853914Y-55931993D01*
X50853910Y-55931988D01*
X50675770Y-55753848D01*
X50675765Y-55753844D01*
X50471964Y-55605775D01*
X50471963Y-55605774D01*
X50471961Y-55605773D01*
X50367242Y-55552416D01*
X50247499Y-55491403D01*
X50007901Y-55413553D01*
X49759078Y-55374143D01*
X49507154Y-55374143D01*
X49424213Y-55387279D01*
X49258329Y-55413553D01*
X49258326Y-55413553D01*
X49128928Y-55455598D01*
X49059087Y-55457593D01*
X48999254Y-55421513D01*
X48968426Y-55358812D01*
X48976391Y-55289398D01*
X49002927Y-55249988D01*
X49944201Y-54308714D01*
X54383116Y-54308714D01*
X54383116Y-54560571D01*
X54422513Y-54809312D01*
X54500335Y-55048827D01*
X54614673Y-55273226D01*
X54688864Y-55375340D01*
X54688864Y-55375341D01*
X55305537Y-54758667D01*
X55318475Y-54789901D01*
X55400553Y-54912740D01*
X55505019Y-55017206D01*
X55627858Y-55099284D01*
X55659090Y-55112220D01*
X55042416Y-55728893D01*
X55144532Y-55803085D01*
X55368931Y-55917423D01*
X55608446Y-55995245D01*
X55857188Y-56034643D01*
X56109044Y-56034643D01*
X56357785Y-55995245D01*
X56597300Y-55917423D01*
X56821691Y-55803089D01*
X56821697Y-55803085D01*
X56923813Y-55728893D01*
X56923814Y-55728893D01*
X56307141Y-55112221D01*
X56338374Y-55099284D01*
X56461213Y-55017206D01*
X56565679Y-54912740D01*
X56647757Y-54789901D01*
X56660693Y-54758668D01*
X57277366Y-55375341D01*
X57277366Y-55375340D01*
X57351558Y-55273224D01*
X57351562Y-55273218D01*
X57465896Y-55048827D01*
X57543718Y-54809312D01*
X57583116Y-54560571D01*
X57583116Y-54308714D01*
X73433116Y-54308714D01*
X73433116Y-54560571D01*
X73472513Y-54809312D01*
X73550335Y-55048827D01*
X73664673Y-55273226D01*
X73738864Y-55375340D01*
X73738864Y-55375341D01*
X74355537Y-54758667D01*
X74368475Y-54789901D01*
X74450553Y-54912740D01*
X74555019Y-55017206D01*
X74677858Y-55099284D01*
X74709090Y-55112220D01*
X74092416Y-55728893D01*
X74194532Y-55803085D01*
X74418931Y-55917423D01*
X74658446Y-55995245D01*
X74907188Y-56034643D01*
X75159044Y-56034643D01*
X75407785Y-55995245D01*
X75647300Y-55917423D01*
X75871691Y-55803089D01*
X75871697Y-55803085D01*
X75973813Y-55728893D01*
X75973814Y-55728893D01*
X75357141Y-55112221D01*
X75388374Y-55099284D01*
X75511213Y-55017206D01*
X75615679Y-54912740D01*
X75697757Y-54789901D01*
X75710693Y-54758668D01*
X76327366Y-55375341D01*
X76327366Y-55375340D01*
X76401558Y-55273224D01*
X76401562Y-55273218D01*
X76515896Y-55048827D01*
X76593718Y-54809312D01*
X76633116Y-54560571D01*
X76633116Y-54308714D01*
X92483116Y-54308714D01*
X92483116Y-54560571D01*
X92522513Y-54809312D01*
X92600335Y-55048827D01*
X92714673Y-55273226D01*
X92788864Y-55375340D01*
X92788864Y-55375341D01*
X93405537Y-54758667D01*
X93418475Y-54789901D01*
X93500553Y-54912740D01*
X93605019Y-55017206D01*
X93727858Y-55099284D01*
X93759090Y-55112220D01*
X93142416Y-55728893D01*
X93244532Y-55803085D01*
X93468931Y-55917423D01*
X93708446Y-55995245D01*
X93957188Y-56034643D01*
X94209044Y-56034643D01*
X94457785Y-55995245D01*
X94697300Y-55917423D01*
X94921691Y-55803089D01*
X94921697Y-55803085D01*
X95023813Y-55728893D01*
X95023814Y-55728893D01*
X94407141Y-55112221D01*
X94438374Y-55099284D01*
X94561213Y-55017206D01*
X94665679Y-54912740D01*
X94747757Y-54789901D01*
X94760693Y-54758668D01*
X95377366Y-55375341D01*
X95377366Y-55375340D01*
X95451558Y-55273224D01*
X95451562Y-55273218D01*
X95565896Y-55048827D01*
X95643718Y-54809312D01*
X95683116Y-54560571D01*
X95683116Y-54308714D01*
X111533116Y-54308714D01*
X111533116Y-54560571D01*
X111572513Y-54809312D01*
X111650335Y-55048827D01*
X111764673Y-55273226D01*
X111838864Y-55375340D01*
X111838864Y-55375341D01*
X112455537Y-54758667D01*
X112468475Y-54789901D01*
X112550553Y-54912740D01*
X112655019Y-55017206D01*
X112777858Y-55099284D01*
X112809090Y-55112220D01*
X112192416Y-55728893D01*
X112294532Y-55803085D01*
X112518931Y-55917423D01*
X112758446Y-55995245D01*
X113007188Y-56034643D01*
X113259044Y-56034643D01*
X113507785Y-55995245D01*
X113747300Y-55917423D01*
X113971691Y-55803089D01*
X113971697Y-55803085D01*
X114073813Y-55728893D01*
X114073814Y-55728893D01*
X113457141Y-55112221D01*
X113488374Y-55099284D01*
X113611213Y-55017206D01*
X113715679Y-54912740D01*
X113797757Y-54789901D01*
X113810693Y-54758668D01*
X114427366Y-55375341D01*
X114427366Y-55375340D01*
X114501558Y-55273224D01*
X114501562Y-55273218D01*
X114615896Y-55048827D01*
X114693718Y-54809312D01*
X114733116Y-54560571D01*
X114733116Y-54308714D01*
X114693718Y-54059973D01*
X114615896Y-53820458D01*
X114501558Y-53596059D01*
X114427366Y-53493944D01*
X114427366Y-53493943D01*
X113810693Y-54110616D01*
X113797757Y-54079385D01*
X113715679Y-53956546D01*
X113611213Y-53852080D01*
X113488374Y-53770002D01*
X113457140Y-53757064D01*
X114073814Y-53140391D01*
X113971699Y-53066200D01*
X113747300Y-52951862D01*
X113507785Y-52874040D01*
X113259044Y-52834643D01*
X113007188Y-52834643D01*
X112758446Y-52874040D01*
X112518931Y-52951862D01*
X112294529Y-53066202D01*
X112192417Y-53140390D01*
X112192416Y-53140391D01*
X112809090Y-53757064D01*
X112777858Y-53770002D01*
X112655019Y-53852080D01*
X112550553Y-53956546D01*
X112468475Y-54079385D01*
X112455537Y-54110617D01*
X111838864Y-53493943D01*
X111838863Y-53493944D01*
X111764675Y-53596056D01*
X111650335Y-53820458D01*
X111572513Y-54059973D01*
X111533116Y-54308714D01*
X95683116Y-54308714D01*
X95643718Y-54059973D01*
X95565896Y-53820458D01*
X95451558Y-53596059D01*
X95377366Y-53493944D01*
X95377366Y-53493943D01*
X94760693Y-54110616D01*
X94747757Y-54079385D01*
X94665679Y-53956546D01*
X94561213Y-53852080D01*
X94438374Y-53770002D01*
X94407140Y-53757064D01*
X95023814Y-53140391D01*
X94921699Y-53066200D01*
X94697300Y-52951862D01*
X94457785Y-52874040D01*
X94209044Y-52834643D01*
X93957188Y-52834643D01*
X93708446Y-52874040D01*
X93468931Y-52951862D01*
X93244529Y-53066202D01*
X93142417Y-53140390D01*
X93142416Y-53140391D01*
X93759090Y-53757064D01*
X93727858Y-53770002D01*
X93605019Y-53852080D01*
X93500553Y-53956546D01*
X93418475Y-54079385D01*
X93405537Y-54110617D01*
X92788864Y-53493943D01*
X92788863Y-53493944D01*
X92714675Y-53596056D01*
X92600335Y-53820458D01*
X92522513Y-54059973D01*
X92483116Y-54308714D01*
X76633116Y-54308714D01*
X76593718Y-54059973D01*
X76515896Y-53820458D01*
X76401558Y-53596059D01*
X76327366Y-53493944D01*
X76327366Y-53493943D01*
X75710693Y-54110616D01*
X75697757Y-54079385D01*
X75615679Y-53956546D01*
X75511213Y-53852080D01*
X75388374Y-53770002D01*
X75357140Y-53757064D01*
X75973814Y-53140391D01*
X75871699Y-53066200D01*
X75647300Y-52951862D01*
X75407785Y-52874040D01*
X75159044Y-52834643D01*
X74907188Y-52834643D01*
X74658446Y-52874040D01*
X74418931Y-52951862D01*
X74194529Y-53066202D01*
X74092417Y-53140390D01*
X74092416Y-53140391D01*
X74709090Y-53757064D01*
X74677858Y-53770002D01*
X74555019Y-53852080D01*
X74450553Y-53956546D01*
X74368475Y-54079385D01*
X74355537Y-54110617D01*
X73738864Y-53493943D01*
X73738863Y-53493944D01*
X73664675Y-53596056D01*
X73550335Y-53820458D01*
X73472513Y-54059973D01*
X73433116Y-54308714D01*
X57583116Y-54308714D01*
X57543718Y-54059973D01*
X57465896Y-53820458D01*
X57351558Y-53596059D01*
X57277366Y-53493944D01*
X57277366Y-53493943D01*
X56660693Y-54110616D01*
X56647757Y-54079385D01*
X56565679Y-53956546D01*
X56461213Y-53852080D01*
X56338374Y-53770002D01*
X56307140Y-53757064D01*
X56923814Y-53140391D01*
X56821699Y-53066200D01*
X56597300Y-52951862D01*
X56357785Y-52874040D01*
X56109044Y-52834643D01*
X55857188Y-52834643D01*
X55608446Y-52874040D01*
X55368931Y-52951862D01*
X55144529Y-53066202D01*
X55042417Y-53140390D01*
X55042416Y-53140391D01*
X55659090Y-53757064D01*
X55627858Y-53770002D01*
X55505019Y-53852080D01*
X55400553Y-53956546D01*
X55318475Y-54079385D01*
X55305537Y-54110617D01*
X54688864Y-53493943D01*
X54688863Y-53493944D01*
X54614675Y-53596056D01*
X54500335Y-53820458D01*
X54422513Y-54059973D01*
X54383116Y-54308714D01*
X49944201Y-54308714D01*
X54597286Y-49655629D01*
X54597289Y-49655628D01*
X54618652Y-49634264D01*
X54651449Y-49616356D01*
X54679967Y-49600784D01*
X54679970Y-49600784D01*
X54679975Y-49600782D01*
X54715317Y-49603311D01*
X54749659Y-49605766D01*
X54762614Y-49611460D01*
X54890439Y-49676591D01*
X55032181Y-49722645D01*
X55078236Y-49737610D01*
X55273264Y-49768500D01*
X55273269Y-49768500D01*
X55470736Y-49768500D01*
X55665763Y-49737610D01*
X55669262Y-49736473D01*
X55853561Y-49676591D01*
X56029501Y-49586944D01*
X56134955Y-49510328D01*
X56189246Y-49470884D01*
X56189248Y-49470881D01*
X56189252Y-49470879D01*
X56328879Y-49331252D01*
X56328881Y-49331248D01*
X56328884Y-49331246D01*
X56444941Y-49171505D01*
X56444940Y-49171505D01*
X56444944Y-49171501D01*
X56531517Y-49001593D01*
X56579490Y-48950800D01*
X56647311Y-48934005D01*
X56713446Y-48956542D01*
X56752482Y-49001593D01*
X56822518Y-49139043D01*
X56839058Y-49171505D01*
X56955115Y-49331246D01*
X57094753Y-49470884D01*
X57244234Y-49579486D01*
X57254499Y-49586944D01*
X57430439Y-49676591D01*
X57555637Y-49717270D01*
X57618236Y-49737610D01*
X57813264Y-49768500D01*
X57813269Y-49768500D01*
X58010736Y-49768500D01*
X58205763Y-49737610D01*
X58209262Y-49736473D01*
X58393561Y-49676591D01*
X58569501Y-49586944D01*
X58674955Y-49510328D01*
X58729246Y-49470884D01*
X58729248Y-49470881D01*
X58729252Y-49470879D01*
X58868879Y-49331252D01*
X58868881Y-49331248D01*
X58868884Y-49331246D01*
X58984941Y-49171505D01*
X58984940Y-49171505D01*
X58984944Y-49171501D01*
X59071517Y-49001593D01*
X59119490Y-48950800D01*
X59187311Y-48934005D01*
X59253446Y-48956542D01*
X59292482Y-49001593D01*
X59362518Y-49139043D01*
X59379058Y-49171505D01*
X59495115Y-49331246D01*
X59634753Y-49470884D01*
X59784234Y-49579486D01*
X59794499Y-49586944D01*
X59970439Y-49676591D01*
X60095637Y-49717270D01*
X60158236Y-49737610D01*
X60353264Y-49768500D01*
X60353269Y-49768500D01*
X60550736Y-49768500D01*
X60745763Y-49737610D01*
X60749262Y-49736473D01*
X60933561Y-49676591D01*
X61109501Y-49586944D01*
X61214955Y-49510328D01*
X61269246Y-49470884D01*
X61269248Y-49470881D01*
X61269252Y-49470879D01*
X61408879Y-49331252D01*
X61408881Y-49331248D01*
X61408884Y-49331246D01*
X61524941Y-49171505D01*
X61524940Y-49171505D01*
X61524944Y-49171501D01*
X61611517Y-49001593D01*
X61659490Y-48950800D01*
X61727311Y-48934005D01*
X61793446Y-48956542D01*
X61832482Y-49001593D01*
X61902518Y-49139043D01*
X61919058Y-49171505D01*
X62035115Y-49331246D01*
X62174753Y-49470884D01*
X62324234Y-49579486D01*
X62334499Y-49586944D01*
X62510439Y-49676591D01*
X62635637Y-49717270D01*
X62698236Y-49737610D01*
X62893264Y-49768500D01*
X62893269Y-49768500D01*
X63090736Y-49768500D01*
X63285763Y-49737610D01*
X63289262Y-49736473D01*
X63473561Y-49676591D01*
X63649501Y-49586944D01*
X63754955Y-49510328D01*
X63809246Y-49470884D01*
X63809248Y-49470881D01*
X63809252Y-49470879D01*
X63948879Y-49331252D01*
X63948881Y-49331248D01*
X63948884Y-49331246D01*
X64064941Y-49171505D01*
X64064940Y-49171505D01*
X64064944Y-49171501D01*
X64151517Y-49001593D01*
X64199490Y-48950800D01*
X64267311Y-48934005D01*
X64333446Y-48956542D01*
X64372482Y-49001593D01*
X64442518Y-49139043D01*
X64459058Y-49171505D01*
X64575115Y-49331246D01*
X64714753Y-49470884D01*
X64864234Y-49579486D01*
X64874499Y-49586944D01*
X65050439Y-49676591D01*
X65175637Y-49717270D01*
X65238236Y-49737610D01*
X65433264Y-49768500D01*
X65433269Y-49768500D01*
X65630736Y-49768500D01*
X65825763Y-49737610D01*
X65829262Y-49736473D01*
X66013561Y-49676591D01*
X66189501Y-49586944D01*
X66294955Y-49510328D01*
X66349246Y-49470884D01*
X66349248Y-49470881D01*
X66349252Y-49470879D01*
X66488879Y-49331252D01*
X66488881Y-49331248D01*
X66488884Y-49331246D01*
X66604941Y-49171505D01*
X66604940Y-49171505D01*
X66604944Y-49171501D01*
X66691517Y-49001593D01*
X66739490Y-48950800D01*
X66807311Y-48934005D01*
X66873446Y-48956542D01*
X66912482Y-49001593D01*
X66982518Y-49139043D01*
X66999058Y-49171505D01*
X67115115Y-49331246D01*
X67254753Y-49470884D01*
X67404234Y-49579486D01*
X67414499Y-49586944D01*
X67590439Y-49676591D01*
X67715637Y-49717270D01*
X67778236Y-49737610D01*
X67973264Y-49768500D01*
X67973269Y-49768500D01*
X68170736Y-49768500D01*
X68365763Y-49737610D01*
X68369262Y-49736473D01*
X68553561Y-49676591D01*
X68729501Y-49586944D01*
X68834955Y-49510328D01*
X68889246Y-49470884D01*
X68889248Y-49470881D01*
X68889252Y-49470879D01*
X69028879Y-49331252D01*
X69028881Y-49331248D01*
X69028884Y-49331246D01*
X69144941Y-49171505D01*
X69144940Y-49171505D01*
X69144944Y-49171501D01*
X69231517Y-49001593D01*
X69279490Y-48950800D01*
X69347311Y-48934005D01*
X69413446Y-48956542D01*
X69452482Y-49001593D01*
X69522518Y-49139043D01*
X69539058Y-49171505D01*
X69655115Y-49331246D01*
X69794753Y-49470884D01*
X69944234Y-49579486D01*
X69954499Y-49586944D01*
X70130439Y-49676591D01*
X70255637Y-49717270D01*
X70318236Y-49737610D01*
X70513264Y-49768500D01*
X70513269Y-49768500D01*
X70710736Y-49768500D01*
X70905763Y-49737610D01*
X70909262Y-49736473D01*
X71093561Y-49676591D01*
X71269501Y-49586944D01*
X71374955Y-49510328D01*
X71429246Y-49470884D01*
X71429248Y-49470881D01*
X71429252Y-49470879D01*
X71568879Y-49331252D01*
X71568881Y-49331248D01*
X71568884Y-49331246D01*
X71684941Y-49171505D01*
X71684940Y-49171505D01*
X71684944Y-49171501D01*
X71771517Y-49001593D01*
X71819490Y-48950800D01*
X71887311Y-48934005D01*
X71953446Y-48956542D01*
X71992482Y-49001593D01*
X72062518Y-49139043D01*
X72079058Y-49171505D01*
X72195115Y-49331246D01*
X72334753Y-49470884D01*
X72484234Y-49579486D01*
X72494499Y-49586944D01*
X72670439Y-49676591D01*
X72795637Y-49717270D01*
X72858236Y-49737610D01*
X73053264Y-49768500D01*
X73053269Y-49768500D01*
X73250736Y-49768500D01*
X73445763Y-49737610D01*
X73449262Y-49736473D01*
X73633561Y-49676591D01*
X73809501Y-49586944D01*
X73914955Y-49510328D01*
X73969246Y-49470884D01*
X73969248Y-49470881D01*
X73969252Y-49470879D01*
X74108879Y-49331252D01*
X74108881Y-49331248D01*
X74108884Y-49331246D01*
X74224941Y-49171505D01*
X74224940Y-49171505D01*
X74224944Y-49171501D01*
X74311517Y-49001593D01*
X74359490Y-48950800D01*
X74427311Y-48934005D01*
X74493446Y-48956542D01*
X74532482Y-49001593D01*
X74602518Y-49139043D01*
X74619058Y-49171505D01*
X74735115Y-49331246D01*
X74874753Y-49470884D01*
X75024234Y-49579486D01*
X75034499Y-49586944D01*
X75210439Y-49676591D01*
X75335637Y-49717270D01*
X75398236Y-49737610D01*
X75593264Y-49768500D01*
X75593269Y-49768500D01*
X75790736Y-49768500D01*
X75985763Y-49737610D01*
X75989262Y-49736473D01*
X76173561Y-49676591D01*
X76349501Y-49586944D01*
X76454955Y-49510328D01*
X76509246Y-49470884D01*
X76509248Y-49470881D01*
X76509252Y-49470879D01*
X76648879Y-49331252D01*
X76648881Y-49331248D01*
X76648884Y-49331246D01*
X76764941Y-49171505D01*
X76764940Y-49171505D01*
X76764944Y-49171501D01*
X76851517Y-49001593D01*
X76899490Y-48950800D01*
X76967311Y-48934005D01*
X77033446Y-48956542D01*
X77072482Y-49001593D01*
X77142518Y-49139043D01*
X77159058Y-49171505D01*
X77275115Y-49331246D01*
X77414753Y-49470884D01*
X77564234Y-49579486D01*
X77574499Y-49586944D01*
X77750439Y-49676591D01*
X77875637Y-49717270D01*
X77938236Y-49737610D01*
X78133264Y-49768500D01*
X78133269Y-49768500D01*
X78330736Y-49768500D01*
X78525763Y-49737610D01*
X78529262Y-49736473D01*
X78713561Y-49676591D01*
X78889501Y-49586944D01*
X78994955Y-49510328D01*
X79049246Y-49470884D01*
X79049248Y-49470881D01*
X79049252Y-49470879D01*
X79188879Y-49331252D01*
X79188881Y-49331248D01*
X79188884Y-49331246D01*
X79304941Y-49171505D01*
X79304940Y-49171505D01*
X79304944Y-49171501D01*
X79391517Y-49001593D01*
X79439490Y-48950800D01*
X79507311Y-48934005D01*
X79573446Y-48956542D01*
X79612482Y-49001593D01*
X79682518Y-49139043D01*
X79699058Y-49171505D01*
X79815115Y-49331246D01*
X79954753Y-49470884D01*
X80104234Y-49579486D01*
X80114499Y-49586944D01*
X80290439Y-49676591D01*
X80415637Y-49717270D01*
X80478236Y-49737610D01*
X80673264Y-49768500D01*
X80673269Y-49768500D01*
X80870736Y-49768500D01*
X81065763Y-49737610D01*
X81069262Y-49736473D01*
X81253561Y-49676591D01*
X81429501Y-49586944D01*
X81534955Y-49510328D01*
X81589246Y-49470884D01*
X81589248Y-49470881D01*
X81589252Y-49470879D01*
X81728879Y-49331252D01*
X81728881Y-49331248D01*
X81728884Y-49331246D01*
X81844941Y-49171505D01*
X81844940Y-49171505D01*
X81844944Y-49171501D01*
X81931517Y-49001593D01*
X81979490Y-48950800D01*
X82047311Y-48934005D01*
X82113446Y-48956542D01*
X82152482Y-49001593D01*
X82222518Y-49139043D01*
X82239058Y-49171505D01*
X82355115Y-49331246D01*
X82494753Y-49470884D01*
X82644234Y-49579486D01*
X82654499Y-49586944D01*
X82830439Y-49676591D01*
X82955637Y-49717270D01*
X83018236Y-49737610D01*
X83213264Y-49768500D01*
X83213269Y-49768500D01*
X83410736Y-49768500D01*
X83605763Y-49737610D01*
X83609262Y-49736473D01*
X83793561Y-49676591D01*
X83969501Y-49586944D01*
X84074955Y-49510328D01*
X84129246Y-49470884D01*
X84129248Y-49470881D01*
X84129252Y-49470879D01*
X84268879Y-49331252D01*
X84268881Y-49331248D01*
X84268884Y-49331246D01*
X84384941Y-49171505D01*
X84384940Y-49171505D01*
X84384944Y-49171501D01*
X84471517Y-49001593D01*
X84519490Y-48950800D01*
X84587311Y-48934005D01*
X84653446Y-48956542D01*
X84692482Y-49001593D01*
X84762518Y-49139043D01*
X84779058Y-49171505D01*
X84895115Y-49331246D01*
X85034753Y-49470884D01*
X85184234Y-49579486D01*
X85194499Y-49586944D01*
X85370439Y-49676591D01*
X85495637Y-49717270D01*
X85558236Y-49737610D01*
X85753264Y-49768500D01*
X85753269Y-49768500D01*
X85950736Y-49768500D01*
X86145763Y-49737610D01*
X86149262Y-49736473D01*
X86333561Y-49676591D01*
X86509501Y-49586944D01*
X86614955Y-49510328D01*
X86669246Y-49470884D01*
X86669248Y-49470881D01*
X86669252Y-49470879D01*
X86808879Y-49331252D01*
X86808881Y-49331248D01*
X86808884Y-49331246D01*
X86924941Y-49171505D01*
X86924940Y-49171505D01*
X86924944Y-49171501D01*
X87011517Y-49001593D01*
X87059490Y-48950800D01*
X87127311Y-48934005D01*
X87193446Y-48956542D01*
X87232482Y-49001593D01*
X87302518Y-49139043D01*
X87319058Y-49171505D01*
X87435115Y-49331246D01*
X87574753Y-49470884D01*
X87724234Y-49579486D01*
X87734499Y-49586944D01*
X87910439Y-49676591D01*
X88035637Y-49717270D01*
X88098236Y-49737610D01*
X88293264Y-49768500D01*
X88293269Y-49768500D01*
X88490736Y-49768500D01*
X88685763Y-49737610D01*
X88689262Y-49736473D01*
X88873561Y-49676591D01*
X89049501Y-49586944D01*
X89154955Y-49510328D01*
X89209246Y-49470884D01*
X89209248Y-49470881D01*
X89209252Y-49470879D01*
X89348879Y-49331252D01*
X89348881Y-49331248D01*
X89348884Y-49331246D01*
X89464941Y-49171505D01*
X89464940Y-49171505D01*
X89464944Y-49171501D01*
X89551517Y-49001593D01*
X89599490Y-48950800D01*
X89667311Y-48934005D01*
X89733446Y-48956542D01*
X89772482Y-49001593D01*
X89842518Y-49139043D01*
X89859058Y-49171505D01*
X89975115Y-49331246D01*
X90114753Y-49470884D01*
X90264234Y-49579486D01*
X90274499Y-49586944D01*
X90450439Y-49676591D01*
X90575637Y-49717270D01*
X90638236Y-49737610D01*
X90833264Y-49768500D01*
X90833269Y-49768500D01*
X91030736Y-49768500D01*
X91225763Y-49737610D01*
X91229262Y-49736473D01*
X91413561Y-49676591D01*
X91589501Y-49586944D01*
X91694955Y-49510328D01*
X91749246Y-49470884D01*
X91749248Y-49470881D01*
X91749252Y-49470879D01*
X91888879Y-49331252D01*
X91888881Y-49331248D01*
X91888884Y-49331246D01*
X92004941Y-49171505D01*
X92004940Y-49171505D01*
X92004944Y-49171501D01*
X92091517Y-49001593D01*
X92139490Y-48950800D01*
X92207311Y-48934005D01*
X92273446Y-48956542D01*
X92312482Y-49001593D01*
X92382518Y-49139043D01*
X92399058Y-49171505D01*
X92515115Y-49331246D01*
X92654753Y-49470884D01*
X92804234Y-49579486D01*
X92814499Y-49586944D01*
X92990439Y-49676591D01*
X93115637Y-49717270D01*
X93178236Y-49737610D01*
X93373264Y-49768500D01*
X93373269Y-49768500D01*
X93570736Y-49768500D01*
X93765763Y-49737610D01*
X93769262Y-49736473D01*
X93953561Y-49676591D01*
X94129501Y-49586944D01*
X94234955Y-49510328D01*
X94289246Y-49470884D01*
X94289248Y-49470881D01*
X94289252Y-49470879D01*
X94428879Y-49331252D01*
X94428881Y-49331248D01*
X94428884Y-49331246D01*
X94544941Y-49171505D01*
X94544940Y-49171505D01*
X94544944Y-49171501D01*
X94631517Y-49001593D01*
X94679490Y-48950800D01*
X94747311Y-48934005D01*
X94813446Y-48956542D01*
X94852482Y-49001593D01*
X94922518Y-49139043D01*
X94939058Y-49171505D01*
X95055115Y-49331246D01*
X95194753Y-49470884D01*
X95344234Y-49579486D01*
X95354499Y-49586944D01*
X95530439Y-49676591D01*
X95655637Y-49717270D01*
X95718236Y-49737610D01*
X95913264Y-49768500D01*
X95913269Y-49768500D01*
X96110736Y-49768500D01*
X96305763Y-49737610D01*
X96309262Y-49736473D01*
X96493561Y-49676591D01*
X96669501Y-49586944D01*
X96774955Y-49510328D01*
X96829246Y-49470884D01*
X96829248Y-49470881D01*
X96829252Y-49470879D01*
X96968879Y-49331252D01*
X97073183Y-49187688D01*
X97128510Y-49145023D01*
X97198124Y-49139043D01*
X97259919Y-49171649D01*
X97294277Y-49232487D01*
X97297500Y-49260572D01*
X97297500Y-49315869D01*
X97297501Y-49315876D01*
X97303908Y-49375483D01*
X97354202Y-49510328D01*
X97354206Y-49510335D01*
X97440452Y-49625544D01*
X97440455Y-49625547D01*
X97555664Y-49711793D01*
X97555671Y-49711797D01*
X97690517Y-49762091D01*
X97690516Y-49762091D01*
X97697444Y-49762835D01*
X97750127Y-49768500D01*
X99353872Y-49768499D01*
X99413483Y-49762091D01*
X99548331Y-49711796D01*
X99663546Y-49625546D01*
X99749796Y-49510331D01*
X99800091Y-49375483D01*
X99806500Y-49315873D01*
X99806499Y-47729499D01*
X99826184Y-47662461D01*
X99878987Y-47616706D01*
X99930499Y-47605500D01*
X113137390Y-47605500D01*
X113137406Y-47605501D01*
X113145002Y-47605501D01*
X113303113Y-47605501D01*
X113303116Y-47605501D01*
X113455844Y-47564577D01*
X113505963Y-47535639D01*
X113592775Y-47485520D01*
X113704579Y-47373716D01*
X113704579Y-47373714D01*
X113714787Y-47363507D01*
X113714789Y-47363504D01*
X118156508Y-42921784D01*
X120242862Y-42921784D01*
X120242862Y-43095005D01*
X120266750Y-43245833D01*
X120269960Y-43266096D01*
X120323489Y-43430840D01*
X120402130Y-43585183D01*
X120503948Y-43725323D01*
X120626434Y-43847809D01*
X120766574Y-43949627D01*
X120920917Y-44028268D01*
X121085661Y-44081797D01*
X121256751Y-44108895D01*
X121256752Y-44108895D01*
X121429972Y-44108895D01*
X121429973Y-44108895D01*
X121601063Y-44081797D01*
X121765807Y-44028268D01*
X121920150Y-43949627D01*
X122060290Y-43847809D01*
X122182776Y-43725323D01*
X122284594Y-43585183D01*
X122363235Y-43430840D01*
X122416764Y-43266096D01*
X122443862Y-43095006D01*
X122443862Y-42921784D01*
X122416764Y-42750694D01*
X122363235Y-42585950D01*
X122284594Y-42431607D01*
X122182776Y-42291467D01*
X122060290Y-42168981D01*
X121920150Y-42067163D01*
X121804679Y-42008328D01*
X121765809Y-41988523D01*
X121765808Y-41988522D01*
X121765807Y-41988522D01*
X121601063Y-41934993D01*
X121601061Y-41934992D01*
X121601060Y-41934992D01*
X121469633Y-41914176D01*
X121429973Y-41907895D01*
X121256751Y-41907895D01*
X121217090Y-41914176D01*
X121085664Y-41934992D01*
X120920914Y-41988523D01*
X120766573Y-42067163D01*
X120721928Y-42099600D01*
X120626434Y-42168981D01*
X120626432Y-42168983D01*
X120626431Y-42168983D01*
X120503950Y-42291464D01*
X120503950Y-42291465D01*
X120503948Y-42291467D01*
X120462342Y-42348733D01*
X120402130Y-42431606D01*
X120323490Y-42585947D01*
X120269959Y-42750697D01*
X120242862Y-42921784D01*
X118156508Y-42921784D01*
X120156890Y-40921402D01*
X120218211Y-40887919D01*
X120287903Y-40892903D01*
X120343836Y-40934775D01*
X120355054Y-40952791D01*
X120402128Y-41045181D01*
X120432719Y-41087285D01*
X120503948Y-41185323D01*
X120626434Y-41307809D01*
X120766574Y-41409627D01*
X120920917Y-41488268D01*
X121085661Y-41541797D01*
X121256751Y-41568895D01*
X121256752Y-41568895D01*
X121429972Y-41568895D01*
X121429973Y-41568895D01*
X121601063Y-41541797D01*
X121765807Y-41488268D01*
X121920150Y-41409627D01*
X122060290Y-41307809D01*
X122182776Y-41185323D01*
X122284594Y-41045183D01*
X122363235Y-40890840D01*
X122416764Y-40726096D01*
X122443862Y-40555006D01*
X122443862Y-40381784D01*
X122416764Y-40210694D01*
X122363235Y-40045950D01*
X122284594Y-39891607D01*
X122182776Y-39751467D01*
X122060290Y-39628981D01*
X121920150Y-39527163D01*
X121765807Y-39448522D01*
X121601063Y-39394993D01*
X121601061Y-39394992D01*
X121601060Y-39394992D01*
X121457646Y-39372278D01*
X121429973Y-39367895D01*
X121256751Y-39367895D01*
X121186258Y-39379059D01*
X121167717Y-39376663D01*
X121149215Y-39379324D01*
X121133786Y-39372278D01*
X121116965Y-39370104D01*
X121102664Y-39358064D01*
X121085659Y-39350299D01*
X121076488Y-39336029D01*
X121063514Y-39325107D01*
X121057992Y-39307248D01*
X121047885Y-39291521D01*
X121043326Y-39259814D01*
X121042875Y-39258355D01*
X121042862Y-39256586D01*
X121042862Y-39130257D01*
X121062547Y-39063218D01*
X121079181Y-39042576D01*
X121093362Y-39028395D01*
X121593362Y-39028395D01*
X121991190Y-39028395D01*
X121991206Y-39028394D01*
X122050734Y-39021993D01*
X122050741Y-39021991D01*
X122185448Y-38971749D01*
X122185455Y-38971745D01*
X122300549Y-38885585D01*
X122300552Y-38885582D01*
X122386712Y-38770488D01*
X122386716Y-38770481D01*
X122436958Y-38635774D01*
X122436960Y-38635767D01*
X122443361Y-38576239D01*
X122443362Y-38576222D01*
X122443362Y-38178395D01*
X121593362Y-38178395D01*
X121593362Y-39028395D01*
X121093362Y-39028395D01*
X121093362Y-38095383D01*
X121103302Y-38112600D01*
X121159157Y-38168455D01*
X121227566Y-38207951D01*
X121303866Y-38228395D01*
X121382858Y-38228395D01*
X121459158Y-38207951D01*
X121527567Y-38168455D01*
X121583422Y-38112600D01*
X121622918Y-38044191D01*
X121643362Y-37967891D01*
X121643362Y-37888899D01*
X121622918Y-37812599D01*
X121583422Y-37744190D01*
X121527567Y-37688335D01*
X121510350Y-37678395D01*
X121593362Y-37678395D01*
X122443362Y-37678395D01*
X122443362Y-37280567D01*
X122443361Y-37280550D01*
X122436960Y-37221022D01*
X122436958Y-37221015D01*
X122386716Y-37086308D01*
X122386712Y-37086301D01*
X122300552Y-36971207D01*
X122300549Y-36971204D01*
X122185455Y-36885044D01*
X122185448Y-36885040D01*
X122050741Y-36834798D01*
X122050734Y-36834796D01*
X121991206Y-36828395D01*
X121593362Y-36828395D01*
X121593362Y-37678395D01*
X121510350Y-37678395D01*
X121459158Y-37648839D01*
X121382858Y-37628395D01*
X121303866Y-37628395D01*
X121227566Y-37648839D01*
X121159157Y-37688335D01*
X121103302Y-37744190D01*
X121093362Y-37761406D01*
X121093362Y-36828395D01*
X121079181Y-36814214D01*
X121045696Y-36752891D01*
X121042862Y-36726533D01*
X121042862Y-34060203D01*
X121062547Y-33993164D01*
X121115351Y-33947409D01*
X121184509Y-33937465D01*
X121186214Y-33937723D01*
X121256751Y-33948895D01*
X121256752Y-33948895D01*
X121429972Y-33948895D01*
X121429973Y-33948895D01*
X121601063Y-33921797D01*
X121765807Y-33868268D01*
X121920150Y-33789627D01*
X122060290Y-33687809D01*
X122182776Y-33565323D01*
X122284594Y-33425183D01*
X122363235Y-33270840D01*
X122416764Y-33106096D01*
X122443862Y-32935006D01*
X122443862Y-32761784D01*
X122416764Y-32590694D01*
X122363235Y-32425950D01*
X122284594Y-32271607D01*
X122182776Y-32131467D01*
X122060290Y-32008981D01*
X121920150Y-31907163D01*
X121765807Y-31828522D01*
X121601063Y-31774993D01*
X121601061Y-31774992D01*
X121601060Y-31774992D01*
X121457646Y-31752278D01*
X121429973Y-31747895D01*
X121256751Y-31747895D01*
X121186258Y-31759059D01*
X121167717Y-31756663D01*
X121149215Y-31759324D01*
X121133786Y-31752278D01*
X121116965Y-31750104D01*
X121102664Y-31738064D01*
X121085659Y-31730299D01*
X121076488Y-31716029D01*
X121063514Y-31705107D01*
X121057992Y-31687248D01*
X121047885Y-31671521D01*
X121043326Y-31639814D01*
X121042875Y-31638355D01*
X121042862Y-31636586D01*
X121042862Y-31520203D01*
X121062547Y-31453164D01*
X121115351Y-31407409D01*
X121184509Y-31397465D01*
X121186167Y-31397715D01*
X121227740Y-31404300D01*
X121256748Y-31408895D01*
X121256751Y-31408895D01*
X121429972Y-31408895D01*
X121429973Y-31408895D01*
X121601063Y-31381797D01*
X121765807Y-31328268D01*
X121920150Y-31249627D01*
X122060290Y-31147809D01*
X122182776Y-31025323D01*
X122284594Y-30885183D01*
X122363235Y-30730840D01*
X122416764Y-30566096D01*
X122443862Y-30395006D01*
X122443862Y-30221784D01*
X122416764Y-30050694D01*
X122363235Y-29885950D01*
X122284594Y-29731607D01*
X122182776Y-29591467D01*
X122060290Y-29468981D01*
X121920150Y-29367163D01*
X121765807Y-29288522D01*
X121601063Y-29234993D01*
X121601061Y-29234992D01*
X121601060Y-29234992D01*
X121453163Y-29211568D01*
X121429973Y-29207895D01*
X121256751Y-29207895D01*
X121177011Y-29220524D01*
X121171584Y-29219822D01*
X121166460Y-29221734D01*
X121137310Y-29215392D01*
X121107717Y-29211568D01*
X121102113Y-29207736D01*
X121098187Y-29206882D01*
X121069933Y-29185731D01*
X120964278Y-29080076D01*
X120930793Y-29018753D01*
X120935777Y-28949061D01*
X120977649Y-28893128D01*
X121043113Y-28868711D01*
X121051959Y-28868395D01*
X121093362Y-28868395D01*
X121593362Y-28868395D01*
X121991190Y-28868395D01*
X121991206Y-28868394D01*
X122050734Y-28861993D01*
X122050741Y-28861991D01*
X122185448Y-28811749D01*
X122185455Y-28811745D01*
X122300549Y-28725585D01*
X122300552Y-28725582D01*
X122386712Y-28610488D01*
X122386716Y-28610481D01*
X122436958Y-28475774D01*
X122436960Y-28475767D01*
X122443361Y-28416239D01*
X122443362Y-28416222D01*
X122443362Y-28018395D01*
X121593362Y-28018395D01*
X121593362Y-28868395D01*
X121093362Y-28868395D01*
X121093362Y-28018395D01*
X120243362Y-28018395D01*
X120243362Y-28059798D01*
X120223677Y-28126837D01*
X120170873Y-28172592D01*
X120101715Y-28182536D01*
X120038159Y-28153511D01*
X120031681Y-28147479D01*
X119613101Y-27728899D01*
X121043362Y-27728899D01*
X121043362Y-27807891D01*
X121063806Y-27884191D01*
X121103302Y-27952600D01*
X121159157Y-28008455D01*
X121227566Y-28047951D01*
X121303866Y-28068395D01*
X121382858Y-28068395D01*
X121459158Y-28047951D01*
X121527567Y-28008455D01*
X121583422Y-27952600D01*
X121622918Y-27884191D01*
X121643362Y-27807891D01*
X121643362Y-27728899D01*
X121622918Y-27652599D01*
X121583422Y-27584190D01*
X121527567Y-27528335D01*
X121510350Y-27518395D01*
X121593362Y-27518395D01*
X122443362Y-27518395D01*
X122443362Y-27120567D01*
X122443361Y-27120550D01*
X122436960Y-27061022D01*
X122436958Y-27061015D01*
X122386716Y-26926308D01*
X122386712Y-26926301D01*
X122300552Y-26811207D01*
X122300549Y-26811204D01*
X122185455Y-26725044D01*
X122185448Y-26725040D01*
X122050741Y-26674798D01*
X122050734Y-26674796D01*
X121991206Y-26668395D01*
X121593362Y-26668395D01*
X121593362Y-27518395D01*
X121510350Y-27518395D01*
X121459158Y-27488839D01*
X121382858Y-27468395D01*
X121303866Y-27468395D01*
X121227566Y-27488839D01*
X121159157Y-27528335D01*
X121103302Y-27584190D01*
X121063806Y-27652599D01*
X121043362Y-27728899D01*
X119613101Y-27728899D01*
X119004752Y-27120550D01*
X120243362Y-27120550D01*
X120243362Y-27518395D01*
X121093362Y-27518395D01*
X121093362Y-26668395D01*
X120695517Y-26668395D01*
X120635989Y-26674796D01*
X120635982Y-26674798D01*
X120501275Y-26725040D01*
X120501268Y-26725044D01*
X120386174Y-26811204D01*
X120386171Y-26811207D01*
X120300011Y-26926301D01*
X120300007Y-26926308D01*
X120249765Y-27061015D01*
X120249763Y-27061022D01*
X120243362Y-27120550D01*
X119004752Y-27120550D01*
X117070200Y-25185998D01*
X117070198Y-25185995D01*
X116951327Y-25067124D01*
X116951326Y-25067123D01*
X116864514Y-25017003D01*
X116864514Y-25017002D01*
X116864510Y-25017001D01*
X116814395Y-24988066D01*
X116661667Y-24947142D01*
X116503553Y-24947142D01*
X116495957Y-24947142D01*
X116495941Y-24947143D01*
X113718702Y-24947143D01*
X113560587Y-24947143D01*
X113407860Y-24988066D01*
X113407859Y-24988066D01*
X113407857Y-24988067D01*
X113407854Y-24988068D01*
X113357741Y-25017002D01*
X113357740Y-25017003D01*
X113314334Y-25042063D01*
X113270930Y-25067122D01*
X113270927Y-25067124D01*
X112455595Y-25882456D01*
X112432039Y-25923257D01*
X112422083Y-25940503D01*
X112376539Y-26019387D01*
X112335615Y-26172115D01*
X112335615Y-26172117D01*
X112335615Y-26340218D01*
X112335616Y-26340231D01*
X112335616Y-30540973D01*
X112335615Y-30540991D01*
X112335615Y-30706697D01*
X112335614Y-30706697D01*
X112341557Y-30728875D01*
X112376539Y-30859428D01*
X112376540Y-30859429D01*
X112391408Y-30885183D01*
X112391409Y-30885184D01*
X112455591Y-30996352D01*
X112455597Y-30996360D01*
X112574465Y-31115228D01*
X112574471Y-31115233D01*
X112763677Y-31304439D01*
X112797162Y-31365762D01*
X112793927Y-31430437D01*
X112771101Y-31500688D01*
X112736616Y-31718421D01*
X112736616Y-31938864D01*
X112771101Y-32156595D01*
X112839219Y-32366246D01*
X112839220Y-32366249D01*
X112869640Y-32425950D01*
X112931330Y-32547022D01*
X112939303Y-32562668D01*
X113068868Y-32741001D01*
X113068872Y-32741006D01*
X113224752Y-32896886D01*
X113224757Y-32896890D01*
X113364370Y-32998325D01*
X113407036Y-33053655D01*
X113413015Y-33123268D01*
X113380409Y-33185063D01*
X113364370Y-33198961D01*
X113224757Y-33300395D01*
X113224752Y-33300399D01*
X113068872Y-33456279D01*
X113068868Y-33456284D01*
X112939303Y-33634617D01*
X112839220Y-33831036D01*
X112839219Y-33831039D01*
X112771101Y-34040690D01*
X112736616Y-34258421D01*
X112736616Y-34478864D01*
X112771101Y-34696595D01*
X112839219Y-34906246D01*
X112839220Y-34906249D01*
X112939303Y-35102668D01*
X113068868Y-35281001D01*
X113068872Y-35281006D01*
X113224752Y-35436886D01*
X113224757Y-35436890D01*
X113364370Y-35538325D01*
X113407036Y-35593655D01*
X113413015Y-35663268D01*
X113380409Y-35725063D01*
X113364370Y-35738961D01*
X113224757Y-35840395D01*
X113224752Y-35840399D01*
X113068872Y-35996279D01*
X113068868Y-35996284D01*
X112939303Y-36174617D01*
X112839220Y-36371036D01*
X112839219Y-36371039D01*
X112771101Y-36580690D01*
X112736616Y-36798421D01*
X112736616Y-37018864D01*
X112771101Y-37236595D01*
X112793927Y-37306846D01*
X112795922Y-37376687D01*
X112763677Y-37432845D01*
X106033681Y-44162842D01*
X105972358Y-44196327D01*
X105902666Y-44191343D01*
X105846733Y-44149471D01*
X105822316Y-44084007D01*
X105822000Y-44075161D01*
X105822000Y-26814000D01*
X99822000Y-26814000D01*
X99822000Y-44275500D01*
X99802315Y-44342539D01*
X99749511Y-44388294D01*
X99698000Y-44399500D01*
X58806940Y-44399500D01*
X58766019Y-44410464D01*
X58766019Y-44410465D01*
X58728751Y-44420451D01*
X58654214Y-44440423D01*
X58654209Y-44440426D01*
X58517290Y-44519475D01*
X58517282Y-44519481D01*
X58405478Y-44631286D01*
X55779871Y-47256892D01*
X55718548Y-47290377D01*
X55670778Y-47289868D01*
X55670575Y-47291152D01*
X55470736Y-47259500D01*
X55470731Y-47259500D01*
X55273269Y-47259500D01*
X55273264Y-47259500D01*
X55078237Y-47290389D01*
X55049816Y-47299624D01*
X54979975Y-47301618D01*
X54920143Y-47265536D01*
X54889316Y-47202835D01*
X54887500Y-47181692D01*
X54887500Y-46345938D01*
X54907185Y-46278899D01*
X54923814Y-46258262D01*
X72220258Y-28961817D01*
X72281581Y-28928333D01*
X72307939Y-28925499D01*
X72900002Y-28925499D01*
X72900008Y-28925499D01*
X73002797Y-28914999D01*
X73169334Y-28859814D01*
X73318656Y-28767712D01*
X73442712Y-28643656D01*
X73482310Y-28579456D01*
X73534258Y-28532732D01*
X73603220Y-28521509D01*
X73667303Y-28549352D01*
X73675530Y-28556872D01*
X73783072Y-28664414D01*
X73923212Y-28766232D01*
X74077555Y-28844873D01*
X74242299Y-28898402D01*
X74413389Y-28925500D01*
X74413390Y-28925500D01*
X74586610Y-28925500D01*
X74586611Y-28925500D01*
X74757701Y-28898402D01*
X74922445Y-28844873D01*
X75076788Y-28766232D01*
X75216928Y-28664414D01*
X75339414Y-28541928D01*
X75441232Y-28401788D01*
X75519873Y-28247445D01*
X75573402Y-28082701D01*
X75600500Y-27911611D01*
X75600500Y-27188389D01*
X75573402Y-27017299D01*
X75519873Y-26852555D01*
X75441232Y-26698212D01*
X75339414Y-26558072D01*
X75216928Y-26435586D01*
X75076788Y-26333768D01*
X74922445Y-26255127D01*
X74757701Y-26201598D01*
X74757699Y-26201597D01*
X74757698Y-26201597D01*
X74621589Y-26180040D01*
X74586611Y-26174500D01*
X74413389Y-26174500D01*
X74413387Y-26174500D01*
X74378405Y-26180040D01*
X74309111Y-26171084D01*
X74271328Y-26145247D01*
X73678294Y-25552213D01*
X73678290Y-25552210D01*
X73547187Y-25464609D01*
X73547174Y-25464602D01*
X73401503Y-25404264D01*
X73401491Y-25404261D01*
X73246847Y-25373500D01*
X73246844Y-25373500D01*
X68396004Y-25373500D01*
X68238319Y-25373500D01*
X68238314Y-25373500D01*
X68083671Y-25404260D01*
X68083663Y-25404262D01*
X67937985Y-25464604D01*
X67937975Y-25464609D01*
X67806872Y-25552210D01*
X67806868Y-25552213D01*
X45986711Y-47372371D01*
X45986707Y-47372375D01*
X45964975Y-47394105D01*
X45903651Y-47427587D01*
X45833959Y-47422600D01*
X45821003Y-47416905D01*
X45693373Y-47351873D01*
X45505646Y-47290876D01*
X45310697Y-47260000D01*
X45113303Y-47260000D01*
X44918353Y-47290876D01*
X44730626Y-47351873D01*
X44554762Y-47441482D01*
X44554760Y-47441483D01*
X44519010Y-47467456D01*
X44519010Y-47467457D01*
X45082590Y-48031037D01*
X45019007Y-48048075D01*
X44904993Y-48113901D01*
X44811901Y-48206993D01*
X44746075Y-48321007D01*
X44729037Y-48384590D01*
X44165457Y-47821010D01*
X44165456Y-47821010D01*
X44139483Y-47856760D01*
X44139482Y-47856762D01*
X44049873Y-48032626D01*
X43988876Y-48220353D01*
X43958000Y-48415302D01*
X43021616Y-48415302D01*
X43021616Y-23015263D01*
X43957500Y-23015263D01*
X43957500Y-23212736D01*
X43988389Y-23407763D01*
X44029408Y-23534005D01*
X44049409Y-23595561D01*
X44139056Y-23771501D01*
X44139058Y-23771504D01*
X44255115Y-23931246D01*
X44394753Y-24070884D01*
X44544234Y-24179486D01*
X44554499Y-24186944D01*
X44730439Y-24276591D01*
X44855637Y-24317270D01*
X44918236Y-24337610D01*
X45113264Y-24368500D01*
X45113269Y-24368500D01*
X45310736Y-24368500D01*
X45505763Y-24337610D01*
X45693561Y-24276591D01*
X45869501Y-24186944D01*
X45959192Y-24121779D01*
X46029246Y-24070884D01*
X46029248Y-24070881D01*
X46029252Y-24070879D01*
X46168879Y-23931252D01*
X46168881Y-23931248D01*
X46168884Y-23931246D01*
X46284941Y-23771505D01*
X46284942Y-23771504D01*
X46284944Y-23771501D01*
X46371517Y-23601593D01*
X46419490Y-23550800D01*
X46487311Y-23534005D01*
X46553446Y-23556542D01*
X46592482Y-23601593D01*
X46675804Y-23765119D01*
X46679058Y-23771505D01*
X46795115Y-23931246D01*
X46934753Y-24070884D01*
X47084234Y-24179486D01*
X47094499Y-24186944D01*
X47270439Y-24276591D01*
X47395637Y-24317270D01*
X47458236Y-24337610D01*
X47653264Y-24368500D01*
X47653269Y-24368500D01*
X47850736Y-24368500D01*
X48045763Y-24337610D01*
X48233561Y-24276591D01*
X48409501Y-24186944D01*
X48499192Y-24121779D01*
X48569246Y-24070884D01*
X48569248Y-24070881D01*
X48569252Y-24070879D01*
X48708879Y-23931252D01*
X48708881Y-23931248D01*
X48708884Y-23931246D01*
X48824941Y-23771505D01*
X48824942Y-23771504D01*
X48824944Y-23771501D01*
X48911517Y-23601593D01*
X48959490Y-23550800D01*
X49027311Y-23534005D01*
X49093446Y-23556542D01*
X49132482Y-23601593D01*
X49215804Y-23765119D01*
X49219058Y-23771505D01*
X49335115Y-23931246D01*
X49474753Y-24070884D01*
X49624234Y-24179486D01*
X49634499Y-24186944D01*
X49810439Y-24276591D01*
X49935637Y-24317270D01*
X49998236Y-24337610D01*
X50193264Y-24368500D01*
X50193269Y-24368500D01*
X50390736Y-24368500D01*
X50585763Y-24337610D01*
X50773561Y-24276591D01*
X50949501Y-24186944D01*
X51039192Y-24121779D01*
X51109246Y-24070884D01*
X51109248Y-24070881D01*
X51109252Y-24070879D01*
X51248879Y-23931252D01*
X51248881Y-23931248D01*
X51248884Y-23931246D01*
X51364941Y-23771505D01*
X51364942Y-23771504D01*
X51364944Y-23771501D01*
X51451517Y-23601593D01*
X51499490Y-23550800D01*
X51567311Y-23534005D01*
X51633446Y-23556542D01*
X51672482Y-23601593D01*
X51755804Y-23765119D01*
X51759058Y-23771505D01*
X51875115Y-23931246D01*
X52014753Y-24070884D01*
X52164234Y-24179486D01*
X52174499Y-24186944D01*
X52350439Y-24276591D01*
X52475637Y-24317270D01*
X52538236Y-24337610D01*
X52733264Y-24368500D01*
X52733269Y-24368500D01*
X52930736Y-24368500D01*
X53125763Y-24337610D01*
X53313561Y-24276591D01*
X53489501Y-24186944D01*
X53579192Y-24121779D01*
X53649246Y-24070884D01*
X53649248Y-24070881D01*
X53649252Y-24070879D01*
X53788879Y-23931252D01*
X53788881Y-23931248D01*
X53788884Y-23931246D01*
X53904941Y-23771505D01*
X53904942Y-23771504D01*
X53904944Y-23771501D01*
X53991517Y-23601593D01*
X54039490Y-23550800D01*
X54107311Y-23534005D01*
X54173446Y-23556542D01*
X54212482Y-23601593D01*
X54295804Y-23765119D01*
X54299058Y-23771505D01*
X54415115Y-23931246D01*
X54554753Y-24070884D01*
X54704234Y-24179486D01*
X54714499Y-24186944D01*
X54890439Y-24276591D01*
X55015637Y-24317270D01*
X55078236Y-24337610D01*
X55273264Y-24368500D01*
X55273269Y-24368500D01*
X55470736Y-24368500D01*
X55665763Y-24337610D01*
X55853561Y-24276591D01*
X56029501Y-24186944D01*
X56119192Y-24121779D01*
X56189246Y-24070884D01*
X56189248Y-24070881D01*
X56189252Y-24070879D01*
X56328879Y-23931252D01*
X56328881Y-23931248D01*
X56328884Y-23931246D01*
X56444941Y-23771505D01*
X56444942Y-23771504D01*
X56444944Y-23771501D01*
X56531517Y-23601593D01*
X56579490Y-23550800D01*
X56647311Y-23534005D01*
X56713446Y-23556542D01*
X56752482Y-23601593D01*
X56835804Y-23765119D01*
X56839058Y-23771505D01*
X56955115Y-23931246D01*
X57094753Y-24070884D01*
X57244234Y-24179486D01*
X57254499Y-24186944D01*
X57430439Y-24276591D01*
X57555637Y-24317270D01*
X57618236Y-24337610D01*
X57813264Y-24368500D01*
X57813269Y-24368500D01*
X58010736Y-24368500D01*
X58205763Y-24337610D01*
X58393561Y-24276591D01*
X58569501Y-24186944D01*
X58659192Y-24121779D01*
X58729246Y-24070884D01*
X58729248Y-24070881D01*
X58729252Y-24070879D01*
X58868879Y-23931252D01*
X58868881Y-23931248D01*
X58868884Y-23931246D01*
X58984941Y-23771505D01*
X58984942Y-23771504D01*
X58984944Y-23771501D01*
X59071517Y-23601593D01*
X59119490Y-23550800D01*
X59187311Y-23534005D01*
X59253446Y-23556542D01*
X59292482Y-23601593D01*
X59375804Y-23765119D01*
X59379058Y-23771505D01*
X59495115Y-23931246D01*
X59634753Y-24070884D01*
X59784234Y-24179486D01*
X59794499Y-24186944D01*
X59970439Y-24276591D01*
X60095637Y-24317270D01*
X60158236Y-24337610D01*
X60353264Y-24368500D01*
X60353269Y-24368500D01*
X60550736Y-24368500D01*
X60745763Y-24337610D01*
X60933561Y-24276591D01*
X61109501Y-24186944D01*
X61199192Y-24121779D01*
X61269246Y-24070884D01*
X61269248Y-24070881D01*
X61269252Y-24070879D01*
X61408879Y-23931252D01*
X61408881Y-23931248D01*
X61408884Y-23931246D01*
X61524941Y-23771505D01*
X61524942Y-23771504D01*
X61524944Y-23771501D01*
X61611517Y-23601593D01*
X61659490Y-23550800D01*
X61727311Y-23534005D01*
X61793446Y-23556542D01*
X61832482Y-23601593D01*
X61915804Y-23765119D01*
X61919058Y-23771505D01*
X62035115Y-23931246D01*
X62174753Y-24070884D01*
X62324234Y-24179486D01*
X62334499Y-24186944D01*
X62510439Y-24276591D01*
X62635637Y-24317270D01*
X62698236Y-24337610D01*
X62893264Y-24368500D01*
X62893269Y-24368500D01*
X63090736Y-24368500D01*
X63285763Y-24337610D01*
X63473561Y-24276591D01*
X63649501Y-24186944D01*
X63739192Y-24121779D01*
X63809246Y-24070884D01*
X63809248Y-24070881D01*
X63809252Y-24070879D01*
X63948879Y-23931252D01*
X63948881Y-23931248D01*
X63948884Y-23931246D01*
X64064941Y-23771505D01*
X64064942Y-23771504D01*
X64064944Y-23771501D01*
X64151517Y-23601593D01*
X64199490Y-23550800D01*
X64267311Y-23534005D01*
X64333446Y-23556542D01*
X64372482Y-23601593D01*
X64455804Y-23765119D01*
X64459058Y-23771505D01*
X64575115Y-23931246D01*
X64714753Y-24070884D01*
X64864234Y-24179486D01*
X64874499Y-24186944D01*
X65050439Y-24276591D01*
X65175637Y-24317270D01*
X65238236Y-24337610D01*
X65433264Y-24368500D01*
X65433269Y-24368500D01*
X65630736Y-24368500D01*
X65825763Y-24337610D01*
X66013561Y-24276591D01*
X66189501Y-24186944D01*
X66279192Y-24121779D01*
X66349246Y-24070884D01*
X66349248Y-24070881D01*
X66349252Y-24070879D01*
X66488879Y-23931252D01*
X66488881Y-23931248D01*
X66488884Y-23931246D01*
X66604941Y-23771505D01*
X66604942Y-23771504D01*
X66604944Y-23771501D01*
X66691517Y-23601593D01*
X66739490Y-23550800D01*
X66807311Y-23534005D01*
X66873446Y-23556542D01*
X66912482Y-23601593D01*
X66995804Y-23765119D01*
X66999058Y-23771505D01*
X67115115Y-23931246D01*
X67254753Y-24070884D01*
X67404234Y-24179486D01*
X67414499Y-24186944D01*
X67590439Y-24276591D01*
X67715637Y-24317270D01*
X67778236Y-24337610D01*
X67973264Y-24368500D01*
X67973269Y-24368500D01*
X68170736Y-24368500D01*
X68365763Y-24337610D01*
X68553561Y-24276591D01*
X68729501Y-24186944D01*
X68819192Y-24121779D01*
X68889246Y-24070884D01*
X68889248Y-24070881D01*
X68889252Y-24070879D01*
X69028879Y-23931252D01*
X69028881Y-23931248D01*
X69028884Y-23931246D01*
X69144941Y-23771505D01*
X69144942Y-23771504D01*
X69144944Y-23771501D01*
X69231517Y-23601593D01*
X69279490Y-23550800D01*
X69347311Y-23534005D01*
X69413446Y-23556542D01*
X69452482Y-23601593D01*
X69535804Y-23765119D01*
X69539058Y-23771505D01*
X69655115Y-23931246D01*
X69794753Y-24070884D01*
X69944234Y-24179486D01*
X69954499Y-24186944D01*
X70130439Y-24276591D01*
X70255637Y-24317270D01*
X70318236Y-24337610D01*
X70513264Y-24368500D01*
X70513269Y-24368500D01*
X70710736Y-24368500D01*
X70905763Y-24337610D01*
X71093561Y-24276591D01*
X71269501Y-24186944D01*
X71359192Y-24121779D01*
X71429246Y-24070884D01*
X71429248Y-24070881D01*
X71429252Y-24070879D01*
X71568879Y-23931252D01*
X71568881Y-23931248D01*
X71568884Y-23931246D01*
X71684941Y-23771505D01*
X71684942Y-23771504D01*
X71684944Y-23771501D01*
X71771517Y-23601593D01*
X71819490Y-23550800D01*
X71887311Y-23534005D01*
X71953446Y-23556542D01*
X71992482Y-23601593D01*
X72075804Y-23765119D01*
X72079058Y-23771505D01*
X72195115Y-23931246D01*
X72334753Y-24070884D01*
X72484234Y-24179486D01*
X72494499Y-24186944D01*
X72670439Y-24276591D01*
X72795637Y-24317270D01*
X72858236Y-24337610D01*
X73053264Y-24368500D01*
X73053269Y-24368500D01*
X73250736Y-24368500D01*
X73445763Y-24337610D01*
X73633561Y-24276591D01*
X73809501Y-24186944D01*
X73899192Y-24121779D01*
X73969246Y-24070884D01*
X73969248Y-24070881D01*
X73969252Y-24070879D01*
X74108879Y-23931252D01*
X74108881Y-23931248D01*
X74108884Y-23931246D01*
X74224941Y-23771505D01*
X74224942Y-23771504D01*
X74224944Y-23771501D01*
X74311517Y-23601593D01*
X74359490Y-23550800D01*
X74427311Y-23534005D01*
X74493446Y-23556542D01*
X74532482Y-23601593D01*
X74615804Y-23765119D01*
X74619058Y-23771505D01*
X74735115Y-23931246D01*
X74874753Y-24070884D01*
X75024234Y-24179486D01*
X75034499Y-24186944D01*
X75210439Y-24276591D01*
X75335637Y-24317270D01*
X75398236Y-24337610D01*
X75593264Y-24368500D01*
X75593269Y-24368500D01*
X75790736Y-24368500D01*
X75985763Y-24337610D01*
X76173561Y-24276591D01*
X76349501Y-24186944D01*
X76439192Y-24121779D01*
X76509246Y-24070884D01*
X76509248Y-24070881D01*
X76509252Y-24070879D01*
X76648879Y-23931252D01*
X76648881Y-23931248D01*
X76648884Y-23931246D01*
X76764941Y-23771505D01*
X76764942Y-23771504D01*
X76764944Y-23771501D01*
X76851517Y-23601593D01*
X76899490Y-23550800D01*
X76967311Y-23534005D01*
X77033446Y-23556542D01*
X77072482Y-23601593D01*
X77155804Y-23765119D01*
X77159058Y-23771505D01*
X77275115Y-23931246D01*
X77414753Y-24070884D01*
X77564234Y-24179486D01*
X77574499Y-24186944D01*
X77750439Y-24276591D01*
X77875637Y-24317270D01*
X77938236Y-24337610D01*
X78133264Y-24368500D01*
X78133269Y-24368500D01*
X78330736Y-24368500D01*
X78525763Y-24337610D01*
X78713561Y-24276591D01*
X78889501Y-24186944D01*
X78979192Y-24121779D01*
X79049246Y-24070884D01*
X79049248Y-24070881D01*
X79049252Y-24070879D01*
X79188879Y-23931252D01*
X79188881Y-23931248D01*
X79188884Y-23931246D01*
X79304941Y-23771505D01*
X79304942Y-23771504D01*
X79304944Y-23771501D01*
X79391517Y-23601593D01*
X79439490Y-23550800D01*
X79507311Y-23534005D01*
X79573446Y-23556542D01*
X79612482Y-23601593D01*
X79695804Y-23765119D01*
X79699058Y-23771505D01*
X79815115Y-23931246D01*
X79954753Y-24070884D01*
X80104234Y-24179486D01*
X80114499Y-24186944D01*
X80290439Y-24276591D01*
X80415637Y-24317270D01*
X80478236Y-24337610D01*
X80673264Y-24368500D01*
X80673269Y-24368500D01*
X80870736Y-24368500D01*
X81065763Y-24337610D01*
X81253561Y-24276591D01*
X81429501Y-24186944D01*
X81519192Y-24121779D01*
X81589246Y-24070884D01*
X81589248Y-24070881D01*
X81589252Y-24070879D01*
X81728879Y-23931252D01*
X81728881Y-23931248D01*
X81728884Y-23931246D01*
X81844941Y-23771505D01*
X81844942Y-23771504D01*
X81844944Y-23771501D01*
X81931517Y-23601593D01*
X81979490Y-23550800D01*
X82047311Y-23534005D01*
X82113446Y-23556542D01*
X82152482Y-23601593D01*
X82235804Y-23765119D01*
X82239058Y-23771505D01*
X82355115Y-23931246D01*
X82494753Y-24070884D01*
X82644234Y-24179486D01*
X82654499Y-24186944D01*
X82830439Y-24276591D01*
X82955637Y-24317270D01*
X83018236Y-24337610D01*
X83213264Y-24368500D01*
X83213269Y-24368500D01*
X83410736Y-24368500D01*
X83605763Y-24337610D01*
X83793561Y-24276591D01*
X83969501Y-24186944D01*
X84059192Y-24121779D01*
X84129246Y-24070884D01*
X84129248Y-24070881D01*
X84129252Y-24070879D01*
X84268879Y-23931252D01*
X84268881Y-23931248D01*
X84268884Y-23931246D01*
X84384941Y-23771505D01*
X84384942Y-23771504D01*
X84384944Y-23771501D01*
X84471517Y-23601593D01*
X84519490Y-23550800D01*
X84587311Y-23534005D01*
X84653446Y-23556542D01*
X84692482Y-23601593D01*
X84775804Y-23765119D01*
X84779058Y-23771505D01*
X84895115Y-23931246D01*
X85034753Y-24070884D01*
X85184234Y-24179486D01*
X85194499Y-24186944D01*
X85370439Y-24276591D01*
X85495637Y-24317270D01*
X85558236Y-24337610D01*
X85753264Y-24368500D01*
X85753269Y-24368500D01*
X85950736Y-24368500D01*
X86145763Y-24337610D01*
X86333561Y-24276591D01*
X86509501Y-24186944D01*
X86599192Y-24121779D01*
X86669246Y-24070884D01*
X86669248Y-24070881D01*
X86669252Y-24070879D01*
X86808879Y-23931252D01*
X86808881Y-23931248D01*
X86808884Y-23931246D01*
X86924941Y-23771505D01*
X86924942Y-23771504D01*
X86924944Y-23771501D01*
X87011517Y-23601593D01*
X87059490Y-23550800D01*
X87127311Y-23534005D01*
X87193446Y-23556542D01*
X87232482Y-23601593D01*
X87315804Y-23765119D01*
X87319058Y-23771505D01*
X87435115Y-23931246D01*
X87574753Y-24070884D01*
X87724234Y-24179486D01*
X87734499Y-24186944D01*
X87910439Y-24276591D01*
X88035637Y-24317270D01*
X88098236Y-24337610D01*
X88293264Y-24368500D01*
X88293269Y-24368500D01*
X88490736Y-24368500D01*
X88685763Y-24337610D01*
X88873561Y-24276591D01*
X89049501Y-24186944D01*
X89139192Y-24121779D01*
X89209246Y-24070884D01*
X89209248Y-24070881D01*
X89209252Y-24070879D01*
X89348879Y-23931252D01*
X89348881Y-23931248D01*
X89348884Y-23931246D01*
X89464941Y-23771505D01*
X89464942Y-23771504D01*
X89464944Y-23771501D01*
X89551517Y-23601593D01*
X89599490Y-23550800D01*
X89667311Y-23534005D01*
X89733446Y-23556542D01*
X89772482Y-23601593D01*
X89855804Y-23765119D01*
X89859058Y-23771505D01*
X89975115Y-23931246D01*
X90114753Y-24070884D01*
X90264234Y-24179486D01*
X90274499Y-24186944D01*
X90450439Y-24276591D01*
X90575637Y-24317270D01*
X90638236Y-24337610D01*
X90833264Y-24368500D01*
X90833269Y-24368500D01*
X91030736Y-24368500D01*
X91225763Y-24337610D01*
X91413561Y-24276591D01*
X91589501Y-24186944D01*
X91679192Y-24121779D01*
X91749246Y-24070884D01*
X91749248Y-24070881D01*
X91749252Y-24070879D01*
X91888879Y-23931252D01*
X91888881Y-23931248D01*
X91888884Y-23931246D01*
X92004941Y-23771505D01*
X92004942Y-23771504D01*
X92004944Y-23771501D01*
X92091517Y-23601593D01*
X92139490Y-23550800D01*
X92207311Y-23534005D01*
X92273446Y-23556542D01*
X92312482Y-23601593D01*
X92395804Y-23765119D01*
X92399058Y-23771505D01*
X92515115Y-23931246D01*
X92654753Y-24070884D01*
X92804234Y-24179486D01*
X92814499Y-24186944D01*
X92990439Y-24276591D01*
X93115637Y-24317270D01*
X93178236Y-24337610D01*
X93373264Y-24368500D01*
X93373269Y-24368500D01*
X93570736Y-24368500D01*
X93765763Y-24337610D01*
X93953561Y-24276591D01*
X94129501Y-24186944D01*
X94219192Y-24121779D01*
X94289246Y-24070884D01*
X94289248Y-24070881D01*
X94289252Y-24070879D01*
X94428879Y-23931252D01*
X94428881Y-23931248D01*
X94428884Y-23931246D01*
X94544941Y-23771505D01*
X94544942Y-23771504D01*
X94544944Y-23771501D01*
X94631517Y-23601593D01*
X94679490Y-23550800D01*
X94747311Y-23534005D01*
X94813446Y-23556542D01*
X94852482Y-23601593D01*
X94935804Y-23765119D01*
X94939058Y-23771505D01*
X95055115Y-23931246D01*
X95194753Y-24070884D01*
X95344234Y-24179486D01*
X95354499Y-24186944D01*
X95530439Y-24276591D01*
X95655637Y-24317270D01*
X95718236Y-24337610D01*
X95913264Y-24368500D01*
X95913269Y-24368500D01*
X96110736Y-24368500D01*
X96305763Y-24337610D01*
X96493561Y-24276591D01*
X96669501Y-24186944D01*
X96759192Y-24121779D01*
X96829246Y-24070884D01*
X96829248Y-24070881D01*
X96829252Y-24070879D01*
X96968879Y-23931252D01*
X96968881Y-23931248D01*
X96968884Y-23931246D01*
X97084941Y-23771505D01*
X97084942Y-23771504D01*
X97084944Y-23771501D01*
X97171517Y-23601593D01*
X97219490Y-23550800D01*
X97287311Y-23534005D01*
X97353446Y-23556542D01*
X97392482Y-23601593D01*
X97475804Y-23765119D01*
X97479058Y-23771505D01*
X97595115Y-23931246D01*
X97734753Y-24070884D01*
X97884234Y-24179486D01*
X97894499Y-24186944D01*
X98070439Y-24276591D01*
X98195637Y-24317270D01*
X98258236Y-24337610D01*
X98453264Y-24368500D01*
X98453269Y-24368500D01*
X98650736Y-24368500D01*
X98845763Y-24337610D01*
X99033561Y-24276591D01*
X99209501Y-24186944D01*
X99299192Y-24121779D01*
X99369246Y-24070884D01*
X99369248Y-24070881D01*
X99369252Y-24070879D01*
X99508879Y-23931252D01*
X99508881Y-23931248D01*
X99508884Y-23931246D01*
X99559779Y-23861192D01*
X99624944Y-23771501D01*
X99714591Y-23595561D01*
X99775610Y-23407763D01*
X99806500Y-23212736D01*
X99806500Y-23015263D01*
X99775610Y-22820236D01*
X99727268Y-22671456D01*
X99714591Y-22632439D01*
X99624944Y-22456499D01*
X99617486Y-22446234D01*
X99508884Y-22296753D01*
X99369246Y-22157115D01*
X99209504Y-22041058D01*
X99209503Y-22041057D01*
X99209501Y-22041056D01*
X99033561Y-21951409D01*
X99033558Y-21951408D01*
X98845763Y-21890389D01*
X98650736Y-21859500D01*
X98650731Y-21859500D01*
X98453269Y-21859500D01*
X98453264Y-21859500D01*
X98258236Y-21890389D01*
X98070441Y-21951408D01*
X97894495Y-22041058D01*
X97734753Y-22157115D01*
X97595115Y-22296753D01*
X97479058Y-22456495D01*
X97392485Y-22626403D01*
X97344510Y-22677199D01*
X97276689Y-22693994D01*
X97210554Y-22671456D01*
X97171515Y-22626403D01*
X97084944Y-22456499D01*
X97077486Y-22446234D01*
X96968884Y-22296753D01*
X96829246Y-22157115D01*
X96669504Y-22041058D01*
X96669503Y-22041057D01*
X96669501Y-22041056D01*
X96493561Y-21951409D01*
X96493558Y-21951408D01*
X96305763Y-21890389D01*
X96110736Y-21859500D01*
X96110731Y-21859500D01*
X95913269Y-21859500D01*
X95913264Y-21859500D01*
X95718236Y-21890389D01*
X95530441Y-21951408D01*
X95354495Y-22041058D01*
X95194753Y-22157115D01*
X95055115Y-22296753D01*
X94939058Y-22456495D01*
X94852485Y-22626403D01*
X94804510Y-22677199D01*
X94736689Y-22693994D01*
X94670554Y-22671456D01*
X94631515Y-22626403D01*
X94544944Y-22456499D01*
X94537486Y-22446234D01*
X94428884Y-22296753D01*
X94289246Y-22157115D01*
X94129504Y-22041058D01*
X94129503Y-22041057D01*
X94129501Y-22041056D01*
X93953561Y-21951409D01*
X93953558Y-21951408D01*
X93765763Y-21890389D01*
X93570736Y-21859500D01*
X93570731Y-21859500D01*
X93373269Y-21859500D01*
X93373264Y-21859500D01*
X93178236Y-21890389D01*
X92990441Y-21951408D01*
X92814495Y-22041058D01*
X92654753Y-22157115D01*
X92515115Y-22296753D01*
X92399058Y-22456495D01*
X92312485Y-22626403D01*
X92264510Y-22677199D01*
X92196689Y-22693994D01*
X92130554Y-22671456D01*
X92091515Y-22626403D01*
X92004944Y-22456499D01*
X91997486Y-22446234D01*
X91888884Y-22296753D01*
X91749246Y-22157115D01*
X91589504Y-22041058D01*
X91589503Y-22041057D01*
X91589501Y-22041056D01*
X91413561Y-21951409D01*
X91413558Y-21951408D01*
X91225763Y-21890389D01*
X91030736Y-21859500D01*
X91030731Y-21859500D01*
X90833269Y-21859500D01*
X90833264Y-21859500D01*
X90638236Y-21890389D01*
X90450441Y-21951408D01*
X90274495Y-22041058D01*
X90114753Y-22157115D01*
X89975115Y-22296753D01*
X89859058Y-22456495D01*
X89772485Y-22626403D01*
X89724510Y-22677199D01*
X89656689Y-22693994D01*
X89590554Y-22671456D01*
X89551515Y-22626403D01*
X89464944Y-22456499D01*
X89457486Y-22446234D01*
X89348884Y-22296753D01*
X89209246Y-22157115D01*
X89049504Y-22041058D01*
X89049503Y-22041057D01*
X89049501Y-22041056D01*
X88873561Y-21951409D01*
X88873558Y-21951408D01*
X88685763Y-21890389D01*
X88490736Y-21859500D01*
X88490731Y-21859500D01*
X88293269Y-21859500D01*
X88293264Y-21859500D01*
X88098236Y-21890389D01*
X87910441Y-21951408D01*
X87734495Y-22041058D01*
X87574753Y-22157115D01*
X87435115Y-22296753D01*
X87319058Y-22456495D01*
X87232485Y-22626403D01*
X87184510Y-22677199D01*
X87116689Y-22693994D01*
X87050554Y-22671456D01*
X87011515Y-22626403D01*
X86924944Y-22456499D01*
X86917486Y-22446234D01*
X86808884Y-22296753D01*
X86669246Y-22157115D01*
X86509504Y-22041058D01*
X86509503Y-22041057D01*
X86509501Y-22041056D01*
X86333561Y-21951409D01*
X86333558Y-21951408D01*
X86145763Y-21890389D01*
X85950736Y-21859500D01*
X85950731Y-21859500D01*
X85753269Y-21859500D01*
X85753264Y-21859500D01*
X85558236Y-21890389D01*
X85370441Y-21951408D01*
X85194495Y-22041058D01*
X85034753Y-22157115D01*
X84895115Y-22296753D01*
X84779058Y-22456495D01*
X84692485Y-22626403D01*
X84644510Y-22677199D01*
X84576689Y-22693994D01*
X84510554Y-22671456D01*
X84471515Y-22626403D01*
X84384944Y-22456499D01*
X84377486Y-22446234D01*
X84268884Y-22296753D01*
X84129246Y-22157115D01*
X83969504Y-22041058D01*
X83969503Y-22041057D01*
X83969501Y-22041056D01*
X83793561Y-21951409D01*
X83793558Y-21951408D01*
X83605763Y-21890389D01*
X83410736Y-21859500D01*
X83410731Y-21859500D01*
X83213269Y-21859500D01*
X83213264Y-21859500D01*
X83018236Y-21890389D01*
X82830441Y-21951408D01*
X82654495Y-22041058D01*
X82494753Y-22157115D01*
X82355115Y-22296753D01*
X82239058Y-22456495D01*
X82152485Y-22626403D01*
X82104510Y-22677199D01*
X82036689Y-22693994D01*
X81970554Y-22671456D01*
X81931515Y-22626403D01*
X81844944Y-22456499D01*
X81837486Y-22446234D01*
X81728884Y-22296753D01*
X81589246Y-22157115D01*
X81429504Y-22041058D01*
X81429503Y-22041057D01*
X81429501Y-22041056D01*
X81253561Y-21951409D01*
X81253558Y-21951408D01*
X81065763Y-21890389D01*
X80870736Y-21859500D01*
X80870731Y-21859500D01*
X80673269Y-21859500D01*
X80673264Y-21859500D01*
X80478236Y-21890389D01*
X80290441Y-21951408D01*
X80114495Y-22041058D01*
X79954753Y-22157115D01*
X79815115Y-22296753D01*
X79699058Y-22456495D01*
X79612485Y-22626403D01*
X79564510Y-22677199D01*
X79496689Y-22693994D01*
X79430554Y-22671456D01*
X79391515Y-22626403D01*
X79304944Y-22456499D01*
X79297486Y-22446234D01*
X79188884Y-22296753D01*
X79049246Y-22157115D01*
X78889504Y-22041058D01*
X78889503Y-22041057D01*
X78889501Y-22041056D01*
X78713561Y-21951409D01*
X78713558Y-21951408D01*
X78525763Y-21890389D01*
X78330736Y-21859500D01*
X78330731Y-21859500D01*
X78133269Y-21859500D01*
X78133264Y-21859500D01*
X77938236Y-21890389D01*
X77750441Y-21951408D01*
X77574495Y-22041058D01*
X77414753Y-22157115D01*
X77275115Y-22296753D01*
X77159058Y-22456495D01*
X77072485Y-22626403D01*
X77024510Y-22677199D01*
X76956689Y-22693994D01*
X76890554Y-22671456D01*
X76851515Y-22626403D01*
X76764944Y-22456499D01*
X76757486Y-22446234D01*
X76648884Y-22296753D01*
X76509246Y-22157115D01*
X76349504Y-22041058D01*
X76349503Y-22041057D01*
X76349501Y-22041056D01*
X76173561Y-21951409D01*
X76173558Y-21951408D01*
X75985763Y-21890389D01*
X75790736Y-21859500D01*
X75790731Y-21859500D01*
X75593269Y-21859500D01*
X75593264Y-21859500D01*
X75398236Y-21890389D01*
X75210441Y-21951408D01*
X75034495Y-22041058D01*
X74874753Y-22157115D01*
X74735115Y-22296753D01*
X74619058Y-22456495D01*
X74532485Y-22626403D01*
X74484510Y-22677199D01*
X74416689Y-22693994D01*
X74350554Y-22671456D01*
X74311515Y-22626403D01*
X74224944Y-22456499D01*
X74217486Y-22446234D01*
X74108884Y-22296753D01*
X73969246Y-22157115D01*
X73809504Y-22041058D01*
X73809503Y-22041057D01*
X73809501Y-22041056D01*
X73633561Y-21951409D01*
X73633558Y-21951408D01*
X73445763Y-21890389D01*
X73250736Y-21859500D01*
X73250731Y-21859500D01*
X73053269Y-21859500D01*
X73053264Y-21859500D01*
X72858236Y-21890389D01*
X72670441Y-21951408D01*
X72494495Y-22041058D01*
X72334753Y-22157115D01*
X72195115Y-22296753D01*
X72079058Y-22456495D01*
X71992485Y-22626403D01*
X71944510Y-22677199D01*
X71876689Y-22693994D01*
X71810554Y-22671456D01*
X71771515Y-22626403D01*
X71684944Y-22456499D01*
X71677486Y-22446234D01*
X71568884Y-22296753D01*
X71429246Y-22157115D01*
X71269504Y-22041058D01*
X71269503Y-22041057D01*
X71269501Y-22041056D01*
X71093561Y-21951409D01*
X71093558Y-21951408D01*
X70905763Y-21890389D01*
X70710736Y-21859500D01*
X70710731Y-21859500D01*
X70513269Y-21859500D01*
X70513264Y-21859500D01*
X70318236Y-21890389D01*
X70130441Y-21951408D01*
X69954495Y-22041058D01*
X69794753Y-22157115D01*
X69655115Y-22296753D01*
X69539058Y-22456495D01*
X69452485Y-22626403D01*
X69404510Y-22677199D01*
X69336689Y-22693994D01*
X69270554Y-22671456D01*
X69231515Y-22626403D01*
X69144944Y-22456499D01*
X69137486Y-22446234D01*
X69028884Y-22296753D01*
X68889246Y-22157115D01*
X68729504Y-22041058D01*
X68729503Y-22041057D01*
X68729501Y-22041056D01*
X68553561Y-21951409D01*
X68553558Y-21951408D01*
X68365763Y-21890389D01*
X68170736Y-21859500D01*
X68170731Y-21859500D01*
X67973269Y-21859500D01*
X67973264Y-21859500D01*
X67778236Y-21890389D01*
X67590441Y-21951408D01*
X67414495Y-22041058D01*
X67254753Y-22157115D01*
X67115115Y-22296753D01*
X66999058Y-22456495D01*
X66912485Y-22626403D01*
X66864510Y-22677199D01*
X66796689Y-22693994D01*
X66730554Y-22671456D01*
X66691515Y-22626403D01*
X66604944Y-22456499D01*
X66597486Y-22446234D01*
X66488884Y-22296753D01*
X66349246Y-22157115D01*
X66189504Y-22041058D01*
X66189503Y-22041057D01*
X66189501Y-22041056D01*
X66013561Y-21951409D01*
X66013558Y-21951408D01*
X65825763Y-21890389D01*
X65630736Y-21859500D01*
X65630731Y-21859500D01*
X65433269Y-21859500D01*
X65433264Y-21859500D01*
X65238236Y-21890389D01*
X65050441Y-21951408D01*
X64874495Y-22041058D01*
X64714753Y-22157115D01*
X64575115Y-22296753D01*
X64459058Y-22456495D01*
X64372485Y-22626403D01*
X64324510Y-22677199D01*
X64256689Y-22693994D01*
X64190554Y-22671456D01*
X64151515Y-22626403D01*
X64064944Y-22456499D01*
X64057486Y-22446234D01*
X63948884Y-22296753D01*
X63809246Y-22157115D01*
X63649504Y-22041058D01*
X63649503Y-22041057D01*
X63649501Y-22041056D01*
X63473561Y-21951409D01*
X63473558Y-21951408D01*
X63285763Y-21890389D01*
X63090736Y-21859500D01*
X63090731Y-21859500D01*
X62893269Y-21859500D01*
X62893264Y-21859500D01*
X62698236Y-21890389D01*
X62510441Y-21951408D01*
X62334495Y-22041058D01*
X62174753Y-22157115D01*
X62035115Y-22296753D01*
X61919058Y-22456495D01*
X61832485Y-22626403D01*
X61784510Y-22677199D01*
X61716689Y-22693994D01*
X61650554Y-22671456D01*
X61611515Y-22626403D01*
X61524944Y-22456499D01*
X61517486Y-22446234D01*
X61408884Y-22296753D01*
X61269246Y-22157115D01*
X61109504Y-22041058D01*
X61109503Y-22041057D01*
X61109501Y-22041056D01*
X60933561Y-21951409D01*
X60933558Y-21951408D01*
X60745763Y-21890389D01*
X60550736Y-21859500D01*
X60550731Y-21859500D01*
X60353269Y-21859500D01*
X60353264Y-21859500D01*
X60158236Y-21890389D01*
X59970441Y-21951408D01*
X59794495Y-22041058D01*
X59634753Y-22157115D01*
X59495115Y-22296753D01*
X59379058Y-22456495D01*
X59292485Y-22626403D01*
X59244510Y-22677199D01*
X59176689Y-22693994D01*
X59110554Y-22671456D01*
X59071515Y-22626403D01*
X58984944Y-22456499D01*
X58977486Y-22446234D01*
X58868884Y-22296753D01*
X58729246Y-22157115D01*
X58569504Y-22041058D01*
X58569503Y-22041057D01*
X58569501Y-22041056D01*
X58393561Y-21951409D01*
X58393558Y-21951408D01*
X58205763Y-21890389D01*
X58010736Y-21859500D01*
X58010731Y-21859500D01*
X57813269Y-21859500D01*
X57813264Y-21859500D01*
X57618236Y-21890389D01*
X57430441Y-21951408D01*
X57254495Y-22041058D01*
X57094753Y-22157115D01*
X56955115Y-22296753D01*
X56839058Y-22456495D01*
X56752485Y-22626403D01*
X56704510Y-22677199D01*
X56636689Y-22693994D01*
X56570554Y-22671456D01*
X56531515Y-22626403D01*
X56444944Y-22456499D01*
X56437486Y-22446234D01*
X56328884Y-22296753D01*
X56189246Y-22157115D01*
X56029504Y-22041058D01*
X56029503Y-22041057D01*
X56029501Y-22041056D01*
X55853561Y-21951409D01*
X55853558Y-21951408D01*
X55665763Y-21890389D01*
X55470736Y-21859500D01*
X55470731Y-21859500D01*
X55273269Y-21859500D01*
X55273264Y-21859500D01*
X55078236Y-21890389D01*
X54890441Y-21951408D01*
X54714495Y-22041058D01*
X54554753Y-22157115D01*
X54415115Y-22296753D01*
X54299058Y-22456495D01*
X54212485Y-22626403D01*
X54164510Y-22677199D01*
X54096689Y-22693994D01*
X54030554Y-22671456D01*
X53991515Y-22626403D01*
X53904944Y-22456499D01*
X53897486Y-22446234D01*
X53788884Y-22296753D01*
X53649246Y-22157115D01*
X53489504Y-22041058D01*
X53489503Y-22041057D01*
X53489501Y-22041056D01*
X53313561Y-21951409D01*
X53313558Y-21951408D01*
X53125763Y-21890389D01*
X52930736Y-21859500D01*
X52930731Y-21859500D01*
X52733269Y-21859500D01*
X52733264Y-21859500D01*
X52538236Y-21890389D01*
X52350441Y-21951408D01*
X52174495Y-22041058D01*
X52014753Y-22157115D01*
X51875115Y-22296753D01*
X51759058Y-22456495D01*
X51672485Y-22626403D01*
X51624510Y-22677199D01*
X51556689Y-22693994D01*
X51490554Y-22671456D01*
X51451515Y-22626403D01*
X51364944Y-22456499D01*
X51357486Y-22446234D01*
X51248884Y-22296753D01*
X51109246Y-22157115D01*
X50949504Y-22041058D01*
X50949503Y-22041057D01*
X50949501Y-22041056D01*
X50773561Y-21951409D01*
X50773558Y-21951408D01*
X50585763Y-21890389D01*
X50390736Y-21859500D01*
X50390731Y-21859500D01*
X50193269Y-21859500D01*
X50193264Y-21859500D01*
X49998236Y-21890389D01*
X49810441Y-21951408D01*
X49634495Y-22041058D01*
X49474753Y-22157115D01*
X49335115Y-22296753D01*
X49219058Y-22456495D01*
X49132485Y-22626403D01*
X49084510Y-22677199D01*
X49016689Y-22693994D01*
X48950554Y-22671456D01*
X48911515Y-22626403D01*
X48824944Y-22456499D01*
X48817486Y-22446234D01*
X48708884Y-22296753D01*
X48569246Y-22157115D01*
X48409504Y-22041058D01*
X48409503Y-22041057D01*
X48409501Y-22041056D01*
X48233561Y-21951409D01*
X48233558Y-21951408D01*
X48045763Y-21890389D01*
X47850736Y-21859500D01*
X47850731Y-21859500D01*
X47653269Y-21859500D01*
X47653264Y-21859500D01*
X47458236Y-21890389D01*
X47270441Y-21951408D01*
X47094495Y-22041058D01*
X46934753Y-22157115D01*
X46795115Y-22296753D01*
X46679058Y-22456495D01*
X46592485Y-22626403D01*
X46544510Y-22677199D01*
X46476689Y-22693994D01*
X46410554Y-22671456D01*
X46371515Y-22626403D01*
X46284944Y-22456499D01*
X46277486Y-22446234D01*
X46168884Y-22296753D01*
X46029246Y-22157115D01*
X45869504Y-22041058D01*
X45869503Y-22041057D01*
X45869501Y-22041056D01*
X45693561Y-21951409D01*
X45693558Y-21951408D01*
X45505763Y-21890389D01*
X45310736Y-21859500D01*
X45310731Y-21859500D01*
X45113269Y-21859500D01*
X45113264Y-21859500D01*
X44918236Y-21890389D01*
X44730441Y-21951408D01*
X44554495Y-22041058D01*
X44394753Y-22157115D01*
X44255115Y-22296753D01*
X44139058Y-22456495D01*
X44049408Y-22632441D01*
X43988389Y-22820236D01*
X43957500Y-23015263D01*
X43021616Y-23015263D01*
X43021616Y-21277143D01*
X43041301Y-21210104D01*
X43094105Y-21164349D01*
X43145616Y-21153143D01*
X125716616Y-21153143D01*
X125783655Y-21172828D01*
G37*
%TD.AperFunction*%
%TD*%
M02*
