%TF.GenerationSoftware,KiCad,Pcbnew,9.0.7*%
%TF.CreationDate,2026-03-24T08:54:29-04:00*%
%TF.ProjectId,CalculatorKeypadv4,43616c63-756c-4617-946f-724b65797061,rev?*%
%TF.SameCoordinates,Original*%
%TF.FileFunction,Legend,Bot*%
%TF.FilePolarity,Positive*%
%FSLAX46Y46*%
G04 Gerber Fmt 4.6, Leading zero omitted, Abs format (unit mm)*
G04 Created by KiCad (PCBNEW 9.0.7) date 2026-03-24 08:54:29*
%MOMM*%
%LPD*%
G01*
G04 APERTURE LIST*
%ADD10C,0.150000*%
%ADD11C,0.100000*%
%ADD12C,0.120000*%
%ADD13C,0.127000*%
%ADD14C,0.200000*%
%ADD15C,0.050000*%
G04 APERTURE END LIST*
D10*
X73833333Y-29904819D02*
X73833333Y-30619104D01*
X73833333Y-30619104D02*
X73880952Y-30761961D01*
X73880952Y-30761961D02*
X73976190Y-30857200D01*
X73976190Y-30857200D02*
X74119047Y-30904819D01*
X74119047Y-30904819D02*
X74214285Y-30904819D01*
X72833333Y-30904819D02*
X73404761Y-30904819D01*
X73119047Y-30904819D02*
X73119047Y-29904819D01*
X73119047Y-29904819D02*
X73214285Y-30047676D01*
X73214285Y-30047676D02*
X73309523Y-30142914D01*
X73309523Y-30142914D02*
X73404761Y-30190533D01*
X47833333Y-62454819D02*
X47833333Y-63169104D01*
X47833333Y-63169104D02*
X47880952Y-63311961D01*
X47880952Y-63311961D02*
X47976190Y-63407200D01*
X47976190Y-63407200D02*
X48119047Y-63454819D01*
X48119047Y-63454819D02*
X48214285Y-63454819D01*
X47404761Y-62550057D02*
X47357142Y-62502438D01*
X47357142Y-62502438D02*
X47261904Y-62454819D01*
X47261904Y-62454819D02*
X47023809Y-62454819D01*
X47023809Y-62454819D02*
X46928571Y-62502438D01*
X46928571Y-62502438D02*
X46880952Y-62550057D01*
X46880952Y-62550057D02*
X46833333Y-62645295D01*
X46833333Y-62645295D02*
X46833333Y-62740533D01*
X46833333Y-62740533D02*
X46880952Y-62883390D01*
X46880952Y-62883390D02*
X47452380Y-63454819D01*
X47452380Y-63454819D02*
X46833333Y-63454819D01*
X107641819Y-44827095D02*
X108451342Y-44827095D01*
X108451342Y-44827095D02*
X108546580Y-44874714D01*
X108546580Y-44874714D02*
X108594200Y-44922333D01*
X108594200Y-44922333D02*
X108641819Y-45017571D01*
X108641819Y-45017571D02*
X108641819Y-45208047D01*
X108641819Y-45208047D02*
X108594200Y-45303285D01*
X108594200Y-45303285D02*
X108546580Y-45350904D01*
X108546580Y-45350904D02*
X108451342Y-45398523D01*
X108451342Y-45398523D02*
X107641819Y-45398523D01*
X107737057Y-45827095D02*
X107689438Y-45874714D01*
X107689438Y-45874714D02*
X107641819Y-45969952D01*
X107641819Y-45969952D02*
X107641819Y-46208047D01*
X107641819Y-46208047D02*
X107689438Y-46303285D01*
X107689438Y-46303285D02*
X107737057Y-46350904D01*
X107737057Y-46350904D02*
X107832295Y-46398523D01*
X107832295Y-46398523D02*
X107927533Y-46398523D01*
X107927533Y-46398523D02*
X108070390Y-46350904D01*
X108070390Y-46350904D02*
X108641819Y-45779476D01*
X108641819Y-45779476D02*
X108641819Y-46398523D01*
D11*
X124753562Y-41751727D02*
X124705942Y-41608870D01*
X124705942Y-41608870D02*
X124705942Y-41370775D01*
X124705942Y-41370775D02*
X124753562Y-41275537D01*
X124753562Y-41275537D02*
X124801181Y-41227918D01*
X124801181Y-41227918D02*
X124896419Y-41180299D01*
X124896419Y-41180299D02*
X124991657Y-41180299D01*
X124991657Y-41180299D02*
X125086895Y-41227918D01*
X125086895Y-41227918D02*
X125134514Y-41275537D01*
X125134514Y-41275537D02*
X125182133Y-41370775D01*
X125182133Y-41370775D02*
X125229752Y-41561251D01*
X125229752Y-41561251D02*
X125277371Y-41656489D01*
X125277371Y-41656489D02*
X125324990Y-41704108D01*
X125324990Y-41704108D02*
X125420228Y-41751727D01*
X125420228Y-41751727D02*
X125515466Y-41751727D01*
X125515466Y-41751727D02*
X125610704Y-41704108D01*
X125610704Y-41704108D02*
X125658323Y-41656489D01*
X125658323Y-41656489D02*
X125705942Y-41561251D01*
X125705942Y-41561251D02*
X125705942Y-41323156D01*
X125705942Y-41323156D02*
X125658323Y-41180299D01*
X125705942Y-40846965D02*
X124705942Y-40608870D01*
X124705942Y-40608870D02*
X125420228Y-40418394D01*
X125420228Y-40418394D02*
X124705942Y-40227918D01*
X124705942Y-40227918D02*
X125705942Y-39989823D01*
X125277371Y-39466013D02*
X125324990Y-39561251D01*
X125324990Y-39561251D02*
X125372609Y-39608870D01*
X125372609Y-39608870D02*
X125467847Y-39656489D01*
X125467847Y-39656489D02*
X125515466Y-39656489D01*
X125515466Y-39656489D02*
X125610704Y-39608870D01*
X125610704Y-39608870D02*
X125658323Y-39561251D01*
X125658323Y-39561251D02*
X125705942Y-39466013D01*
X125705942Y-39466013D02*
X125705942Y-39275537D01*
X125705942Y-39275537D02*
X125658323Y-39180299D01*
X125658323Y-39180299D02*
X125610704Y-39132680D01*
X125610704Y-39132680D02*
X125515466Y-39085061D01*
X125515466Y-39085061D02*
X125467847Y-39085061D01*
X125467847Y-39085061D02*
X125372609Y-39132680D01*
X125372609Y-39132680D02*
X125324990Y-39180299D01*
X125324990Y-39180299D02*
X125277371Y-39275537D01*
X125277371Y-39275537D02*
X125277371Y-39466013D01*
X125277371Y-39466013D02*
X125229752Y-39561251D01*
X125229752Y-39561251D02*
X125182133Y-39608870D01*
X125182133Y-39608870D02*
X125086895Y-39656489D01*
X125086895Y-39656489D02*
X124896419Y-39656489D01*
X124896419Y-39656489D02*
X124801181Y-39608870D01*
X124801181Y-39608870D02*
X124753562Y-39561251D01*
X124753562Y-39561251D02*
X124705942Y-39466013D01*
X124705942Y-39466013D02*
X124705942Y-39275537D01*
X124705942Y-39275537D02*
X124753562Y-39180299D01*
X124753562Y-39180299D02*
X124801181Y-39132680D01*
X124801181Y-39132680D02*
X124896419Y-39085061D01*
X124896419Y-39085061D02*
X125086895Y-39085061D01*
X125086895Y-39085061D02*
X125182133Y-39132680D01*
X125182133Y-39132680D02*
X125229752Y-39180299D01*
X125229752Y-39180299D02*
X125277371Y-39275537D01*
X124753562Y-32067918D02*
X124705942Y-31925061D01*
X124705942Y-31925061D02*
X124705942Y-31686966D01*
X124705942Y-31686966D02*
X124753562Y-31591728D01*
X124753562Y-31591728D02*
X124801181Y-31544109D01*
X124801181Y-31544109D02*
X124896419Y-31496490D01*
X124896419Y-31496490D02*
X124991657Y-31496490D01*
X124991657Y-31496490D02*
X125086895Y-31544109D01*
X125086895Y-31544109D02*
X125134514Y-31591728D01*
X125134514Y-31591728D02*
X125182133Y-31686966D01*
X125182133Y-31686966D02*
X125229752Y-31877442D01*
X125229752Y-31877442D02*
X125277371Y-31972680D01*
X125277371Y-31972680D02*
X125324990Y-32020299D01*
X125324990Y-32020299D02*
X125420228Y-32067918D01*
X125420228Y-32067918D02*
X125515466Y-32067918D01*
X125515466Y-32067918D02*
X125610704Y-32020299D01*
X125610704Y-32020299D02*
X125658323Y-31972680D01*
X125658323Y-31972680D02*
X125705942Y-31877442D01*
X125705942Y-31877442D02*
X125705942Y-31639347D01*
X125705942Y-31639347D02*
X125658323Y-31496490D01*
X125705942Y-31163156D02*
X124705942Y-30925061D01*
X124705942Y-30925061D02*
X125420228Y-30734585D01*
X125420228Y-30734585D02*
X124705942Y-30544109D01*
X124705942Y-30544109D02*
X125705942Y-30306014D01*
X124705942Y-29401252D02*
X124705942Y-29972680D01*
X124705942Y-29686966D02*
X125705942Y-29686966D01*
X125705942Y-29686966D02*
X125563085Y-29782204D01*
X125563085Y-29782204D02*
X125467847Y-29877442D01*
X125467847Y-29877442D02*
X125420228Y-29972680D01*
X125705942Y-28544109D02*
X125705942Y-28734585D01*
X125705942Y-28734585D02*
X125658323Y-28829823D01*
X125658323Y-28829823D02*
X125610704Y-28877442D01*
X125610704Y-28877442D02*
X125467847Y-28972680D01*
X125467847Y-28972680D02*
X125277371Y-29020299D01*
X125277371Y-29020299D02*
X124896419Y-29020299D01*
X124896419Y-29020299D02*
X124801181Y-28972680D01*
X124801181Y-28972680D02*
X124753562Y-28925061D01*
X124753562Y-28925061D02*
X124705942Y-28829823D01*
X124705942Y-28829823D02*
X124705942Y-28639347D01*
X124705942Y-28639347D02*
X124753562Y-28544109D01*
X124753562Y-28544109D02*
X124801181Y-28496490D01*
X124801181Y-28496490D02*
X124896419Y-28448871D01*
X124896419Y-28448871D02*
X125134514Y-28448871D01*
X125134514Y-28448871D02*
X125229752Y-28496490D01*
X125229752Y-28496490D02*
X125277371Y-28544109D01*
X125277371Y-28544109D02*
X125324990Y-28639347D01*
X125324990Y-28639347D02*
X125324990Y-28829823D01*
X125324990Y-28829823D02*
X125277371Y-28925061D01*
X125277371Y-28925061D02*
X125229752Y-28972680D01*
X125229752Y-28972680D02*
X125134514Y-29020299D01*
D12*
%TO.C,J1*%
X70140000Y-29660000D02*
X70140000Y-28410000D01*
X70440000Y-28050000D02*
X71050000Y-28050000D01*
X70440000Y-26750000D02*
X71050000Y-26750000D01*
X71050000Y-28750000D02*
X71050000Y-25250000D01*
X71050000Y-25250000D02*
X75950000Y-25250000D01*
X71390000Y-29660000D02*
X70140000Y-29660000D01*
X71900000Y-29560000D02*
X71900000Y-29360000D01*
X72200000Y-29560000D02*
X71900000Y-29560000D01*
X72200000Y-29460000D02*
X71900000Y-29460000D01*
X72200000Y-29360000D02*
X72200000Y-29560000D01*
X73000000Y-29360000D02*
X73000000Y-28750000D01*
X73000000Y-28750000D02*
X71050000Y-28750000D01*
X73400000Y-25750000D02*
X73600000Y-25750000D01*
X73400000Y-25250000D02*
X73400000Y-25750000D01*
X73500000Y-25250000D02*
X73500000Y-25750000D01*
X73600000Y-25750000D02*
X73600000Y-25250000D01*
X74000000Y-28750000D02*
X74000000Y-29360000D01*
X75950000Y-28750000D02*
X74000000Y-28750000D01*
X75950000Y-25250000D02*
X75950000Y-28750000D01*
X76560000Y-28050000D02*
X75950000Y-28050000D01*
X76560000Y-26750000D02*
X75950000Y-26750000D01*
X70440000Y-29360000D02*
X76560000Y-29360000D01*
X76560000Y-24640000D01*
X70440000Y-24640000D01*
X70440000Y-29360000D01*
%TO.C,J2*%
X50560000Y-64090000D02*
X50560000Y-71910000D01*
X50560000Y-65690000D02*
X49640000Y-65690000D01*
X50560000Y-71910000D02*
X44440000Y-71910000D01*
X49640000Y-64090000D02*
X50560000Y-64090000D01*
X49640000Y-65690000D02*
X49640000Y-64090000D01*
X49360000Y-65690000D02*
X49640000Y-65690000D01*
X49360000Y-65690000D02*
X49360000Y-64475000D01*
X49300000Y-69650000D02*
X49300000Y-71910000D01*
X48800000Y-69650000D02*
X48800000Y-71910000D01*
X48000000Y-67550000D02*
X47000000Y-67550000D01*
X48000000Y-71910000D02*
X48000000Y-67550000D01*
X47000000Y-67550000D02*
X47000000Y-71910000D01*
X45360000Y-64090000D02*
X45360000Y-65690000D01*
X45360000Y-65690000D02*
X45640000Y-65690000D01*
X44440000Y-64090000D02*
X45360000Y-64090000D01*
X44440000Y-65690000D02*
X45360000Y-65690000D01*
X44440000Y-71910000D02*
X44440000Y-64090000D01*
X49800000Y-68050000D02*
X48800000Y-68050000D01*
X48800000Y-69650000D01*
X49800000Y-69650000D01*
X49800000Y-68050000D01*
X46200000Y-68050000D02*
X45200000Y-68050000D01*
X45200000Y-69650000D01*
X46200000Y-69650000D01*
X46200000Y-68050000D01*
D13*
%TO.C,U2*%
X43942000Y-21844000D02*
X43942000Y-49784000D01*
X43942000Y-49784000D02*
X99822000Y-49784000D01*
X99822000Y-21844000D02*
X43942000Y-21844000D01*
X99822000Y-49784000D02*
X99822000Y-21844000D01*
D14*
X98664000Y-50410000D02*
G75*
G02*
X98464000Y-50410000I-100000J0D01*
G01*
X98464000Y-50410000D02*
G75*
G02*
X98664000Y-50410000I100000J0D01*
G01*
%TO.C,SW8*%
D15*
X120693846Y-44718395D02*
X126393846Y-44718395D01*
X126393846Y-36218395D01*
X120693846Y-36218395D01*
X120693846Y-44718395D01*
%TO.C,SW16*%
X120693846Y-34558395D02*
X126393846Y-34558395D01*
X126393846Y-26058395D01*
X120693846Y-26058395D01*
X120693846Y-34558395D01*
%TD*%
M02*
